<svg xmlns="http://www.w3.org/2000/svg" viewBox="0 0 28 32"><g fill="currentColor" class="nc-icon-wrapper"><path d="M4.864 8.932c.801.669 1.914.758 2.76.178.134-.089 0-.268-.089-.178a2.203 2.203 0 0 1-2.582-.089c-.045-.045-.134.045-.089.089z"></path><path d="M7.758 8.531c.312 1.026 2.003.937 2.805.758.935-.178 2.093-1.026 2.493-1.918.045-.089-.089-.178-.178-.089-.356.669-1.069 1.249-1.692 1.606-.668.357-3.072.669-3.384-.401 0 0-.045 0-.045.045z"></path><path d="M13.145 7.505c2.404.268 4.719.178 7.079-.268.134-.045.089-.223-.045-.223-2.315.446-4.675.624-6.99.401-.089.045-.089.089-.045.089z"></path><path d="M20.669 7.371c.045 1.16.178 2.364.267 3.524 0 .134.223.134.223 0-.134-1.16-.223-2.364-.356-3.524 0-.134-.134-.134-.134 0z"></path><path d="M4.285 9.556c.312 5.62.979 11.24 1.736 16.816.045.223.356.134.356-.089-.801-5.576-1.425-11.151-2.003-16.727 0-.045-.089-.045-.089 0z"></path><path d="M6.066 26.595c-.178.892-.356 1.74-.49 2.632-.045.178.267.268.267.089.134-.892.267-1.784.356-2.721 0-.045-.089-.045-.134 0z"></path><path d="M5.71 29.361c1.959 2.096 5.075 2.364 7.791 2.542 2.493.134 6.189.402 8.147-1.427.178-.178-.089-.446-.267-.268-1.959 1.695-5.432 1.427-7.88 1.338-2.627-.134-5.699-.312-7.702-2.23-.045-.089-.134 0-.089.045z"></path><path d="M21.337 27.309c.356.982.356 2.007.089 2.989-.045.178.223.268.267.089.267-1.07.134-2.096-.312-3.078 0-.089-.089-.045-.045 0z"></path><path d="M21.025 27.309c.712-5.843.579-11.776 0-17.574 0-.134-.267-.134-.223 0 .579 5.888.49 11.686.134 17.574 0 .045.089.045.089 0z"></path><path d="M21.337 12.902c1.915-.58 3.74-.714 5.654-.045.134.045.223-.178.045-.223-1.87-.624-3.918-.624-5.743.178-.044 0 0 .089.045.089z"></path><path d="M27.036 12.857c.356 3.256.668 6.334.401 9.59 0 .178.312.178.312 0a30.149 30.149 0 0 0-.623-9.59c.044-.089-.089-.089-.089 0z"></path><path d="M21.693 24.098c1.959-.58 4.363.178 5.966-1.383.134-.134-.089-.312-.223-.223-1.558 1.561-3.962.625-5.788 1.517-.045.045 0 .089.045.089z"></path><path d="M24.988 14.374c.935.714.712 2.453.757 3.524.045 1.16.089 2.364.178 3.524 0 .134.223.134.223 0-.089-1.784-.134-3.613-.267-5.442-.045-.714-.134-1.338-.801-1.74-.089 0-.134.089-.089.134z"></path><path d="M25.834 21.555c-1.336.535-2.716.758-4.141.401-.178-.045-.267.268-.089.312 1.469.312 2.938.178 4.274-.58.089-.045.044-.178-.045-.134z"></path><path d="M21.159 10.047c1.113.312 2.404-.401 2.716-1.517.312-1.16-.401-2.364-1.514-2.81-.134-.045-.223.178-.089.223 1.069.401 1.736 1.606 1.291 2.676-.401.981-1.425 1.383-2.404 1.294-.045.045-.045.134 0 .134z"></path><path d="M22.139 5.854C21.961 3.401 20.848.546 18.132.055c-2.182-.401-5.075 1.427-5.521 3.613-.045.223.267.312.312.089.623-2.765 4.363-4.282 6.634-2.765 1.647 1.115 2.182 3.033 2.493 4.906 0 0 .089 0 .089-.045z"></path><path d="M11.053 5.23a5.969 5.969 0 0 1 3.027-1.74c.089-.045.045-.178-.045-.178-1.202.268-2.271.892-3.072 1.873 0 .045.044.089.089.045z"></path><path d="M12.789 3.089C8.827-.301 2.683 2.866 2.015 7.639c0 .178.223.223.267.089.712-4.996 6.367-7.226 10.463-4.594.044.045.089 0 .044-.045z"></path><path d="M2.504 7.683C.946 7.728-.123 9.244.011 10.761s1.514 2.587 2.983 2.676c.178 0 .178-.268 0-.268C1.658 13.124.412 12.143.323 10.76s.846-2.721 2.226-2.944c0-.045 0-.134-.045-.134z"></path><path d="M2.95 13.169c-.579 1.517-.178 3.881 1.825 3.881a.156.156 0 0 0 0-.312c-1.87-.089-2.048-2.141-1.736-3.524.045-.089-.045-.089-.089-.045z"></path><path d="M15.905 12.277c-.579.401-.089 1.338.579 1.07.312-.134.534-.446.445-.758-.089-.357-.445-.669-.801-.624-.045 0-.045.089 0 .089.267.045.579.178.623.491.089.268-.089.535-.312.624-.534.223-.935-.491-.49-.848.045-.045.045-.089-.045-.045z"></path><path d="M16.84 13.705c.134.223.445.268.623.134.223-.134.223-.446.089-.669 0-.045-.045-.045-.089 0-.223.134-.445.312-.534.535-.045.089.089.134.089.045a.885.885 0 0 1 .49-.491h-.089c.312.401-.267.848-.579.446z"></path><path d="M18.488 11.653c-.267.134-.49.491-.356.803.089.312.668.134.846-.045.178-.223.223-.624-.089-.758-.267-.134-.579.089-.579.357 0 .089.178.089.178 0-.045-.268.356-.312.445-.089s-.089.401-.312.491c-.223.045-.401 0-.401-.223s.134-.401.312-.491l-.044-.045z"></path><path d="M18.31 17.05c-.267.089-.267.58.045.491.267-.089.267-.535 0-.58-.134-.045-.178.134-.045.178.089 0 .089.134.089.178-.089.178-.223-.089-.045-.178.089 0 .045-.089-.045-.089z"></path><path d="M5.888 15.89c.089 2.587.312 5.174.935 7.672.356 1.561.89 2.989 2.627 3.256.134 0 .178-.178.044-.178-3.384-.535-3.428-8.163-3.606-10.75z"></path><path d="M9.672 26.997c.49-.267.935-.624 1.38-.937.089-.045 0-.178-.089-.134-.445.312-.935.669-1.291 1.07-.045-.045-.045 0 0 0z"></path><path d="M11.008 26.016c1.069 1.472 3.161 1.16 3.962-.401 0-.045-.045-.089-.045-.045-.801 1.561-2.716 1.65-3.829.401-.045-.045-.089 0-.089.045z"></path><path d="M15.327 25.034c.668 1.026 1.736 2.007 3.027 1.829.979-.134 1.736-.803 1.825-1.784 0-.089-.134-.089-.134 0-.134 1.16-1.38 1.829-2.449 1.606-.935-.223-1.647-.937-2.226-1.695 0-.045-.089 0-.045.045z"></path><path d="M20.224 13.571c.134 3.925 0 7.85-.445 11.731 0 .089.134.089.134 0 .401-3.925.534-7.806.312-11.731.044-.045 0-.045 0 0z"></path><path d="M25.478 14.731c-.178-.892.579-1.873 1.558-1.784.134 0 .134-.178 0-.223-1.024-.134-2.048.981-1.603 2.007 0 .089.045.045.045 0z"></path><path d="M25.7 21.6c.222.624.579 1.16 1.113 1.606.089.089.223-.045.134-.134-.49-.402-.846-.937-1.157-1.472-.089-.045-.134-.045-.089 0z"></path><path d="M19.823 5.631c.045 1.026.623 1.918 1.603 2.319.089.045.178-.134.045-.178-.89-.357-1.469-1.204-1.603-2.141.045-.045-.045-.045-.045 0z"></path><path d="M17.33 2.866c-.134.223-.089.491.134.669s.534.045.668-.223c.267-.535-.623-.803-.801-.312-.045.089.089.134.134.045.134-.357.757-.134.534.223-.223.401-.757 0-.579-.401 0 0-.045-.045-.089 0z"></path><path d="M16.306 5.319c-.089.178-.089.357.045.491.134.178.267.089.445 0 .134-.089.312-.223.267-.401-.045-.134-.267-.223-.401-.134-.134.045-.045.223.089.178.178 0 .223.045.134.134l-.089.089c-.044.044-.178.134-.223.134-.178 0-.178-.312-.134-.446-.045-.045-.089-.045-.134-.045z"></path><path d="M21.248 23.518c.044.223.089.446.178.669 0 .089.134.045.134-.045-.089-.223-.134-.446-.223-.624-.045-.089-.089-.089-.089 0z"></path><path d="M21.337 23.027l.267.937c0 .089.134.045.134-.045-.089-.312-.178-.624-.312-.937-.045 0-.134 0-.089.045z"></path><path d="M21.426 22.581c.134.446.223.892.401 1.338 0 .045.134.045.089-.045-.134-.446-.267-.892-.401-1.294 0-.089-.089-.045-.089 0z"></path><path d="M21.604 22.403c.089.491.267.981.49 1.427.045.089.134 0 .089-.045a3.728 3.728 0 0 1-.534-1.383c.045-.089-.045-.089-.045 0z"></path><path d="M21.782 22.135c.178.535.401 1.026.579 1.561.045.089.178.045.134-.045-.223-.491-.401-1.026-.623-1.516-.045-.089-.089-.045-.089 0z"></path><path d="M22.183 22.269c.178.446.356.892.534 1.294.044.089.178.045.134-.045-.178-.446-.401-.847-.579-1.294-.044 0-.089.045-.089.045z"></path><path d="M22.584 22.403c.223.401.445.803.623 1.204.045.045.134 0 .089-.045l-.668-1.204c-.045-.045-.089 0-.045.045z"></path><path d="M22.94 22.403c.223.401.445.758.668 1.16.045.089.178 0 .134-.089-.267-.357-.49-.758-.757-1.115 0-.045-.089 0-.045.045z"></path><path d="M23.474 22.581c.178.312.312.669.49.937.045.089.223 0 .178-.089-.178-.312-.401-.625-.579-.892-.045-.045-.134 0-.089.045z"></path><path d="M23.919 22.67c.178.312.312.58.49.892.045.089.223 0 .178-.089-.178-.268-.356-.58-.534-.848-.045-.045-.178 0-.134.045z"></path><path d="M24.409 22.67c.089.312.267.58.49.803.089.089.178-.045.089-.134a1.579 1.579 0 0 1-.49-.714c-.044-.045-.089 0-.089.045z"></path><path d="M24.943 22.849c.089.312.267.58.534.714.089.045.178-.089.089-.134-.267-.134-.445-.312-.534-.625 0-.045-.089 0-.089.045z"></path><path d="M25.611 23.116c0 .134.089.223.223.223.045 0 .045-.089 0-.089l-.134-.134c-.045-.045-.089-.045-.089 0z"></path><path d="M21.382 12.946c.089.401.223.803.267 1.204 0 .089.134.089.134 0-.044-.401-.134-.848-.312-1.204-.045-.089-.089-.045-.089 0z"></path><path d="M21.827 12.813c-.089.491 0 .981.178 1.427.044.089.178.045.134-.045-.223-.401-.312-.892-.267-1.383h-.045z"></path><path d="M22.049 12.634c-.045.58.134 1.07.401 1.517.045.089.223 0 .134-.089-.312-.401-.49-.937-.445-1.427.045-.045-.089-.045-.089 0z"></path><path d="M22.495 12.634c.134.491.267.937.356 1.427 0 .089.178.045.134-.045-.178-.446-.312-.937-.445-1.383 0-.045-.044-.045-.044 0z"></path><path d="M22.851 12.456c.134.535.312 1.071.445 1.606.045.089.178.045.178-.045a22.338 22.338 0 0 1-.49-1.606c-.089 0-.134 0-.134.045z"></path><path d="M23.296 12.545c.134.491.267.937.356 1.427 0 .089.222.045.178-.045-.178-.446-.267-.937-.401-1.383-.045-.045-.134-.045-.134 0z"></path><path d="M23.697 12.545c.089.535.223 1.071.401 1.606.045.134.223.089.178-.045a9.292 9.292 0 0 0-.534-1.561c0-.045-.045 0-.045 0z"></path><path d="M24.097 12.5c.089.535.223 1.071.356 1.561.044.089.178.045.134-.045-.223-.491-.312-1.026-.401-1.561 0-.045-.089-.045-.089.045z"></path><path d="M24.454 12.5c.134.535.312 1.071.445 1.561.045.089.178.045.134-.045-.178-.535-.312-1.026-.49-1.561 0-.045-.089-.045-.089.045z"></path><path d="M24.854 12.59c.134.446.267.892.401 1.294.045.089.134.045.134-.045-.134-.446-.312-.847-.445-1.294-.045-.045-.089 0-.089.045z"></path><path d="M25.3 12.813c.134.045.089.268.134.357 0 .045.045.089.134.134s.223.045.223-.089c0-.089-.134-.134-.134-.045-.089-.045-.134-.089-.134-.178 0-.045 0-.089-.044-.134s-.045-.089-.134-.089c-.044-.045-.089.045-.044.045z"></path><path d="M26.413 13.883c.356 2.275.534 4.55.49 6.825 0 .134.178.134.178 0 0-2.319-.178-4.594-.623-6.869.045-.045-.045 0-.045.045z"></path><path d="M26.68 13.571a56.69 56.69 0 0 1 .401 7.761c0 .134.178.134.178 0 0-2.587-.134-5.174-.49-7.761 0-.045-.089-.045-.089 0z"></path><path d="M1.035 9.423a9.244 9.244 0 0 0-.134 1.561c0 .045.089.045.089 0a6.05 6.05 0 0 1 .045-1.561c0-.045 0-.045 0 0z"></path><path d="M1.258 8.932c0 .848 0 1.74-.045 2.587 0 .089.134.089.134 0-.045-.848-.045-1.74-.045-2.587.045-.045-.045-.045-.045 0z"></path><path d="M1.659 9.155c0 .937.045 1.873.089 2.765 0 .089.178.089.178 0-.045-.937-.089-1.873-.134-2.765-.045-.089-.134-.089-.134 0z"></path><path d="M2.104 9.69c-.045.848-.045 1.65 0 2.498 0 .089.178.089.134 0-.045-.847-.089-1.65-.045-2.498 0-.045-.089-.045-.089 0z"></path><path d="M2.549 10.538c0 .624 0 1.249-.045 1.873 0 .089.178.089.134 0 0-.624 0-1.249-.045-1.873.045-.089-.045-.089-.045 0z"></path><path d="M2.905 10.449c0 .758 0 1.561-.045 2.319 0 .089.178.089.178 0 0-.758 0-1.561-.045-2.319.045-.089-.089-.089-.089 0z"></path><path d="M3.217 10.449c-.045.892 0 1.784.134 2.676 0 .134.223.089.178-.045a10.817 10.817 0 0 1-.178-2.676c-.045-.045-.134-.045-.134.045z"></path><path d="M3.484 10.047c0 1.784.089 3.524.223 5.263 0 .089.178.089.178 0-.134-1.74-.267-3.524-.267-5.263-.045-.045-.134-.045-.134 0z"></path><path d="M3.751 9.512c.045 2.096.134 4.193.312 6.289 0 .134.223.134.223 0a99.152 99.152 0 0 1-.445-6.289c0-.045-.089-.045-.089 0z"></path><path d="M4.018 10.047c.089 2.052.267 4.059.445 6.111 0 .134.223.134.223 0-.178-2.052-.312-4.059-.579-6.111 0-.045-.089-.045-.089 0z"></path><path d="M7.491 2.643l.134.669c0 .089.134.045.089-.045-.045-.178-.089-.401-.178-.624 0-.045-.045-.045-.045 0z"></path><path d="M7.803 2.464c.045.357.134.669.178 1.026 0 .045.089.045.089-.045-.089-.357-.134-.669-.223-1.026.045 0-.045 0-.045.045z"></path><path d="M8.248 2.643c.134.357.178.758.178 1.115 0 .089.134.089.134 0-.045-.401-.089-.758-.267-1.16 0 0-.044 0-.044.045z"></path><path d="M8.693 2.375c.134.535.267 1.115.312 1.65 0 .134.178.089.134 0a9.914 9.914 0 0 0-.401-1.65c0-.089-.045-.045-.045 0z"></path><path d="M9.183 2.464c.178.535.223 1.115.178 1.65 0 .089.178.089.178 0 0-.58-.089-1.16-.267-1.695-.044-.045-.134 0-.089.045z"></path><path d="M9.494 2.554c.178.624.267 1.294.267 1.918 0 .089.134.089.134 0a7.45 7.45 0 0 0-.267-1.963c-.045 0-.134 0-.134.045z"></path><path d="M9.851 2.554c.045.758.178 1.517.312 2.23 0 .089.178.045.134-.045-.178-.714-.267-1.472-.356-2.23 0 0-.089 0-.089.045z"></path><path d="M10.251 2.554c.089.758.178 1.472.267 2.23 0 .134.178.089.178-.045-.134-.714-.223-1.472-.312-2.23-.045-.045-.134 0-.134.045z"></path><path d="M10.518 2.554c.089.758.223 1.472.312 2.23 0 .134.223.089.178-.045-.134-.758-.267-1.472-.401-2.23 0-.045-.089 0-.089.045z"></path><path d="M10.919 2.732c.134.535.223 1.115.223 1.65 0 .089.178.089.178 0-.045-.58-.089-1.115-.267-1.695-.045-.045-.134 0-.134.045z"></path><path d="M11.275 2.732c.089.535.134 1.026.223 1.561 0 .134.178.089.178-.045-.089-.535-.223-1.026-.312-1.561 0 0-.089 0-.089.045z"></path><path d="M11.542 2.777c.089.446.178.848.223 1.294 0 .134.267.134.223-.045-.134-.401-.223-.848-.312-1.294-.045-.089-.178-.045-.134.045z"></path><path d="M11.899 2.91c0 .401.134.803.089 1.204 0 .134.223.089.178-.045-.134-.401-.134-.803-.223-1.204 0 .045-.045.045-.045.045z"></path><path d="M12.166 3.223c.045.223.134.446.134.669 0 .089.134.045.134-.045-.089-.223-.134-.446-.178-.624 0-.089-.089-.045-.089 0z"></path><path d="M12.522 3.624c.045.045.045.134.089.178.045.089.178 0 .134-.089-.045-.045-.045-.134-.089-.178-.045-.089-.178 0-.134.089z"></path><path d="M13.857 6.434c.045.178.089.357.045.535-.045.089.134.134.134.045.045-.223 0-.401-.089-.624-.045 0-.089 0-.089.045z"></path><path d="M14.392 6.434v.535c0 .045.089.045.089 0v-.535c0-.045-.089-.045-.089 0z"></path><path d="M14.659 6.256c0 .268.045.491.045.758 0 .089.178.089.134 0-.045-.223-.089-.491-.134-.714.044-.089-.045-.089-.045-.045z"></path><path d="M15.015 6.256c0 .268.045.535.178.758.045.089.178 0 .134-.089-.134-.223-.223-.446-.178-.714 0 0-.089 0-.134.045z"></path><path d="M15.505 6.077c0 .268.044.491.044.758 0 .089.134.089.134 0-.045-.223-.089-.491-.134-.714 0-.089-.044-.089-.044-.045z"></path><path d="M15.905 6.256c.045.178.045.357.045.535 0 .089.178.089.134 0l-.134-.535c.045-.045-.045-.045-.045 0z"></path><path d="M16.173 5.988c.045.268.045.491.045.758 0 .134.223.134.178-.045-.045-.268-.089-.491-.134-.758 0-.045-.089 0-.089.045z"></path><path d="M16.751 5.988c.089.268.089.535.044.803 0 .089.134.134.134 0 .045-.312 0-.58-.089-.847-.045 0-.089 0-.089.045z"></path><path d="M17.286 5.899c-.044.312 0 .624.045.981 0 .089.178.045.134-.045-.134-.268-.134-.624-.089-.892 0-.089-.089-.134-.089-.045z"></path><path d="M17.553 5.81c.089.357.178.669.223 1.026 0 .089.178.045.134-.045-.134-.312-.178-.669-.267-1.026 0-.045-.089 0-.089.045z"></path><path d="M17.998 5.72c-.044.312 0 .624.134.892.045.089.178 0 .134-.089a1.633 1.633 0 0 1-.178-.803c0-.089-.089-.045-.089 0z"></path><path d="M18.31 5.899c.045.268.134.535.134.803 0 .089.178.089.134 0-.089-.268-.134-.535-.223-.847.045-.045-.045 0-.045.045z"></path><path d="M18.666 5.72c0 .357.089.714.223 1.071.045.089.223 0 .178-.089a2.543 2.543 0 0 1-.312-.981c0-.089-.089-.089-.089 0z"></path><path d="M19.111 5.72c0 .268.045.535.045.848 0 .134.223.089.178-.045-.045-.268-.089-.535-.178-.803 0-.045-.045-.045-.045 0z"></path><path d="M19.378 5.542c.045.357.089.758.178 1.115.045.134.223.089.178-.045-.045-.357-.134-.714-.223-1.115-.044-.045-.178-.045-.134.045z"></path><path d="M19.734 5.631c.044.312.044.624.089.937 0 .089.178.089.134 0l-.134-.937c0-.089-.089-.089-.089 0z"></path><path d="M3.484 6.077a7.226 7.226 0 0 1 1.38-1.918c.045-.045-.045-.178-.089-.089a6.098 6.098 0 0 0-1.336 2.007c-.045.045 0 .045.045 0z"></path><path d="M3.796 6.167c.267-.58.623-1.115 1.069-1.517.045-.045-.045-.134-.089-.089a4.32 4.32 0 0 0-1.024 1.606s.045.045.045 0z"></path><path d="M19.156 1.483c.312.268.534.58.712.937.045.045.134 0 .089-.045-.178-.401-.445-.714-.801-.892 0-.089-.045-.045 0 0z"></path><path d="M19.334 1.394c.312.357.579.714.801 1.115.045.045.134 0 .089-.045-.223-.401-.534-.758-.846-1.115-.045-.045-.089 0-.045.045z"></path><path d="M7.313 26.64l-.401 1.74c0 .089.134.134.134.045.134-.58.267-1.16.356-1.784 0-.045-.089-.045-.089 0z"></path><path d="M7.58 26.64l-.401 2.141c0 .089.089.089.089.045.089-.714.223-1.427.356-2.141 0-.089-.045-.089-.045-.045z"></path><path d="M7.758 26.908c-.045.624-.089 1.249-.223 1.829-.045.134.134.178.178.045.089-.624.178-1.249.134-1.873 0-.045-.089-.045-.089 0z"></path><path d="M8.114 27.086c-.089.624-.178 1.249-.312 1.829-.045.134.178.134.178.045.044-.624.134-1.204.223-1.829 0-.089-.089-.089-.089-.045z"></path><path d="M8.47 27.354a7.048 7.048 0 0 0-.223 1.695c0 .134.178.134.178 0 0-.58.045-1.115.134-1.65.045-.089-.089-.089-.089-.045z"></path><path d="M8.916 27.488c-.045.58-.134 1.16-.178 1.74 0 .134.178.134.178 0l.134-1.74c0-.089-.134-.089-.134 0z"></path><path d="M9.316 27.488c-.045.357-.089.669-.134 1.026 0 .223-.134.491 0 .714 0 .045.045.045.089.045.089 0 .089-.045.134-.089v-.134c-.045-.134-.223 0-.178.089v-.089c.089 0 .134-.045.089-.134v-.134c0-.134 0-.312.045-.446 0-.268.045-.58.045-.848.045-.089-.089-.089-.089 0z"></path><path d="M9.761 27.666c-.044.535-.089 1.115-.134 1.65 0 .134.178.134.223 0 0-.535.045-1.115.089-1.65-.045-.089-.178-.089-.178 0z"></path><path d="M10.162 27.844a18.83 18.83 0 0 1-.178 1.561c0 .134.178.134.178 0 0-.535.089-1.026.134-1.561-.044-.089-.134-.045-.134 0z"></path><path d="M10.607 28.112a4.774 4.774 0 0 0-.134 1.115c0 .089.178.089.178 0-.045-.357 0-.714.089-1.115 0-.045-.134-.089-.134 0z"></path><path d="M11.053 28.023c-.045.491-.045 1.026-.134 1.517 0 .089.089.089.134.045.045-.089.089-.134.089-.223.045-.089-.089-.178-.134-.089s-.089.178-.089.223h.134c0-.491.045-1.026.089-1.517.045 0-.045 0-.089.045z"></path><path d="M11.587 28.112v1.383c0 .134.223.134.223 0 0-.446 0-.937-.045-1.383 0-.089-.178-.089-.178 0z"></path><path d="M12.344 28.112a5.017 5.017 0 0 0-.089 1.427c0 .134.223.134.178-.045-.089-.446-.045-.892.045-1.338 0-.089-.134-.134-.134-.045z"></path><path d="M12.967 28.112l-.134 1.204c0 .134.178.134.223 0 .045-.401.045-.803.045-1.204 0-.089-.134-.089-.134 0z"></path><path d="M13.457 28.291c0 .312-.045.624-.045.937 0 .089.134.089.134 0 0-.312 0-.624-.045-.937.045-.045-.044-.045-.044 0z"></path><path d="M14.125 28.513v.446c0 .089.089.089.134.045s.134-.089.178-.178c.089-.089-.045-.178-.134-.134-.045.045-.134.089-.178.178.045 0 .089.045.134.045 0-.134-.044-.312-.044-.446 0-.045-.089-.045-.089.045z"></path><path d="M6.868 21.644c.267 1.784.623 3.658 2.003 4.951.089.089.178-.045.134-.134-1.38-1.249-1.736-3.078-2.048-4.862-.045 0-.089 0-.089.045z"></path><path d="M7.224 21.823a14.379 14.379 0 0 0 2.003 4.996c.089.089.223 0 .178-.089-.979-1.517-1.692-3.122-2.093-4.907-.045-.045-.134-.045-.089 0z"></path><path d="M8.292 23.518c.178.58.401 1.16.668 1.695.134.312.312 1.026.623 1.16h.134l.044-.045c.045-.045.045-.089 0-.134v-.045c-.044-.134-.223 0-.178.089.089-.089.089-.178-.045-.268-.044-.134-.134-.268-.178-.357-.089-.178-.178-.401-.267-.58a16.215 16.215 0 0 1-.623-1.561c-.089-.045-.178-.045-.178.045z"></path><path d="M8.827 23.696c.267.847.534 1.65.89 2.453.044.134.267 0 .223-.134-.401-.758-.712-1.561-.979-2.364-.045-.089-.178-.045-.134.045z"></path><path d="M9.672 24.41c0 .535.223 1.026.579 1.472.089.089.223-.045.134-.134-.356-.357-.534-.803-.579-1.294 0-.134-.178-.134-.134-.045z"></path><path d="M10.207 24.633c.134.357.267.758.401 1.115.045.134.267.045.178-.089-.178-.357-.312-.714-.49-1.115.045-.045-.089 0-.089.089z"></path><path d="M10.786 24.767c-.044.268.045.491.134.714.089.134.267 0 .134-.134-.178-.134-.223-.357-.178-.58.045-.045-.089-.045-.089 0z"></path><path d="M10.029 17.451c.089 1.829.134 3.658.178 5.486 0 .134.178.134.178 0-.089-1.829-.178-3.658-.312-5.486 0-.045-.089-.045-.045 0z"></path><path d="M10.251 17.273l.134 6.378c0 .134.267.178.223 0-.089-2.141-.178-4.282-.267-6.378 0-.045-.089-.045-.089 0z"></path><path d="M11.275 24.811c.089.624.267 1.204.534 1.784.045.089.134 0 .089-.045a6.518 6.518 0 0 1-.534-1.74c-.045-.089-.089-.045-.089 0z"></path><path d="M11.809 24.99c.134.535.267 1.026.49 1.517.045.134.223.045.178-.045-.223-.491-.356-.982-.49-1.472-.089-.134-.223-.089-.178 0z"></path><path d="M12.166 24.99c.223.401.356.803.445 1.249 0 .089.178.089.134 0-.089-.446-.223-.892-.49-1.294 0-.045-.134 0-.089.045z"></path><path d="M12.744 24.722c.089.401.223.803.312 1.204.045.089.178.045.178-.045a12.264 12.264 0 0 1-.356-1.204c-.045-.089-.178-.045-.134.045z"></path><path d="M13.145 24.588c.089.357.223.714.356 1.026.045.134.134.312.312.223.045-.045.089-.134 0-.178s-.223.089-.089.178v-.178c.044-.045-.401-1.026-.445-1.115-.089-.045-.178 0-.134.045z"></path><path d="M13.679 24.767c0 .357.134.624.356.892.089.089.223-.045.089-.134-.267-.178-.356-.491-.356-.758 0-.045-.089-.045-.089 0z"></path><path d="M13.991 24.544c.044.223.134.491.223.714.044.134.223 0 .178-.089-.089-.223-.178-.446-.223-.669-.045-.089-.178-.045-.178.045z"></path><path d="M14.303 23.964c.045.312.089.58.178.848.044.089.134.089.134 0 .045-.089.045-.178.089-.268.044-.134-.134-.178-.178-.045 0 .089-.044.178-.044.268h.134c-.134-.268-.178-.535-.223-.803 0-.089-.089-.089-.089 0z"></path><path d="M14.57 24.008c.045.045.089.134.134.178.089.134.267-.045.134-.134-.089-.045-.134-.134-.178-.178s-.134.045-.089.134z"></path><path d="M14.659 22.67v.178c0 .089.178.089.178 0v-.178c-.045-.089-.178-.089-.178 0z"></path><path d="M15.905 19.503c.045 1.294.045 2.587.045 3.881 0 .089.178.089.178 0l-.134-3.881c-.045-.045-.089-.045-.089 0z"></path><path d="M16.173 19.236a46.775 46.775 0 0 0 0 4.996c0 .134.223.134.223 0a37.366 37.366 0 0 1-.089-4.996c0-.089-.134-.089-.134 0z"></path><path d="M15.905 23.562c.134.714.401 1.383.534 2.052.045.134.267.089.223-.045-.178-.669-.356-1.427-.668-2.052-.045 0-.089.045-.089.045z"></path><path d="M16.217 23.429c.134.803.401 1.606.801 2.364.045.089.178 0 .134-.089a8.226 8.226 0 0 1-.846-2.275c0-.089-.089-.089-.089 0z"></path><path d="M16.885 24.544c.089.402.267.758.445 1.16.045.089.223 0 .178-.089a3.315 3.315 0 0 1-.49-1.071c-.044-.089-.134-.089-.134 0z"></path><path d="M17.241 24.321c.089.446.223.892.49 1.249.044.089.223 0 .178-.089-.223-.401-.401-.758-.534-1.204 0-.045-.134 0-.134.045z"></path><path d="M17.731 24.722c.044.312.223.669.49.848.089.045.178-.089.089-.134-.267-.223-.445-.401-.49-.758 0-.045-.089-.045-.089.045z"></path><path d="M18.265 24.677c0 .268.089.535.267.758.045.045.089.045.134.045.134-.045.223-.089.267-.223s-.178-.178-.223-.045c-.045.045-.045.089-.134.089h.134a1.192 1.192 0 0 1-.312-.624c0-.089-.134-.089-.134 0z"></path><path d="M18.666 24.41c.045.223.134.446.223.669.045.134.223.045.134-.045-.089-.223-.178-.446-.267-.624 0-.089-.089-.045-.089 0z"></path><path d="M19.022 23.785c0 .268 0 .58.134.803.045.089.178 0 .134-.089-.089-.268-.178-.446-.178-.714 0-.045-.089-.045-.089 0z"></path><path d="M19.022 23.116c.089.223.178.446.223.669.044.089.178.045.134-.045-.089-.223-.223-.402-.312-.624 0-.045-.045-.045-.045 0z"></path><path d="M19.2 22.492c.045.223.134.446.178.669 0 .089.178.045.134-.045-.089-.178-.134-.401-.223-.625 0-.089-.089-.045-.089 0z"></path><path d="M19.289 21.734c.045.178.134.357.178.58 0 .089.134.045.134-.045-.089-.178-.134-.357-.223-.535 0-.045-.089-.045-.089 0z"></path><path d="M19.378 20.931c.045.178.134.357.178.58 0 .045.089.045.089-.045a2.489 2.489 0 0 1-.178-.535c-.045-.089-.089-.045-.089 0z"></path><path d="M19.467 19.994v.089c-.045.134.178.134.134 0v-.089c-.045-.089-.134-.089-.134 0z"></path><path d="M5.131 9.244c.134.937.223 1.829.134 2.765 0 .134.178.134.178 0 .045-.937 0-1.873-.223-2.81.045-.089-.089-.045-.089.045z"></path><path d="M5.532 9.244c-.045.892-.045 1.784.045 2.676 0 .089.134.089.134 0a26.938 26.938 0 0 1-.134-2.676c.045-.045-.045-.045-.045 0z"></path><path d="M5.977 9.512c-.045.848.045 1.65.134 2.498 0 .134.178.089.178 0-.178-.803-.223-1.65-.178-2.498-.045-.045-.134-.045-.134 0z"></path><path d="M6.467 9.512c.045.848.089 1.74.134 2.587 0 .134.178.134.178 0-.089-.848-.134-1.74-.223-2.587 0-.089-.089-.089-.089 0z"></path><path d="M7.001 9.423c-.045.848-.045 1.74.089 2.587 0 .089.134.089.134 0-.045-.848-.134-1.74-.089-2.587-.045-.045-.134-.045-.134 0z"></path><path d="M7.357 9.333c.045.937.134 1.873.178 2.765 0 .089.134.089.134 0-.089-.937-.134-1.873-.223-2.765 0-.089-.089-.089-.089 0z"></path><path d="M7.713 9.155l.267 3.078c0 .134.178.089.178 0-.134-1.026-.223-2.052-.312-3.078 0-.089-.134-.089-.134 0z"></path><path d="M8.203 9.333l.134 2.676c0 .089.178.089.178 0a53.405 53.405 0 0 1-.178-2.676c0-.089-.134-.089-.134 0z"></path><path d="M8.648 9.244c.089.981.134 1.963.134 2.944 0 .134.223.134.223 0a33.913 33.913 0 0 0-.267-2.989c0-.045-.089-.045-.089.045z"></path><path d="M9.227 9.423c.089.848.089 1.74 0 2.587 0 .134.178.134.178 0 0-.848 0-1.74-.089-2.587.045-.089-.089-.089-.089 0z"></path><path d="M9.806 9.512c.089.803.045 1.606 0 2.409 0 .134.178.134.178 0 .044-.803 0-1.606-.134-2.409.045-.045-.045-.045-.045 0z"></path><path d="M10.251 9.779c0 .758 0 1.561-.045 2.319 0 .089.134.089.134 0-.045-.758-.045-1.561-.045-2.319.045-.045-.044-.045-.044 0z"></path><path d="M10.786 9.958c0 .758 0 1.472-.044 2.23 0 .089.178.089.178 0-.045-.758 0-1.472-.045-2.23 0-.045-.089-.045-.089 0z"></path><path d="M11.32 9.021c.045.937.089 1.918.045 2.855 0 .134.223.134.178 0-.089-.937-.089-1.918-.134-2.855.045-.045-.089-.045-.089 0z"></path><path d="M12.077 8.486c0 1.16 0 2.275-.045 3.435 0 .134.178.134.223.045.045-.134.045-.268.089-.357.045-.134-.178-.178-.223-.045s-.089.268-.089.357c.089 0 .134 0 .223.045-.044-1.16-.044-2.275-.089-3.435 0-.089-.089-.089-.089-.045z"></path><path d="M12.566 8.843c0 .624.045 1.249.045 1.873 0 .268-.089.758.089.981.045.045.089.045.089 0 .089-.045.089-.045.089-.134 0-.045-.045-.045-.045-.089h-.045c-.089-.045-.134.134-.044.134-.089-.045-.045-1.294-.045-1.472 0-.446-.045-.892-.045-1.338 0 0-.089 0-.089.045z"></path><path d="M12.967 8.218c.134 1.115.178 2.23.134 3.345 0 .134.223.134.223 0 0-1.115-.089-2.23-.267-3.345.045-.089-.089-.089-.089 0z"></path><path d="M13.724 8.754a21.51 21.51 0 0 0 0 2.409c0 .178.267.134.223-.045-.134-.803-.178-1.561-.134-2.364.045-.045-.045-.045-.089 0z"></path><path d="M14.303 9.512a2.7 2.7 0 0 0 .089 1.338c.045.178.267.089.223-.089-.178-.401-.178-.803-.178-1.249 0-.089-.134-.089-.134 0z"></path><path d="M14.926 9.601v.982c.045.134.178.223.267.089.045-.045.045-.089 0-.134v-.045c-.045-.134-.223-.045-.178.089v.045c0-.045 0-.089.045-.089s.089-.045.045-.089c0-.045 0-.134-.045-.178 0-.089 0-.178-.045-.268 0-.134-.044-.268-.044-.446.044-.045-.045 0-.045.045z"></path><path d="M15.505 10.092c.044.134.044.223.089.357 0 .134.223.089.178-.045s-.089-.223-.134-.357c-.045-.089-.178-.045-.134.045z"></path><path d="M17.018 30.253a.856.856 0 0 0 .089.58c0 .045.089 0 .045-.045-.089-.178-.134-.357-.089-.535 0-.045-.045-.045-.045 0z"></path><path d="M17.33 30.075c.045.312.134.624.178.937 0 .045.134.045.089-.045-.045-.312-.134-.624-.178-.937 0 0-.089 0-.089.045z"></path><path d="M17.731 29.807c.044.446.089.847.178 1.294 0 .089.178.089.134 0-.089-.446-.134-.848-.223-1.294 0-.089-.089-.045-.089 0z"></path><path d="M18.176 29.807c.089.401.134.803.223 1.204 0 .134.223.089.178-.045-.089-.401-.178-.803-.312-1.204 0-.045-.089 0-.089.045z"></path><path d="M18.621 29.629c.134.357.178.714.134 1.115 0 .134.178.134.178 0 0-.402-.089-.758-.223-1.16 0-.045-.089-.045-.089.045z"></path><path d="M19.022 29.539c.134.312.178.669.178 1.026 0 .134.223.134.178-.045-.045-.357-.134-.714-.312-1.026.045-.089-.045-.045-.045.045z"></path><path d="M19.378 29.272c.134.312.223.714.178 1.07 0 .134.178.178.178.045-.045-.401-.089-.758-.267-1.16 0-.089-.134-.045-.089.045z"></path><path d="M19.734 28.96c.089.401.178.803.223 1.204 0 .178.267.089.223-.045-.134-.402-.223-.803-.356-1.204 0 0-.089 0-.089.045z"></path><path d="M20.135 28.96c.045.401.178.803.223 1.204 0 .134.223.089.178-.045-.134-.402-.178-.803-.312-1.204 0 0-.089 0-.089.045z"></path><path d="M20.536 28.781c.134.357.178.714.178 1.115 0 .134.223.134.178-.045-.089-.357-.178-.758-.312-1.115 0-.045-.045 0-.045.045z"></path><path d="M20.892 28.513c.134.357.178.714.134 1.071-.044.134.178.178.223.045a2.098 2.098 0 0 0-.223-1.16c-.089-.089-.178-.045-.134.045z"></path><path d="M17.686 28.513c1.247.045 2.449-.312 3.428-1.115.089-.089-.045-.223-.134-.178-.979.758-2.093 1.204-3.295 1.294-.045-.045-.045 0 0 0z"></path><path d="M18.799 28.201c.579-.089 1.158-.357 1.692-.669.089-.045 0-.223-.089-.178-.49.312-1.069.535-1.603.714-.089.045-.044.134 0 .134z"></path><path d="M20.936 7.638c.045.669.089 1.338.045 2.052 0 .134.178.134.178 0 0-.669 0-1.383-.134-2.052 0-.045-.089-.045-.089 0z"></path><path d="M21.337 7.951c0 .535.045 1.026.045 1.561 0 .134.223.134.223 0 .045-.491 0-1.115-.178-1.606-.045-.045-.089-.045-.089.045z"></path><path d="M21.693 7.951c-.045.491 0 .981 0 1.472 0 .134.223.134.178-.045-.134-.446-.134-.981-.089-1.472.045-.045-.089-.045-.089.045z"></path><path d="M22.005 7.906c.044.446.089.937.134 1.383 0 .134.223.089.178-.045a15.067 15.067 0 0 1-.223-1.383s-.089 0-.089.045z"></path><path d="M22.361 7.861c0 .223-.045.491-.045.714 0 .134-.045.357.045.491s.356.045.312-.134c-.045-.134-.223-.045-.178.045-.045-.134 0-.401 0-.58v-.535c-.045-.089-.134-.089-.134 0z"></path><path d="M22.628 7.728c-.089.268 0 .535.134.803.045.134.267 0 .134-.134-.178-.178-.223-.401-.223-.669.045-.045-.045-.045-.045 0z"></path><path d="M22.895 7.46c0 .223 0 .624.223.758.045.045.089 0 .134-.045s.044-.089 0-.134c0-.045-.045-.089-.134-.089h-.045c-.089 0-.089.178.045.178h.045l-.089-.089c.045 0 .089-.045.134-.045-.134-.045-.178-.491-.178-.58-.045 0-.134 0-.134.045z"></path></g></svg>