<svg xmlns="http://www.w3.org/2000/svg" viewBox="0 0 27 32"><g fill="currentColor" class="nc-icon-wrapper"><path d="M2.655 32h5.309c.704 0 1.379-.281 1.877-.781s.777-1.179.777-1.886V17.6a2.668 2.668 0 0 0-2.161-2.618L7.48 3.201h1.014v-3.2H2.123v3.2h1.014L2.16 14.982A2.668 2.668 0 0 0-.001 17.6v11.733c0 .707.28 1.385.777 1.886S1.949 32 2.653 32zm6.902-4.267H4.248V19.2h5.309v8.533zm-6.371-25.6V1.066h4.247v1.067H3.186zM6.413 3.2l.972 11.733H3.233L4.205 3.2h2.208zM1.062 17.6c0-.424.168-.831.466-1.131S2.232 16 2.654 16h5.309c.422 0 .828.169 1.126.469s.466.707.466 1.131v.533H3.184V28.8h6.371v.533c0 .424-.168.831-.466 1.131s-.704.469-1.126.469H2.654c-.422 0-.828-.169-1.126-.469s-.466-.707-.466-1.131V17.6z"></path><path d="M13.273 18.133V32h9.557v-3.2h1.593c.704 0 1.379-.281 1.877-.781s.777-1.179.777-1.886v-4.267c0-.707-.28-1.385-.777-1.886s-1.173-.781-1.877-.781H22.83v-1.067c.422 0 .828-.169 1.126-.469s.466-.707.466-1.131v-2.133a1.593 1.593 0 0 0-1.592-1.6h-9.557c-.422 0-.828.168-1.126.469s-.466.707-.466 1.131v2.133c0 .424.168.831.466 1.131s.704.469 1.126.469zm11.149 2.134c.422 0 .828.169 1.126.469s.466.707.466 1.131v4.267c0 .424-.168.831-.466 1.131s-.704.469-1.126.469h-1.593v-7.467h1.593zm-2.654 10.666h-7.433v-12.8h7.433v12.8zM12.742 14.4c0-.295.238-.533.531-.533h9.557a.527.527 0 0 1 .53.533v2.133a.529.529 0 0 1-.53.533h-9.557a.532.532 0 0 1-.531-.533V14.4z"></path><path d="M15.928 28.8a.527.527 0 0 0 .53-.533V20.8a.532.532 0 1 0-1.062 0v7.467a.53.53 0 0 0 .531.533z"></path><path d="M18.051 28.8a.527.527 0 0 0 .53-.533V20.8a.532.532 0 1 0-1.062 0v7.467a.529.529 0 0 0 .53.533z"></path><path d="M20.175 28.8a.527.527 0 0 0 .53-.533V20.8a.532.532 0 1 0-1.062 0v7.467a.529.529 0 0 0 .53.533z"></path></g></svg>