<svg xmlns="http://www.w3.org/2000/svg" viewBox="0 0 23 32"><g fill="currentColor" class="nc-icon-wrapper"><path d="M11.671 2.356c-11.89.37-11.893 17.298 0 17.669 11.89-.37 11.893-17.298 0-17.669zm0 16.491c-10.305-.32-10.308-14.991 0-15.313 10.305.32 10.307 14.991 0 15.313zm11.648 10.025l-3.505-9.766C25.882 12.962 23.177.297 11.672.001.148.296-2.549 13.005 3.56 19.138L.066 28.873c-.127.366-.066.771.163 1.084s.6.496.99.489l2.17-.065 1.486 1.325c.296.259.703.356 1.086.26s.693-.374.828-.743l3.231-8.985c1.106.177 2.234.175 3.339-.006l3.234 8.991c.135.368.445.646.828.743s.79-.001 1.086-.26l1.487-1.325 2.17.065c.391.007.76-.176.99-.489s.291-.718.163-1.084v.001zM5.672 30.827l-1.665-1.478a.601.601 0 0 0-.398-.153h-.018l-2.408.071 3.334-9.28a11.025 11.025 0 0 0 4.321 2.033l-3.166 8.807zm5.999-29.649c13.476.345 13.479 19.678 0 20.025-13.477-.345-13.479-19.678 0-20.025zm8.121 28.017h-.018a.601.601 0 0 0-.398.153l-1.665 1.478-3.17-8.816a11.012 11.012 0 0 0 4.315-2.049l3.344 9.306-2.408-.071zm-2.499-19.85h-3.867l-1.194-3.643c-.083-.239-.31-.399-.566-.399s-.482.16-.565.399L9.906 9.345H6.039c-.255.004-.479.169-.558.409s.005.504.209.656l3.128 2.251-1.194 3.642c-.075.242.014.504.221.653s.485.151.694.006l3.128-2.251 3.128 2.251c.209.145.488.143.695-.006s.295-.411.221-.653l-1.195-3.642 3.128-2.251a.588.588 0 0 0-.349-1.065zm-3.828 2.616a.588.588 0 0 0-.216.659l.763 2.326-1.997-1.437a.6.6 0 0 0-.699 0l-1.997 1.437.763-2.326a.586.586 0 0 0-.216-.659l-1.997-1.437h2.469a.594.594 0 0 0 .566-.407l.763-2.325.763 2.325c.08.243.308.407.566.407h2.469l-1.997 1.437z" fill="currentColor" class="nc-icon-wrapper"></path></g></svg>