<svg xmlns="http://www.w3.org/2000/svg" viewBox="0 0 17 32"><g fill="currentColor" class="nc-icon-wrapper"><path d="M8.162.005a.716.716 0 0 0-.638.727v6.51C3.306 7.614 0 11.169 0 15.53v7.628c0 4.608 3.682 8.355 8.241 8.355s8.24-3.747 8.24-8.355V15.53c0-3.487-2.099-6.48-5.106-7.729a.72.72 0 0 0-.977.368.714.714 0 0 0 .428.951c2.476 1.028 4.221 3.494 4.221 6.409v7.628c0 3.852-3.03 6.923-6.807 6.923s-6.807-3.072-6.807-6.923v-7.628c0-3.852 3.03-6.923 6.807-6.923a.716.716 0 0 0 .716-.716V.732a.719.719 0 0 0-.795-.727zm.078 10.39A2.517 2.517 0 0 0 5.732 12.9v2.863c0 1.376 1.131 2.505 2.508 2.505s2.508-1.13 2.508-2.505V12.9a2.517 2.517 0 0 0-2.508-2.505zm0 1.432c.608 0 1.075.467 1.075 1.074v2.863c0 .607-.467 1.074-1.075 1.074s-1.075-.467-1.075-1.074v-2.863c0-.607.467-1.074 1.075-1.074z" fill="currentColor" class="nc-icon-wrapper"></path></g></svg>