<svg xmlns="http://www.w3.org/2000/svg" viewBox="0 0 32 32"><g fill="currentColor" class="nc-icon-wrapper"><path d="M15.686 6.274c-.866 0-1.568.702-1.568 1.568v6.878l-3.812 1.92a1.568 1.568 0 1 0 1.416 2.797l-.008.004 4.676-2.353a1.57 1.57 0 0 0 .866-1.401V7.841c0-.866-.702-1.568-1.568-1.568h-.002zm0-6.274C7.024.001.002 7.023.002 15.686s7.023 15.686 15.686 15.686 15.686-7.023 15.686-15.686C31.363 7.027 24.346.01 15.687 0h-.001zm0 28.235c-6.931 0-12.55-5.619-12.55-12.55s5.619-12.55 12.55-12.55c6.931 0 12.55 5.619 12.55 12.55-.009 6.928-5.622 12.541-12.549 12.55h-.001z" fill="currentColor" class="nc-icon-wrapper"></path></g></svg>