<svg xmlns="http://www.w3.org/2000/svg" viewBox="0 0 30 32"><g fill="currentColor" class="nc-icon-wrapper"><path d="M16.787.001a.643.643 0 0 0-.518.311l-.96 1.601a.64.64 0 0 0 1.098.658l.96-1.601a.64.64 0 0 0-.58-.969zm-3.507.96a.64.64 0 0 0-.517.995l.64.961a.64.64 0 0 0 1.066-.71l-.64-.96a.639.639 0 0 0-.549-.285zm10.685 1.32a.658.658 0 0 0-.139.021L14.33 4.847a.637.637 0 0 0-.379-.281L5.783 2.377a.64.64 0 0 0-.785.457l-3.272 12.48c-.728 2.777.838 5.626 3.518 6.537l-2.127 7.94-2.311-.619a.64.64 0 0 0-.331 1.236l2.919.782.011.004.009.001 2.92.783a.64.64 0 0 0 .332-1.237l-2.311-.619 2.143-7.999a5.955 5.955 0 0 0 3.626-.765 5.962 5.962 0 0 0 2.77-3.641l1.45-5.529a.641.641 0 1 0-1.24-.324l-1.449 5.528a4.672 4.672 0 0 1-5.734 3.332h-.003a4.161 4.161 0 0 1-2.953-5.086L6.073 3.781l7.541 2.02 3.383 12.357c.758 2.769 3.54 4.453 6.317 3.901l2.127 7.942-2.311.619a.64.64 0 0 0 .331 1.237l5.859-1.571a.64.64 0 1 0-.332-1.237l-2.311.62-2.144-8a5.959 5.959 0 0 0 2.757-2.475 5.955 5.955 0 0 0 .579-4.537L24.611 2.755a.64.64 0 0 0-.645-.471zm-.422 1.423l3.09 11.288a4.672 4.672 0 0 1-.454 3.562v.001a4.676 4.676 0 0 1-2.845 2.19h-.003a4.16 4.16 0 0 1-5.101-2.928L14.995 5.995l8.548-2.291z" fill="currentColor" class="nc-icon-wrapper"></path></g></svg>