<svg xmlns="http://www.w3.org/2000/svg" viewBox="0 0 27 32"><g fill="currentColor" class="nc-icon-wrapper"><path d="M11.534 14.059c-.8 1.609-.589 3.81-.547 5.546.042 2.879.421 5.715.295 8.637 0 .169.253.169.253 0 .126-2.498-.168-4.953-.295-7.451-.126-2.032-.379-4.784.421-6.689 0-.042-.084-.085-.126-.042z"></path><path d="M0 5.931c2.568 3.302 6.483 5.165 9.429 8.044.126.127.337-.085.21-.212-2.947-2.879-6.946-4.657-9.64-7.832 0-.042 0-.042 0 0z"></path><path d="M9.429 14.102c.758 1.948.505 4.615.379 6.689-.126 2.498-.379 4.953-.253 7.451 0 .169.253.169.253 0-.126-2.879.21-5.758.253-8.637.042-1.736.253-3.937-.505-5.546-.042-.042-.168 0-.126.042z"></path><path d="M21.805 5.761s0 .042-.084.085c-.042.042-.168.085-.295.127a4.98 4.98 0 0 1-1.137.212c-1.01.127-2.399.254-4.125.339-.842.042-1.768.085-2.778.085h-3.073c-1.052 0-2.189-.042-3.283-.085-1.137-.042-2.273-.042-3.41-.127-.589-.042-1.137-.085-1.726-.127C1.305 6.185.757 6.185.21 5.974c-.042 0-.084-.042-.126-.085 0-.042-.042-.042-.042-.085V5.72c0-.042.084-.127.126-.127.042-.042.084-.085.126-.085.126-.042.295-.085.421-.127.295-.042.547-.085.842-.127a21.19 21.19 0 0 1 1.642-.169C4.251 5 5.304 4.958 6.272 4.916s1.894-.042 2.778-.042c1.726 0 3.157.042 4.125.042 1.01.042 1.558.042 1.558.042h-1.558c-1.01 0-2.442 0-4.125.042-1.726.042-3.704.085-5.851.254-.547.042-1.052.085-1.6.127-.337.127-.589.169-.842.212-.126.042-.253.042-.379.085-.042 0-.042.042-.084.042 0-.042 0 0 .084.042.505.169 1.094.254 1.642.296.547.085 1.137.127 1.684.169 1.137.085 2.273.127 3.41.169s2.231.042 3.283.042 4.125-.085 5.851-.127c1.726-.042 3.115-.127 4.125-.254.505-.042.884-.127 1.137-.169.126-.042.21-.085.295-.085-.042-.042 0-.085 0-.042z"></path><path d="M14.86 6.227c-.505-5.165 6.988-8.002 10.313-4.234 2.147 2.413 2.231 6.351.084 8.806-2.441 2.71-6.356 2.71-8.924.169-.168-.169-.421.085-.253.254 2.273 2.371 5.936 2.71 8.503.635 2.778-2.244 3.283-6.351 1.347-9.314C24.204-.124 21.215-.548 18.437.595c-2.189.931-4.42 3.006-3.578 5.631z"></path><path d="M4.42 31.544c4.336.55 8.672.677 12.965-.042.126 0 .042-.169-.042-.169-4.294.72-8.63.508-12.923.085-.084.042-.042.127 0 .127z"></path><path d="M5.43 30.528a3.185 3.185 0 0 0-1.389.466c-.042.042-.084.085-.042.127.084.085.126.169.21.254.084.127.253-.042.168-.169a.51.51 0 0 0-.21-.212v.127c.379-.297.8-.466 1.263-.55.084.042.042-.042 0-.042z"></path><path d="M15.659 30.444a2.728 2.728 0 0 1 1.01.042c.168.042.295.085.421.169.042 0 .084.042.126.042.168.085.21.254.126.508-.126 0-.168.212-.042.212.421.085.547-.466.253-.72-.463-.466-1.305-.466-1.894-.339-.084.042-.042.085 0 .085z"></path><path d="M9.429 13.805c.589.508 1.473.423 2.063-.085.084-.085-.042-.212-.126-.127-.505.466-1.263.508-1.852.169-.084-.085-.126 0-.084.042z"></path><path d="M6.777 11.646c2.189.762 4.378.931 6.651.466.084 0 .042-.169-.042-.127a13.959 13.959 0 0 1-6.609-.339c-.042-.042-.042 0 0 0z"></path><path d="M3.957 8.598c4.462.635 9.093.931 13.555.042.126-.042.084-.212-.042-.169-4.546.931-8.924.423-13.513.085v.042z"></path><path d="M18.101 1.866c1.894-.635 4.42-1.143 5.977.466 1.263 1.312 1.81 3.429 1.474 5.207-.716 4.022-5.388 5.927-8.419 2.964-.084-.085-.21.042-.126.127 2.947 2.921 7.746 1.228 8.672-2.752.463-1.947-.169-4.149-1.516-5.631-1.516-1.651-4.167-1.101-6.062-.381z"></path><path d="M22.437 5.55c.842-.677 1.684-1.355 2.526-2.075.042-.042-.042-.169-.126-.085-.842.677-1.642 1.397-2.441 2.117-.042 0 0 .042.042.042z"></path><path d="M20.879 5.253c.126-1.27 0-2.667-.042-3.937 0-.127-.21-.127-.21 0 .042 1.312-.042 2.667.168 3.98.042 0 .084-.042.084-.042z"></path><path d="M21.974 6.735c.547 1.185 1.389 2.371 2.189 3.429.084.085.211-.042.168-.127-.758-1.101-1.473-2.244-2.315-3.345-.042-.042-.084 0-.042.042z"></path><path d="M20.458 8.132c-.547 1.101-1.052 2.329-1.263 3.514-.042.085.126.127.168.042.463-1.143.8-2.371 1.221-3.514 0-.042-.084-.085-.126-.042z"></path><path d="M19.616 5.761c.042-.127 0-.296.042-.423a3.14 3.14 0 0 1 .168-.593c.042-.085-.084-.169-.126-.085-.126.296-.295.804-.126 1.101.042.042.042.042.042 0z"></path><path d="M19.785 4.83c.421 0 .758.169.968.55.042.085.168 0 .126-.085-.253-.381-.674-.593-1.095-.55-.042.042-.042.085 0 .085z"></path><path d="M20.921 5.38c.126-.042.295-.127.421-.169.084-.042.042-.127-.042-.085-.126.085-.295.127-.421.212 0-.042 0 .042.042.042z"></path><path d="M21.385 5.168c.084.212.253.423.463.55.084.042.126-.085.084-.127-.211-.127-.337-.296-.463-.466-.042 0-.084 0-.084.042z"></path><path d="M16.333 10.418v.889c0 .042.084.042.084 0v-.889c0-.042-.084-.042-.084 0z"></path><path d="M16.712 10.334c-.042.423-.042.847.042 1.228 0 .042.084.042.084-.042-.084-.423-.126-.804-.084-1.228 0 0-.042 0-.042.042z"></path><path d="M17.049 10.588c.042.423.042.804.084 1.228 0 .042.084.042.084 0-.042-.423-.084-.804-.084-1.228-.042-.042-.084-.042-.084 0z"></path><path d="M17.385 10.842c0 .381 0 .72.084 1.058 0 .085.126.042.084-.042a4.296 4.296 0 0 1-.126-1.058c.042 0-.042 0-.042.042z"></path><path d="M17.68 11.011l.126 1.143c0 .085.126.085.126 0-.084-.381-.084-.762-.168-1.143 0-.042-.084 0-.084 0z"></path><path d="M17.975 11.307c.042.339.126.72.168 1.058 0 .085.126.042.126-.042-.084-.339-.168-.677-.21-1.058 0 0-.084 0-.084.042z"></path><path d="M18.354 11.392c0 .381.042.762.042 1.143 0 .085.168.085.126 0l-.126-1.143c0-.042-.042-.042-.042 0z"></path><path d="M18.69 11.646c-.042.339-.042.677.042 1.016 0 .085.168.042.126-.042a2.488 2.488 0 0 1-.084-.974c0-.042-.042-.042-.084 0z"></path><path d="M18.943 11.731c0 .296.042.593.042.889 0 .127.168.085.168-.042-.042-.296-.084-.593-.126-.847 0-.042-.084-.042-.084 0z"></path><path d="M19.322 11.731c.084.254.042.466.042.677 0 .085.126.085.126 0 .042-.254 0-.508-.084-.762-.042 0-.084.042-.084.085z"></path><path d="M19.743 11.815c-.042.296-.042.55 0 .847 0 .085.168.042.168-.042-.084-.254-.126-.508-.084-.762 0-.085-.084-.085-.084-.042z"></path><path d="M20.164 11.815c-.042.339 0 .677.042 1.016 0 .085.21.042.168-.042-.126-.296-.126-.635-.126-.931 0-.085-.042-.085-.084-.042z"></path><path d="M20.627 11.985c-.042.296-.042.593.042.931.042.085.21.042.168-.042a2.749 2.749 0 0 1-.126-.847c0-.085-.084-.085-.084-.042z"></path><path d="M21.09 12.196c.042.254.042.466.042.72 0 .085.084.127.126.085s.084-.085.084-.127c.084-.085-.042-.212-.126-.127-.042.042-.084.085-.084.127.042 0 .084.042.168.042 0-.254 0-.508-.084-.762-.084-.042-.168-.042-.126.042z"></path><path d="M21.511 11.985c.042.339.084.635.126.974 0 .085.168.085.126 0a8.071 8.071 0 0 1-.169-.974c0-.042-.084-.042-.084 0z"></path><path d="M21.847 11.942c.084.296.084.635.042.931 0 .085.126.127.126 0a2.49 2.49 0 0 0-.084-.974c0-.085-.126-.042-.084.042z"></path><path d="M22.184 11.9c.042.339.042.635.084.974 0 .042.084.042.084 0-.042-.339-.084-.635-.126-.974h-.042z"></path><path d="M22.647 11.646c-.042.339-.042.677.042 1.016 0 .085.126.042.126-.042a2.488 2.488 0 0 1-.084-.974c0-.042-.084-.042-.084 0z"></path><path d="M22.984 11.392c-.042.339 0 .677.042 1.016.042.085.169.042.169-.042a3.55 3.55 0 0 1-.126-.931c0-.085-.084-.127-.084-.042z"></path><path d="M23.405 11.223c-.084.339-.042.72 0 1.058 0 .127.169.085.169 0-.084-.339-.084-.677-.084-1.058 0-.042-.042-.085-.084 0z"></path><path d="M23.742 10.969c0 .423-.042.804-.042 1.228 0 .127.168.127.168 0 0-.423-.042-.804-.042-1.228 0-.085-.084-.085-.084 0z"></path><path d="M23.994 10.588c0 .423.042.847.084 1.228 0 .085.169.085.126 0 0-.423-.084-.847-.126-1.228 0-.042-.084-.042-.084 0z"></path><path d="M24.457 10.164v1.482c0 .085.169.085.169 0 0-.508-.042-1.016-.042-1.482-.042-.085-.126-.085-.126 0z"></path><path d="M14.944 4.025c.084.635.168 1.27.253 1.947 0 .042.084.042.084 0l-.253-1.905c-.042-.085-.084-.085-.084-.042z"></path><path d="M15.196 3.39c.042.677.126 1.355.168 2.032 0 .085.126.085.126 0-.084-.677-.126-1.355-.21-2.032 0-.042-.084-.042-.084 0z"></path><path d="M15.491 3.052c.042.593.084 1.185.084 1.778 0 .085.168.085.168 0a25.434 25.434 0 0 1-.168-1.778c0-.085-.084-.085-.084 0z"></path><path d="M15.828 2.84c0 .508.084 1.016.126 1.482 0 .085.126.085.126 0-.084-.466-.126-.974-.168-1.482-.042-.042-.084-.042-.084 0z"></path><path d="M16.249 2.332c.042.508.042 1.016.042 1.482 0 .085.168.085.168 0-.084-.508-.084-1.016-.126-1.482-.042-.042-.084-.042-.084 0z"></path><path d="M16.628 1.993c.084.423.084.889 0 1.312 0 .085.126.085.168 0 .042-.466 0-.889-.084-1.312-.042-.085-.084-.042-.084 0z"></path><path d="M16.922 1.697c-.042.339 0 .72.042 1.101 0 .085.168.042.126-.042-.084-.339-.084-.677-.126-1.016.042-.085 0-.085-.042-.042z"></path><path d="M17.385 1.443v.889c0 .042.084.042.084 0v-.889h-.084z"></path><path d="M17.68 1.273c.042.254.042.508 0 .804 0 .085.126.085.126 0 .042-.296 0-.55-.084-.847 0-.042-.042 0-.042.042z"></path><path d="M18.185.935c0 .296 0 .593-.042.889 0 .085.126.085.126 0 0-.296 0-.593-.042-.889 0-.042-.042-.042-.042 0z"></path><path d="M18.522.765c0 .296 0 .593-.042.889 0 .085.126.085.126 0 0-.296-.042-.593-.042-.889.042-.042-.042-.042-.042 0z"></path><path d="M18.859.765c0 .254 0 .466-.042.72 0 .085.126.085.126 0v-.72c0-.042-.084-.042-.084 0z"></path><path d="M19.238.554c0 .254-.042.466-.042.72 0 .085.126.085.126 0 0-.254-.042-.466-.042-.72 0-.042-.042-.042-.042 0z"></path><path d="M19.659.554c0 .254 0 .466-.042.72 0 .085.168.085.168 0 0-.254-.042-.466-.042-.72 0-.042-.084-.042-.084 0z"></path><path d="M20.206.384c-.042.296-.042.593-.042.889 0 .085.168.085.168 0 0-.296 0-.593-.042-.889h-.084z"></path><path d="M20.669.469c0 .296-.042.55-.084.804 0 .085.084.085.084 0 .042-.254.042-.508.084-.804.042-.042-.042-.042-.084 0z"></path><path d="M21.595.3c-.042.254-.084.55-.126.804 0 .085.084.085.084 0 0-.254.042-.508.084-.804 0 0-.042-.042-.042 0z"></path><path d="M22.016.384a1.439 1.439 0 0 0-.211.72c0 .085.126.085.126 0 0-.254.042-.466.168-.677 0-.042-.042-.085-.084-.042z"></path><path d="M22.269.3c-.042.254-.042.508-.084.762 0 .042.084.042.084 0 .042-.212.042-.466.042-.762h-.042z"></path><path d="M22.605.469a4.462 4.462 0 0 1-.168.72c0 .085.084.085.126.042.042-.254.084-.466.126-.72 0-.085-.084-.127-.084-.042z"></path><path d="M22.9.469c0 .254 0 .508-.042.762 0 .085.168.085.168 0-.042-.254-.042-.508-.042-.762 0-.085-.084-.085-.084 0z"></path><path d="M23.321.596a4.7 4.7 0 0 0-.084.762c0 .127.126.127.168 0 0-.254.042-.508.042-.762-.042-.042-.126-.042-.126 0z"></path><path d="M23.574.892c-.084.296-.126.55-.126.847 0 .085.126.085.126 0 0-.296.042-.55.084-.847.042-.042-.042-.085-.084 0z"></path><path d="M23.868 1.104c-.042.254-.042.508-.084.762 0 .127.126.127.126 0v-.762c.042-.042-.042-.085-.042 0z"></path><path d="M24.205 1.316c0 .339-.042.677-.168.974-.042.085.126.127.126.042.084-.339.126-.677.126-1.016 0-.042-.084-.042-.084 0z"></path><path d="M24.542 1.358c-.042.212-.084.423-.084.635 0 .127-.084.296-.042.423s.211.127.211-.042c0-.042-.042-.085-.042-.085h-.042c-.084 0-.126.127-.042.127h.042c0-.042-.042-.042-.042-.085.042-.042.084-.085.084-.127v-.085c0-.085 0-.169.042-.296 0-.169.042-.339.042-.508-.042 0-.126 0-.126.042z"></path><path d="M24.794 1.739c-.084.381-.126.804-.211 1.185-.042.085.126.127.169.042s.042-.127.084-.212c.042-.085-.126-.127-.168-.042s-.042.127-.042.212c.042 0 .084 0 .168.042a3.95 3.95 0 0 1 .084-1.228c0-.042-.084-.085-.084 0z"></path><path d="M25.047 1.993c-.084.381-.126.72-.211 1.101 0 .085.126.127.169.042 0-.042.042-.127.042-.169 0-.085-.126-.127-.168-.042 0 .042-.042.127-.042.169.042 0 .084.042.169.042.042-.381.126-.72.168-1.101 0-.085-.084-.085-.126-.042z"></path><path d="M25.341 2.078l-.253 1.27c0 .085.126.127.168.042.084-.423.126-.847.211-1.27 0-.085-.084-.085-.126-.042z"></path><path d="M25.426 2.501c-.126.55-.169 1.058-.253 1.609 0 .085.126.127.126 0 .042-.55.168-1.101.168-1.609.042-.042 0-.042-.042 0z"></path><path d="M25.762 2.84c-.126.593-.168 1.185-.253 1.736 0 .127.126.127.169.042.042-.593.126-1.185.168-1.778 0-.042-.084-.042-.084 0z"></path><path d="M26.015 3.644a34.91 34.91 0 0 1-.421 2.032c0 .085.126.127.126.042.126-.677.211-1.355.337-2.075.042-.042 0-.042-.042 0z"></path><path d="M26.141 4.11a12.96 12.96 0 0 1-.463 2.286c-.042.085.126.127.126.042.21-.762.379-1.566.421-2.329 0-.042-.084-.042-.084 0z"></path><path d="M26.394 4.449c-.337 1.439-.631 2.921-.926 4.361-.042.127.126.169.168.042.295-1.439.589-2.921.842-4.403 0 0-.084-.042-.084 0z"></path><path d="M26.562 4.83c-.589 1.947-1.052 3.937-1.515 5.927-.042.127.168.169.168.042.421-1.99.926-3.98 1.389-5.97.042-.042 0-.042-.042 0z"></path><path d="M26.562 5.38c-.337 1.566-.674 3.175-1.094 4.699-.042.127.168.169.168.042a45 45 0 0 0 1.01-4.742s-.084-.042-.084 0z"></path><path d="M24.921 9.36c0 .677-.042 1.312-.211 1.947 0 .042.084.085.084 0 .126-.677.211-1.312.211-1.99 0 0-.084 0-.084.042z"></path><path d="M8.251 12.112c.042.169 0 .254-.084.423 0 .042.042.085.042.042.084-.169.126-.339.042-.466 0-.042 0-.042 0 0z"></path><path d="M8.587 12.112c-.042.169-.042.381-.084.55 0 .042.084.085.084 0 0-.169.042-.381.042-.55.042-.042-.042-.042-.042 0z"></path><path d="M8.882 12.239c-.084.254-.168.466-.253.677-.042.042.084.085.084.042.084-.254.126-.466.21-.72.042-.042-.042-.042-.042 0z"></path><path d="M9.219 12.112c-.084.339-.21.677-.295.974-.042.085.084.085.084.042l.253-1.016c0-.042-.042-.042-.042 0z"></path><path d="M9.429 12.239c-.126.339-.21.635-.295.974-.042.085.126.127.126.042l.253-1.016c0-.042-.042-.042-.084 0z"></path><path d="M9.766 12.239c-.168.423-.295.889-.421 1.355-.042.085.126.127.126.042.126-.466.253-.889.379-1.355 0-.085-.084-.085-.084-.042z"></path><path d="M10.145 12.366c-.168.466-.295.931-.463 1.397 0 .042.084.085.084.042.126-.466.253-.931.421-1.397 0-.042-.042-.085-.042-.042z"></path><path d="M10.398 12.45c-.21.423-.379.931-.463 1.397 0 .085.126.127.168.042.084-.466.253-.931.379-1.439 0-.042-.042-.042-.084 0z"></path><path d="M10.734 12.45c-.126.381-.21.804-.379 1.185-.042.085.126.127.126.042a9.58 9.58 0 0 1 .337-1.185c0-.085-.084-.085-.084-.042z"></path><path d="M11.113 12.239c-.21.423-.337.889-.463 1.355-.042.085.126.127.126 0 .042-.466.21-.889.379-1.312.042-.085-.042-.127-.042-.042z"></path><path d="M11.366 12.239c-.168.423-.295.889-.463 1.355-.042.085.126.127.168.042.126-.466.253-.889.379-1.355.042-.085-.042-.085-.084-.042z"></path><path d="M11.66 12.323c-.126.381-.253.804-.379 1.185-.042.085.126.127.126.042.084-.423.21-.804.337-1.228 0-.042-.042-.085-.084 0z"></path><path d="M12.081 12.281c-.084.212-.126.466-.253.677-.042.085.126.169.126.042.042-.254.126-.466.21-.72 0 0-.084-.042-.084 0z"></path><path d="M12.502 12.239c-.084.212-.21.466-.295.677-.042.085.084.169.126.042.084-.254.168-.466.253-.72 0-.042-.042-.085-.084 0z"></path><path d="M12.923 12.154c-.042.169-.126.339-.168.466-.042.085.084.085.126.042l.126-.508s-.042-.042-.084 0z"></path><path d="M12.965 12.323c1.515-1.228 3.073-2.498 4.588-3.726.084-.042-.042-.127-.084-.085-1.515 1.27-3.031 2.498-4.546 3.768-.042.042 0 .085.042.042z"></path><path d="M12.671 12.154c1.263-.889 2.442-1.947 3.62-2.964.084-.085-.042-.212-.126-.127-1.179 1.016-2.399 1.99-3.494 3.048-.084 0-.042.085 0 .042z"></path><path d="M16.417 8.471l1.473-1.482c.042-.042-.042-.127-.084-.085-.463.508-.968 1.016-1.431 1.524-.042 0 .042.085.042.042z"></path><path d="M16.712 8.682c.589-.593 1.179-1.185 1.768-1.82.042-.042-.042-.127-.084-.085a24.754 24.754 0 0 0-1.684 1.905c-.084-.042-.042 0 0 0z"></path><path d="M17.764 8.809c.8-.847 1.6-1.609 2.484-2.371.084-.042-.042-.169-.084-.085-.884.72-1.726 1.524-2.399 2.456-.042 0-.042 0 0 0z"></path><path d="M1.052 5.592v.296c0 .085.126.085.126 0v-.296c-.042-.042-.126-.042-.126 0z"></path><path d="M1.389 5.55a.605.605 0 0 0 .042.466c0 .042.084 0 .084-.042-.084-.127-.084-.254-.084-.381 0-.085-.042-.085-.042-.042z"></path><path d="M1.642 5.592a.713.713 0 0 1 .042.508c0 .085.084.085.126 0 .042-.169 0-.339-.084-.508-.042-.042-.084 0-.084 0z"></path><path d="M1.978 5.465c0 .212.042.423.042.635 0 .042.084.042.084 0-.042-.212-.042-.423-.084-.635.042-.042-.042-.042-.042 0z"></path><path d="M2.273 5.465c0 .169.042.381.042.55 0 .085.126.085.126 0a2.493 2.493 0 0 1-.084-.55c-.042-.042-.084-.042-.084 0z"></path><path d="M2.61 5.338c0 .254.042.466.084.72 0 .042.084.085.084 0 0-.254-.042-.466-.084-.72 0-.042-.084-.042-.084 0z"></path><path d="M2.905 5.465c-.042.212 0 .381.042.593 0 .085.168.042.126-.042-.084-.169-.084-.339-.084-.55 0-.042-.084-.042-.084 0z"></path><path d="M3.157 5.253a3.152 3.152 0 0 0 0 .889c0 .085.168.042.126-.042-.084-.296-.084-.55-.084-.847.084-.042 0-.042-.042 0z"></path><path d="M3.536 5.38c-.042.254 0 .55.042.804 0 .085.126.042.126-.042-.084-.254-.126-.508-.084-.762 0 0-.084-.042-.084 0z"></path><path d="M3.957 5.465c-.042.296 0 .55.042.804 0 .085.168.042.126-.042-.084-.254-.084-.508-.084-.762 0-.042-.084-.042-.084 0z"></path><path d="M4.294 5.38c-.042.296-.042.593.042.889 0 .085.168.042.126-.042a1.886 1.886 0 0 1-.084-.847c0-.042-.084-.042-.084 0z"></path><path d="M4.673 5.38c0 .296.042.593.042.931 0 .085.126.085.126 0-.042-.296-.042-.593-.084-.931-.042-.042-.126-.042-.084 0z"></path><path d="M4.925 5.253c-.042.339 0 .677.042 1.016 0 .042.084.042.084-.042-.084-.339-.084-.635-.084-.974.042-.042 0-.042-.042 0z"></path><path d="M5.304 5.168c0 .339-.042.677-.042.974 0 .085.126.085.126 0 0-.339-.042-.677-.042-.974h-.042z"></path><path d="M5.641 5.338c-.042.296 0 .593 0 .931 0 .085.168.085.126 0-.084-.296-.042-.593-.042-.889 0-.127-.084-.127-.084-.042z"></path><path d="M5.978 5.168c-.042.423 0 .804.042 1.228 0 .085.168.042.126-.042-.084-.381-.084-.762-.084-1.185 0-.042-.084-.042-.084 0z"></path><path d="M6.399 5.041c0 .254 0 .508-.042.762 0 .169-.084.423 0 .55.084.169.337 0 .253-.127-.042-.085-.21 0-.126.085 0 0 .042-.254 0-.296V5.083c0-.085-.084-.085-.084-.042z"></path><path d="M6.693 5.38c.042.296.084.593.084.931 0 .085.168.085.126 0a52.175 52.175 0 0 1-.126-.931c0-.042-.126-.042-.084 0z"></path><path d="M7.114 5.465c-.042.296 0 .55.084.804 0 .085.126.042.126-.042a2.414 2.414 0 0 1-.126-.762c0-.042-.084-.042-.084 0z"></path><path d="M7.409 5.253a2.32 2.32 0 0 1 0 .762c0 .085-.042.254.042.296.126.085.253-.085.126-.212 0 0-.042-.042-.084 0-.084.042-.042.169.042.127v-.55a2.14 2.14 0 0 0-.084-.508c.042.042-.042.042-.042.085z"></path><path d="M7.788 5.253a3.776 3.776 0 0 0 0 .974c0 .085.168.085.126 0-.042-.339-.084-.635-.042-.974 0-.042-.042-.042-.084 0z"></path><path d="M8.209 5.338c-.042.296-.042.635.042.931 0 .085.168.042.126-.042-.084-.296-.084-.593-.084-.889.042-.042-.042-.042-.084 0z"></path><path d="M8.63 5.338c0 .169-.042.339-.042.508 0 .127-.042.212.042.339.042.042.042.042.084.042s.084-.042.084-.085v-.085c-.042-.085-.168 0-.126.085.042-.042.042-.085.084-.169v-.636c-.042-.042-.126-.042-.126 0z"></path><path d="M9.008 5.592c-.042.127-.126.296 0 .381.084.085.21.085.253 0s-.042-.169-.084-.085c-.084-.085-.084-.169-.042-.212 0-.085-.084-.127-.126-.085z"></path><path d="M1.6 6.862c1.431 1.228 2.905 2.413 4.378 3.641.042.042.126-.042.084-.085-1.473-1.185-2.905-2.413-4.42-3.599-.042 0-.084.042-.042.042z"></path><path d="M3.915 8.598c.337.423.8.762 1.221 1.101s.842.72 1.263 1.058c.084.042.168-.042.084-.085-.463-.381-.884-.762-1.347-1.101-.379-.381-.758-.762-1.221-.974 0-.042 0-.042 0 0z"></path><path d="M4.673 8.767c.168 0 .379.339.505.466l.547.55c.379.381.758.72 1.137 1.101.042.042.168-.042.084-.085-.463-.466-.926-.889-1.389-1.312-.21-.212-.421-.381-.631-.593-.084-.085-.168-.169-.295-.169h-.042v.085c.042 0 .042 0 .084-.042 0 .042 0 .042 0 0 .042.042.042 0 0 0z"></path><path d="M5.22 8.809c.631.635 1.305 1.228 1.936 1.863.042.042.168-.042.084-.085-.631-.593-1.305-1.228-2.021-1.778.042-.085 0-.042 0 0z"></path><path d="M6.062 8.894c.589.677 1.221 1.355 1.81 1.99.042.042.126-.042.084-.085-.631-.677-1.221-1.312-1.894-1.905 0-.085 0-.042 0 0z"></path><path d="M6.609 8.936c.589.635 1.137 1.312 1.726 1.947.042.042.126-.042.084-.085-.547-.635-1.179-1.27-1.768-1.905 0-.042-.042 0-.042.042z"></path><path d="M7.198 8.979c.379.466.758.889 1.137 1.355.042.085.168 0 .084-.085-.379-.466-.758-.931-1.179-1.355 0 .042-.042.085-.042.085z"></path><path d="M7.619 9.021c.379.339.716.677 1.01 1.101.042.085.168 0 .084-.085a6.269 6.269 0 0 0-1.052-1.058c-.042-.042-.084 0-.042.042z"></path><path d="M8.335 9.148c.21.254.463.466.631.762.042.085.168 0 .126-.085-.21-.296-.463-.55-.758-.677 0-.042 0-.042 0 0z"></path><path d="M8.798 9.063c.126.254.337.423.547.593.042.042.084-.042.042-.085a1.71 1.71 0 0 1-.547-.55l-.042.042z"></path><path d="M9.345 9.19c.084.085.168.212.253.296.042.042.168-.042.084-.085-.084-.085-.21-.169-.295-.254 0-.085-.084 0-.042.042z"></path><path d="M5.683 30.74v.212c0 .085.126.085.126 0v-.212c-.042-.042-.084-.042-.126 0z"></path><path d="M5.935 30.74c-.042.084-.042.212-.042.339 0 .085.126.085.126 0 0-.127 0-.254-.042-.381 0 0-.042 0-.042.042z"></path><path d="M6.23 30.613c.042.127.084.254.042.423 0 .085.084.085.084 0 0-.169 0-.296-.084-.423-.042-.042-.084-.042-.042 0z"></path><path d="M6.609 30.444c.042.127.042.254.042.381 0 .085.126.127.126 0 0-.169 0-.296-.084-.423-.042 0-.084 0-.084.042z"></path><path d="M6.988 30.317c0 .169.042.381.042.55 0 .085.126.042.084 0a2.493 2.493 0 0 1-.084-.55c0-.042-.042-.042-.042 0z"></path><path d="M7.367 30.147v.72c0 .085.126.085.126 0v-.72c-.042-.042-.126-.042-.126 0z"></path><path d="M10.776 28.919c.084.508.21.974.337 1.482 0 .042.126.042.084-.042-.126-.508-.253-.974-.379-1.482 0 0-.084 0-.042.042z"></path><path d="M10.903 28.623c.168.677.379 1.312.547 1.99 0 .042.126.042.084-.042-.21-.635-.379-1.312-.589-1.948 0-.042-.084-.042-.042 0z"></path><path d="M11.113 28.412c.21.762.463 1.566.674 2.329 0 .084.126.042.084-.042-.253-.762-.463-1.567-.716-2.329 0 0-.042 0-.042.042z"></path><path d="M11.492 28.538c.253.804.505 1.651.758 2.498.042.085.168.042.126-.042-.253-.804-.547-1.651-.8-2.455 0-.042-.084-.042-.084 0z"></path><path d="M11.955 28.962c.21.678.463 1.313.674 1.99.042.085.126.042.126-.042-.253-.635-.463-1.312-.716-1.948-.042-.042-.126 0-.084 0z"></path><path d="M12.418 29.343c.168.466.337.931.463 1.397.042.084.168.042.126-.042l-.505-1.397c0-.042-.084-.042-.084.042z"></path><path d="M13.008 29.724c0 .339.21.72.379 1.016.042.084.21 0 .126-.085-.084-.169-.168-.297-.253-.466s-.126-.339-.21-.508c0 .042-.042.042-.042.042z"></path><path d="M13.639 30.19c.084.212.168.381.253.593.042.085.168 0 .126-.085-.126-.169-.21-.381-.295-.55-.042-.042-.126 0-.084.042z"></path><path d="M14.018 30.359c.042.127.126.254.168.381.042.085.21 0 .126-.084-.084-.127-.168-.254-.253-.339 0-.085-.042 0-.042.042z"></path><path d="M10.819 18.251c-.126.55-.168 1.101-.21 1.651 0 .085.084.085.084 0 .042-.55.126-1.101.168-1.609 0-.085-.042-.085-.042-.042z"></path><path d="M10.861 19.097c-.126.508-.168 1.016-.337 1.524 0 .085.084.085.126.042.126-.508.295-1.058.21-1.566 0-.042 0-.042 0 0z"></path><path d="M10.903 20.071a4.31 4.31 0 0 1-.379 1.397c-.042.042.084.085.084.042a5.53 5.53 0 0 0 .337-1.439c0-.042-.042-.042-.042 0z"></path><path d="M10.987 21.002c-.084.381-.21.762-.295 1.101 0 .085.084.085.084.042l.253-1.143c0-.042-.042-.042-.042 0z"></path><path d="M10.987 21.849c-.084.296-.21.593-.295.931 0 .042.084.085.084.042.084-.297.168-.593.253-.931 0-.085-.042-.085-.042-.042z"></path><path d="M11.113 22.315a4.532 4.532 0 0 0-.379 1.058c0 .085.084.127.126.042.042-.381.168-.72.337-1.058 0-.042-.084-.085-.084-.042z"></path><path d="M11.029 23.119c-.084.381-.21.762-.379 1.101-.042.042.084.127.084.042.168-.339.253-.762.337-1.143.042-.042 0-.042-.042 0z"></path><path d="M11.197 23.5c-.168.381-.337.804-.421 1.27 0 .085.126.127.126.042.084-.423.168-.847.337-1.27.042-.042-.042-.085-.042-.042z"></path><path d="M11.113 24.516c-.168.339-.295.72-.421 1.058-.042.085.084.127.126.042.126-.339.253-.72.337-1.059.042-.085 0-.085-.042-.042z"></path><path d="M11.155 25.194c-.168.254-.295.55-.379.847-.042.085.126.127.126.042a3.52 3.52 0 0 1 .337-.847c.042-.042-.042-.084-.084-.042z"></path><path d="M11.197 25.786c-.21.339-.379.72-.463 1.143 0 .085.126.127.126.042.126-.381.21-.762.379-1.143.042-.042 0-.085-.042-.042z"></path><path d="M11.029 26.845a4.196 4.196 0 0 1-.295.635c-.042.084.084.127.084.042l.253-.635c.042-.042 0-.085-.042-.042z"></path><path d="M11.113 27.057c-.042.254-.168.508-.337.762-.042.085.084.169.126.085.126-.254.253-.508.295-.804 0-.084-.084-.127-.084-.042z"></path><path d="M11.197 27.48c-.084.254-.21.466-.379.677-.042.042.042.127.084.042.126-.212.253-.466.337-.72.042-.042-.042-.042-.042 0z"></path><path d="M11.029 28.03c-.042.085-.084.169-.126.297-.042.042.042.085.084.042.042-.085.084-.169.126-.296 0-.042-.042-.085-.084-.042z"></path><path d="M10.398 14.864v.508c0 .042.084.042.084 0v-.508c-.042-.042-.042-.042-.084 0z"></path><path d="M10.776 14.864v.55c0 .042.084.042.084 0-.042-.169-.042-.381-.084-.55.042-.042 0-.042 0 0z"></path><path d="M11.029 14.991c-.042.127-.042.296-.084.423 0 .085.084.085.084 0 0-.127.042-.296.042-.423.042-.042-.042-.042-.042 0z"></path><path d="M21.511 8.979c-.042.085-.042.127-.084.212-.042.042.084.085.084.042 0-.085.042-.127.042-.212.042-.042-.042-.085-.042-.042z"></path><path d="M21.721 9.953c-.042.085-.126.169-.168.254-.042.042.084.127.084.042.042-.085.084-.212.126-.296h-.042z"></path><path d="M23.868 5.676c0 .127 0 .254-.084.381-.042.042.042.127.084.042a.604.604 0 0 0 .042-.466s-.042 0-.042.042z"></path><path d="M24.078 5.38c-.084.508-.21.974-.337 1.397-.042.042.084.085.084.042.169-.466.253-.931.337-1.439h-.084z"></path><path d="M24.331 7.709c.042.042.042.127-.042.169s0 .212.084.127c.084-.127.084-.254-.042-.296 0-.042-.042 0 0 0z"></path><path d="M22.142 2.459c.042.085.084.127.126.212.042.042.084 0 .042-.042-.042-.085-.084-.127-.168-.212.042-.042 0 0 0 .042z"></path><path d="M22.437 2.374c.042.127.084.254.126.339s.168.042.126-.042a1.248 1.248 0 0 0-.169-.339c0-.042-.084 0-.084.042z"></path><path d="M17.806 2.84c.463-.339.926-.593 1.515-.635.126 0 .126-.169 0-.169a2.537 2.537 0 0 0-1.6.72c-.042 0 .042.127.084.085z"></path><path d="M18.227 2.925c.337-.339.8-.508 1.263-.593.042 0 .042-.085 0-.085-.505.085-.926.296-1.263.677-.042 0-.042 0 0 0z"></path><path d="M15.365 5.973c1.473.085 2.947.042 4.42 0 .126 0 .126-.212 0-.169-1.473.042-2.947.042-4.42.169-.042-.042-.042 0 0 0z"></path><path d="M15.449 5.804c0 .169-.042.339-.042.508 0 .085.126.085.126 0v-.508c0-.042-.084-.042-.084 0z"></path><path d="M15.786 5.888V6.1c0 .085.126.085.126 0v-.212c-.042-.042-.126-.042-.126 0z"></path><path d="M16.123 5.973a.472.472 0 0 1 0 .339c-.042.085.126.127.126 0 .042-.127 0-.254-.126-.339 0-.042 0-.042 0 0z"></path><path d="M16.501 5.973c.042.127.042.212-.042.296-.042.085.084.169.126.085.084-.127.084-.254 0-.423 0-.042-.084 0-.084.042z"></path><path d="M16.922 5.973c0 .127 0 .212-.042.339 0 .127.168.127.126 0 0-.127 0-.212-.042-.339.042-.042-.042-.085-.042 0z"></path><path d="M17.343 5.888c0 .127 0 .212-.042.339 0 .127.126.127.126 0s0-.212-.042-.339c.042-.042-.042-.042-.042 0z"></path><path d="M17.68 6.015c-.042.085-.042.127-.042.212s.168.085.168 0 0-.127-.042-.212c0-.042-.042-.042-.084 0z"></path><path d="M18.354 6.015c-.042.085-.042.169-.084.296-.042.042.084.085.084 0s.042-.169.042-.254c0-.042-.042-.042-.042-.042z"></path><path d="M18.901 5.973c0 .085 0 .169-.042.296 0 .085.168.085.168 0s0-.169-.042-.296c0-.085-.084-.085-.084 0z"></path><path d="M19.448 5.931s0 .042-.042.042c-.042.127.21.127.126 0 0 0 0-.042-.042-.042h-.042z"></path><path d="M15.028 30.994v.423c0 .085.126.085.126 0v-.423c-.042-.042-.126-.042-.126 0z"></path><path d="M15.407 30.994v.508c0 .085.126.085.084 0v-.508h-.084z"></path><path d="M15.744 30.952c-.042.212 0 .381.042.593 0 .085.126.042.084-.042-.084-.169-.084-.339-.042-.55 0-.042-.084-.085-.084 0z"></path><path d="M16.08 30.952c0 .169 0 .339-.042.508 0 .085.126.085.126 0 0-.169 0-.339-.042-.508.042-.042-.042-.042-.042 0z"></path><path d="M16.375 30.952c.042.169.042.339.084.508 0 .085.126.085.126 0a2.199 2.199 0 0 1-.084-.466c-.084-.085-.168-.085-.126-.042z"></path><path d="M16.796 30.952c-.042.169-.042.339-.042.508 0 .085.126.085.126 0 0-.169 0-.339-.084-.508.042-.042 0-.042 0 0z"></path><path d="M17.133 30.994c0 .127 0 .254-.042.339 0 .085.126.085.126 0 0-.127 0-.254-.042-.339.042-.042-.042-.042-.042 0z"></path></g></svg>