<svg xmlns="http://www.w3.org/2000/svg" viewBox="0 0 30 32"><g fill="currentColor" class="nc-icon-wrapper"><path d="M.842 7.618a.792.792 0 0 1-.54-.192c-.303-.224-.371-.608-.236-.928L2.494.77c.202-.48.708-.8 1.281-.768l6.474.448c.371.032.674.256.776.608s-.068.704-.371.896L1.313 7.489a1.14 1.14 0 0 1-.472.128zm2.361-6.592L.775 6.754s-.034.064.034.096.101 0 .101 0l9.307-5.504s.068-.032.034-.096c0-.064-.068-.064-.068-.064L3.709.738a.458.458 0 0 0-.506.288z"></path><path d="M8.193 8.45a.421.421 0 0 1-.337-.16L5.428 4.61c-.101-.16-.067-.384.135-.512a.41.41 0 0 1 .54.128l2.428 3.68c.101.16.068.384-.135.512-.068.032-.135.032-.202.032z"></path><path d="M22.963 14.753a6.957 6.957 0 0 1-1.99-.288c-.202-.064-.303-.256-.236-.448s.27-.288.472-.224c.573.16 1.146.256 1.754.256 3.203 0 5.834-2.464 5.834-5.536s-2.63-5.536-5.834-5.536c-2.529 0-4.788 1.536-5.53 3.84-.068.192-.27.288-.472.224s-.303-.256-.236-.448c.843-2.592 3.372-4.352 6.238-4.352 3.642 0 6.576 2.816 6.576 6.24 0 3.456-2.934 6.272-6.576 6.272z"></path><path d="M21.951 6.946a.397.397 0 0 1-.27-.096l-1.383-1.312a.705.705 0 0 1-.202-.512.756.756 0 0 1 .303-.48 3.88 3.88 0 0 1 1.416-.576c.202-.032.405.096.438.288s-.101.384-.303.416a3.158 3.158 0 0 0-1.045.384l1.315 1.216c.135.128.169.384 0 .512a.28.28 0 0 1-.27.16z"></path><path d="M24.345 13.025a.39.39 0 0 1-.371-.288.363.363 0 0 1 .303-.416 3.158 3.158 0 0 0 1.045-.384l-1.315-1.216c-.135-.128-.169-.384 0-.512.135-.128.405-.16.54 0l1.383 1.312c.135.128.202.32.202.512a.756.756 0 0 1-.303.48 3.88 3.88 0 0 1-1.416.576c-.034-.064-.067-.064-.067-.064z"></path><path d="M27.515 9.953c-.034 0-.101 0-.135-.032a.376.376 0 0 1-.236-.48c.135-.352.169-.704.169-1.056l-1.787.48c-.202.064-.405-.064-.472-.256s.068-.384.27-.448l1.888-.48c.202-.064.405 0 .573.096s.27.288.27.48c.034.48-.034.992-.202 1.44-.034.16-.169.256-.337.256z"></path><path d="M24.278 6.978h-.101c-.202-.064-.337-.256-.27-.448l.506-1.792c.068-.192.202-.352.371-.416.169-.096.405-.064.573 0 .472.224.877.512 1.214.896.135.16.135.384-.034.512s-.405.128-.54-.032c-.236-.288-.54-.48-.877-.672l-.472 1.696c-.034.128-.203.256-.371.256z"></path><path d="M12.948 20.481a3.1 3.1 0 0 1-2.394-1.088L2.528 9.698c-.303-.384-.371-.864-.135-1.28.202-.416.674-.704 1.146-.704h18.85c.506 0 .944.256 1.146.704.202.416.169.928-.135 1.28l-8.059 9.695a3.155 3.155 0 0 1-2.394 1.088zM3.54 8.45a.511.511 0 0 0-.472.288.42.42 0 0 0 .067.512l8.059 9.663c.438.512 1.079.832 1.787.832s1.349-.288 1.787-.832l8.059-9.663a.479.479 0 0 0 .067-.512c-.101-.16-.27-.288-.472-.288H3.538z"></path><path d="M12.948 29.088c-.202 0-.371-.16-.371-.352v-8.608c0-.192.169-.352.371-.352s.371.16.371.352v8.608c.034.192-.135.352-.371.352z"></path><path d="M16.758 32H9.171c-.405 0-.742-.256-.843-.608s.068-.736.438-.928l4.181-2.144 4.181 2.144a.87.87 0 0 1 .439.928.854.854 0 0 1-.81.608zm-3.81-2.848l-3.81 1.984s-.068.032-.034.096.068.064.101.064h7.553c.034 0 .068 0 .101-.064s-.034-.096-.034-.096l-3.878-1.984z"></path><path d="M20.366 13.057H5.495c-.202 0-.371-.16-.371-.352s.169-.352.371-.352h14.871c.202 0 .371.16.371.352.034.192-.135.352-.371.352z"></path></g></svg>