<svg xmlns="http://www.w3.org/2000/svg" viewBox="0 0 23 32"><g fill="currentColor" class="nc-icon-wrapper"><path d="M3.752.423A63.662 63.662 0 0 0 .963 8.251C.329 10.536-.347 12.99.202 15.36c.338 1.777 1.395 3.343 2.747 4.527.761.677 1.606 1.185 2.536 1.608 1.437.635 4.522.762 4.48 3.089 0 .254.38.254.423 0 .042-1.566-1.014-2.285-2.367-2.75-2.62-.846-4.902-1.693-6.508-4.147-3.296-5.078.634-12.228 2.282-17.264 0 0-.042-.042-.042 0z"></path><path d="M10.218 27.715c.127-1.185.042-2.412 0-3.639 0-.212-.338-.212-.338 0 .042 1.185.042 2.454.254 3.639 0 .042.085.042.085 0z"></path><path d="M3.963 30.804c2.282.043 4.944-1.481 6.424-3.216.169-.169-.085-.423-.254-.254-1.395 1.608-4.057 3.216-6.17 3.385-.042.042-.042.084 0 .084z"></path><path d="M3.541 30.677c-.211 0-.423.042-.634.084-.169.042-.38.085-.507.212-.211.212-.127.593.169.593.211 0 .211-.296 0-.338-.042 0 .169-.169.169-.212.085-.043.127-.085.211-.127.169-.085.38-.127.592-.169.042.042.042-.042 0-.042z"></path><path d="M18.924.423c1.648 4.993 5.578 12.228 2.324 17.264-1.606 2.454-3.846 3.3-6.508 4.147-1.352.423-2.409 1.185-2.367 2.75 0 .254.423.254.423 0-.085-2.073 5.325-3.3 6.762-4.485 1.479-1.185 2.578-2.835 3-4.697.507-2.243-.085-4.57-.676-6.728A68.143 68.143 0 0 0 18.966.423c0-.042-.042 0-.042 0z"></path><path d="M12.584 27.715c.211-1.185.169-2.412.254-3.639 0-.212-.296-.212-.338 0-.042 1.185-.127 2.412 0 3.639 0 .042.085.042.085 0z"></path><path d="M18.754 30.719c-2.113-.169-4.775-1.777-6.17-3.385-.169-.169-.38.084-.254.254 1.479 1.692 4.141 3.258 6.424 3.216.042 0 .042-.042 0-.084z"></path><path d="M19.177 30.804c.211.043.423.085.592.169.085.043.127.085.211.127.042 0 .254.169.169.212-.211 0-.211.338 0 .338.338-.042.423-.423.169-.592a.635.635 0 0 0-.465-.169c-.211-.042-.465-.085-.676-.127-.042-.084-.084 0 0 .042z"></path><path d="M4.217.296c4.691.212 9.466.085 14.157.085.211-.042.211-.381 0-.381-4.733.042-9.466-.042-14.157.212-.085 0-.085.042 0 .085z"></path><path d="M2.611 31.481c5.747.846 11.875.508 17.622.043.169 0 .169-.296 0-.296-5.916.508-11.706.212-17.622.212v.042z"></path><path d="M1.386 16.375c6.635-.296 13.312.55 19.947-.254.169 0 .169-.296 0-.296-6.635.846-13.312-.127-19.947.55z"></path><path d="M1.555 15.698c3.423.127 6.888.085 10.311.085h7.437c.592 0 1.775-.212 2.282-.042-.169-.085-.296.212-.127.296.042 0 .085.042.127.042.085.042.169.042.211-.042.042-.042.042-.085.085-.169.042-.042.042-.127-.042-.169-.549-.423-1.437-.169-2.113-.169h-6.17c-3.972 0-7.987-.042-11.96.085-.085.042-.085.085-.042.085z"></path><path d="M10.302 24.499a1.47 1.47 0 0 1 1.056-.804c.592-.127 1.183.338 1.141.973 0 .127.211.127.211 0 .042-.592-.38-1.1-.972-1.185-.718-.085-1.226.465-1.437 1.016-.042 0-.042.042 0 0z"></path><path d="M6.879 21.241c4.226.508 8.621.677 12.382-1.608.127-.085 0-.296-.127-.212-3.846 2.158-7.987 2.031-12.255 1.777v.042z"></path><path d="M6.837 30.762c3.55.169 7.142.085 10.692-.169.169 0 .169-.254 0-.254-3.55.296-7.142.338-10.692.423-.042-.042-.042 0 0 0z"></path><path d="M12.923 30.719c1.099-.254 1.437-1.523.634-2.327-.085-.084-.254.042-.169.169.718.677.423 1.82-.507 2.116 0 0 0 .042.042.042z"></path><path d="M7.091 30.973c-.338-.169-.423-.719.042-.804.127-.043.085-.212-.042-.169-.254.084-.465.296-.465.592 0 .127.042.254.127.338.085.042.169.042.338.042z"></path><path d="M9.711 29.492c-.423.084-1.056.254-.972.804.085.508.761.423 1.099.55.127.042.211-.169.042-.212-.254-.084-.676-.042-.887-.212-.169-.169-.085-.465.085-.592.169-.169.423-.212.634-.254.042-.042.042-.084 0-.084z"></path><path d="M10.471 29.492c-.423-.085-1.099.042-1.056-.593.042-.423.465-.719.718-1.058.042-.085-.085-.212-.127-.127-.338.423-.845.804-.761 1.396a.607.607 0 0 0 .38.465c.296.085.592-.042.887-.042-.042.042 0-.042-.042-.042z"></path><path d="M11.021 29.45c.507.043.972.127 1.479.169.127 0 .127-.212 0-.212h-1.479v.042z"></path><path d="M15.12 20.818c.887-1.439 1.437-3.047 1.69-4.697.042-.169-.211-.212-.211-.042-.211 1.693-.761 3.216-1.479 4.739-.042 0-.042.042 0 0z"></path><path d="M4.682 1.396c-1.352 3.3-2.155 6.77-2.536 10.324 0 .085.127.085.127 0 .38-3.554 1.268-6.939 2.451-10.282 0-.085-.042-.085-.042-.042z"></path><path d="M3.752 7.489c-.042-.085-.085-.127-.127-.212a.914.914 0 0 1 .127.212z"></path><path d="M3.963 6.347c-.887 1.989-1.226 4.274-1.352 6.432 0 .127.211.127.211 0 .127-2.2.676-4.231 1.183-6.389 0-.042-.042-.085-.042-.042z"></path><path d="M3.71 10.705a12.544 12.544 0 0 0-.338 2.2c0 .042.085.042.085 0 0-.762.127-1.481.296-2.2.042-.042-.042-.042-.042 0z"></path><path d="M4.175 11.467a4.88 4.88 0 0 0 .042 1.354c0 .085.169.042.127-.042a4.57 4.57 0 0 1-.085-1.312c0-.042-.085-.042-.085 0z"></path><path d="M4.935 12.144v.423c0 .085.127.085.127 0v-.423c-.042-.085-.127-.085-.127 0z"></path><path d="M5.527 12.313c.042 0 .042-.085 0-.085-.042-.042-.042.085 0 .085z"></path><path d="M6.964 11.721c.042 0 .042-.085 0-.085s-.042.085 0 .085z"></path><path d="M17.952 4.274a28.673 28.673 0 0 1 1.859 7.786c0 .042.084.042.084 0-.38-2.708-.972-5.289-1.944-7.786z"></path><path d="M18.416 3.935c.887 2.412 1.395 4.866 1.606 7.447 0 .042.085.042.085 0-.211-2.581-.718-5.035-1.606-7.447-.042-.042-.127-.042-.085 0z"></path><path d="M9.288 13.709c1.521.085 3.043.085 4.564-.085.085 0 .085-.127 0-.127a27.415 27.415 0 0 1-4.564.127c-.042.042-.042.085 0 .085z"></path><path d="M10.176 13.286c.803 0 1.648-.085 2.451-.212.085 0 .042-.127-.042-.085-.803.169-1.606.212-2.409.254-.042-.042-.042.042 0 .042z"></path><path d="M1.639 15.656a.409.409 0 0 0 0 .592c.042.042.127-.042.085-.085a.331.331 0 0 1 0-.465s-.042-.042-.085-.042z"></path><path d="M1.597 16.417c.887 2.243 3.508 4.104 5.79 4.697.127.042.169-.127.042-.169-2.24-.592-4.818-2.412-5.79-4.527-.042-.042-.085 0-.042 0z"></path><path d="M2.146 16.121c-.042.381 0 .762.042 1.1 0 .085.127.085.127 0-.042-.381-.042-.762-.127-1.142-.042 0-.042.042-.042.042z"></path><path d="M2.738 16.248c-.085.465-.127.931-.211 1.439 0 .085.127.127.127 0 .042-.465.085-.973.169-1.439-.042-.042-.085-.042-.085 0z"></path><path d="M3.118 16.248c-.127.592-.211 1.185-.296 1.777 0 .085.084.085.084.042l.254-1.777c.042-.085-.042-.085-.042-.042z"></path><path d="M3.583 16.46a5.3 5.3 0 0 0-.465 2.116c0 .085.127.085.127 0 0-.719.127-1.439.423-2.073.042-.085-.042-.127-.085-.042z"></path><path d="M4.006 16.248a42.37 42.37 0 0 0-.465 2.454c0 .085.127.127.127.042.169-.804.254-1.65.38-2.454.085-.085 0-.127-.042-.042z"></path><path d="M4.471 16.544c-.127.719-.296 1.396-.423 2.116 0 .085.127.127.127.042.127-.719.254-1.396.38-2.116 0-.042-.085-.085-.085-.042z"></path><path d="M4.893 16.333c-.211.931-.423 1.862-.549 2.793 0 .085.127.085.127 0 .127-.931.296-1.862.507-2.793.042-.042-.085-.042-.085 0z"></path><path d="M5.358 16.121c-.338 1.1-.592 2.2-.803 3.343 0 .085.127.127.169.042.169-1.142.423-2.243.718-3.343 0-.085-.085-.085-.085-.042z"></path><path d="M5.781 16.248a33.42 33.42 0 0 0-.803 3.427c0 .085.127.127.127.042.169-1.185.423-2.327.761-3.47.042-.042-.042-.085-.085 0z"></path><path d="M6.245 16.46l-.761 3.427c-.042.085.127.127.169.042.211-1.142.465-2.285.718-3.47-.042-.042-.127-.085-.127 0z"></path><path d="M6.584 17.01a86.3 86.3 0 0 0-.592 3.216c0 .085.127.127.127.042.169-1.058.338-2.158.549-3.216 0-.085-.042-.085-.085-.042z"></path><path d="M7.429 16.121c-.423 1.481-.761 2.962-1.141 4.443 0 .042.085.085.085.042.338-1.481.718-2.962 1.056-4.485z"></path><path d="M7.851 16.46c-.254 1.396-.507 2.793-.803 4.231 0 .085.127.127.127.042.211-1.396.507-2.835.718-4.231 0-.042-.042-.085-.042-.042z"></path><path d="M8.57 16.248c-.338 1.566-.676 3.089-1.014 4.654 0 .085.127.127.127.042.296-1.566.634-3.131.93-4.654.042-.085-.042-.085-.042-.042z"></path><path d="M9.246 16.333a156.755 156.755 0 0 1-1.056 4.739c-.042.085.127.127.127.042.296-1.608.634-3.173.972-4.781h-.042z"></path><path d="M10.049 16.121c-.507 1.65-.845 3.3-1.183 4.993 0 .085.127.127.127.042a40.506 40.506 0 0 1 1.099-4.993c.042-.042-.042-.085-.042-.042z"></path><path d="M10.725 16.375c-.465 1.566-.845 3.173-1.226 4.739-.042.127.169.169.169.042.38-1.566.803-3.173 1.141-4.781.042-.042-.042-.085-.085 0z"></path><path d="M11.232 16.375c-.38 1.608-.718 3.258-1.141 4.866-.042.085.127.127.169.042.423-1.608.803-3.216 1.056-4.866-.042-.085-.085-.085-.085-.042z"></path><path d="M11.908 16.46c-.465 1.481-.845 3.004-1.183 4.527-.042.085.127.127.127.042.296-1.523.718-3.047 1.099-4.57.042-.042 0-.042-.042 0z"></path><path d="M12.584 16.46a691.29 691.29 0 0 1-1.141 4.527c-.042.127.127.169.169.042.338-1.523.718-3.047 1.099-4.57-.042-.042-.127-.042-.127 0z"></path><path d="M13.134 16.46c-.423 1.523-.803 3.004-1.226 4.527-.042.085.127.169.169.042.38-1.523.761-3.047 1.141-4.527 0-.085-.085-.085-.085-.042z"></path><path d="M13.768 16.544c-.423 1.481-.845 2.962-1.183 4.443-.042.085.127.127.169.042a99.128 99.128 0 0 1 1.141-4.485c-.042 0-.127-.042-.127 0z"></path><path d="M14.275 16.46c-.423 1.566-.803 3.089-1.268 4.654-.042.085.127.127.127.042.38-1.566.803-3.131 1.183-4.654.042-.085-.042-.085-.042-.042z"></path><path d="M14.697 16.544c-.296 1.185-.549 2.37-.845 3.554-.085.296-.38.931.042 1.015.042 0 .085 0 .085-.042s.042-.042.042-.085c.042-.085-.085-.169-.127-.127.127-.127.127-.846.169-1.1l.254-1.142c.169-.719.296-1.396.465-2.116.042 0-.042 0-.085.042z"></path><path d="M15.247 16.671c-.338 1.354-.676 2.75-1.014 4.104-.042.127.169.169.169.042.296-1.396.634-2.75.93-4.147 0-.042-.085-.042-.085 0z"></path><path d="M15.669 16.587c-.38 1.396-.718 2.793-1.056 4.189-.042.085.127.127.127.042.338-1.396.676-2.793 1.014-4.231.042-.042-.042-.085-.085 0z"></path><path d="M16.134 16.587c-.254 1.015-.549 1.989-.803 3.004 0 .042.085.085.085.042.254-1.015.507-1.989.761-3.004.042-.085-.042-.127-.042-.042z"></path><path d="M7.344 29.915c.042.042-.042.338-.042.423-.042.127-.042.296-.085.423 0 .085.127.127.127.042.042-.169.042-.338.042-.508 0-.084.042-.296 0-.381.042-.042-.042-.084-.042 0-.042 0-.042.042 0 0 0 .042 0 .042 0 0 0 .042.042.042 0 0z"></path><path d="M7.725 29.45c-.042.423-.085.889-.127 1.312 0 .085.085.085.085 0 0-.423.085-.889.085-1.312 0-.042-.042-.042-.042 0z"></path><path d="M8.063 29.45c-.042.508-.085 1.015-.127 1.566 0 .084.127.084.127 0 .042-.508.085-1.015.085-1.566 0-.042-.085-.042-.085 0z"></path><path d="M8.527 29.111l-.254 1.523c0 .085.127.085.127 0 .042-.508.127-1.015.169-1.566 0 .042-.042.042-.042.042z"></path><path d="M8.908 28.985c-.169.508-.254 1.015-.338 1.566 0 .084.127.084.127 0 0-.508.127-1.058.296-1.566 0 0-.085-.043-.085 0z"></path><path d="M9.161 28.688v.762c0 .043.085.043.085 0v-.762c-.042-.042-.085-.042-.085 0z"></path><path d="M13.387 28.35a7.401 7.401 0 0 0-.507 2.327c0 .084.127.084.127 0a10.7 10.7 0 0 1 .38-2.327c.042-.042 0-.042 0 0z"></path><path d="M13.81 28.985c-.169.508-.38 1.015-.549 1.566-.042.084.127.127.127.042.169-.508.338-1.058.507-1.566-.042-.042-.085-.085-.085-.042z"></path><path d="M13.472 28.646a13.257 13.257 0 0 0-.38 1.777c0 .085.085.085.085 0 .042-.592.169-1.185.296-1.777z"></path><path d="M14.021 29.111c-.085.423-.169.889-.254 1.312 0 .085.127.127.127 0 .042-.465.127-.889.169-1.312 0 0-.042-.042-.042 0z"></path><path d="M14.402 29.238c-.085.465-.127.973-.254 1.439 0 .084.085.084.127 0 .042-.465.127-.973.211-1.439-.042-.042-.085-.042-.085 0z"></path><path d="M14.782 29.45l-.127.762c0 .084.127.127.127 0 .042-.254.085-.508.085-.762.042-.042-.085-.084-.085 0z"></path><path d="M15.036 29.662c0 .212-.042.423-.042.677 0 .084.127.084.127 0v-.677c-.042-.043-.085-.043-.085 0z"></path><path d="M15.331 30.212v.127c0 .043.085.042.085 0v-.127c0-.042-.085-.042-.085 0z"></path><path d="M19.304 14.217c.423-.296.718-.804.887-1.269.042-.085-.085-.127-.127-.042-.169.465-.465.889-.803 1.269l.042.042z"></path><path d="M19.726 14.386c.296-.508.634-1.016.93-1.523 0-.042-.042-.042-.042-.042-.296.508-.592 1.016-.887 1.566z"></path><path d="M18.839 16.248c-.169.635-.254 1.269-.507 1.862-.042.085.085.127.127.042.254-.592.465-1.269.423-1.904 0-.042-.042-.042-.042 0z"></path><path d="M19.346 15.994c-.296.973-.592 1.946-.887 2.877 0 .042.085.085.085.042.296-.973.549-1.904.803-2.92z"></path><path d="M19.726 16.037a19.327 19.327 0 0 1-1.183 3.427c-.042.042.042.085.085.042.465-1.142.887-2.285 1.099-3.47.042 0 0-.042 0 0z"></path><path d="M20.022 16.46c-.38 1.058-.761 2.158-1.141 3.216-.042.085.084.085.127.042.338-1.058.718-2.158 1.056-3.216 0-.042-.042-.085-.042-.042z"></path><path d="M20.487 16.121c-.38 1.142-.676 2.285-1.056 3.427-.042.085.127.127.127.042.338-1.142.676-2.285.972-3.47.042 0-.042-.042-.042 0z"></path><path d="M20.825 16.037c-.127 1.058-.38 2.116-.845 3.089-.042.085.085.127.085.042.38-1.015.634-2.031.761-3.131.042-.042 0-.042 0 0z"></path><path d="M21.248 15.783c-.042.677-.127 1.354-.38 1.989-.042.085.084.085.127.042.169-.677.296-1.312.338-2.031h-.085z"></path><path d="M21.459 16.121c-.127.381-.169.804-.296 1.227 0 .085.127.127.127.042.084-.423.169-.804.211-1.227.042-.085-.042-.085-.042-.042z"></path><path d="M6.541 1.439c3.127 0 6.297-.042 9.424-.085.084 0 .084-.169 0-.169-3.127.085-6.297.127-9.424.212-.042-.042-.042.042 0 .042z"></path><path d="M7.851.381c-.042.169-.085.381-.127.55 0 .042.085.085.085.042.042-.169.085-.381.085-.55 0-.085-.042-.085-.042-.042z"></path><path d="M8.358.339c-.085.212-.211.465-.296.677-.042.042.042.085.085.042.085-.212.169-.465.296-.677 0-.042-.042-.042-.085-.042z"></path><path d="M8.908.254c-.127.254-.211.508-.338.762-.042.085.085.127.127.042.085-.254.211-.508.296-.762.042-.085-.042-.085-.085-.042z"></path><path d="M9.499.127l-.38.762c-.042.085.085.127.085.042.085-.254.211-.508.296-.762.085-.042.042-.042 0-.042z"></path><path d="M10.133.127c-.169.254-.296.508-.465.762-.042.085.085.127.085.042.127-.254.254-.55.38-.804.042 0 0-.042 0 0z"></path><path d="M10.725.042a9.648 9.648 0 0 1-.423.973c-.042.085.085.127.127.042.085-.339.211-.677.338-1.016 0-.042-.042-.042-.042 0z"></path><path d="M11.148.254a1.472 1.472 0 0 1-.296.635c-.042.042.042.127.085.085.169-.212.254-.423.296-.719 0-.042-.085-.042-.085 0z"></path><path d="M11.697.127c-.169.339-.296.635-.465.973-.042.085.085.169.127.042l.38-1.016h-.042z"></path><path d="M12.289.127c-.085.254-.169.508-.38.719-.042.085.042.169.085.085.169-.254.254-.508.338-.804 0 0-.042-.042-.042 0z"></path><path d="M12.923.254c-.169.212-.296.423-.465.635-.042.085.085.169.127.085.127-.212.254-.465.38-.677.042-.042-.042-.085-.042-.042z"></path><path d="M13.514.254c-.085.254-.169.508-.296.719-.042.085.085.127.127.042l.254-.762s-.085-.042-.085 0z"></path><path d="M14.148.465c-.127.212-.211.381-.338.55-.042.042.085.127.085.042.085-.212.211-.381.296-.55.042-.042 0-.042-.042-.042z"></path><path d="M14.824.381c-.085.127-.169.296-.254.423-.042.042.085.127.085.042.085-.169.127-.296.211-.465.042-.042-.042-.042-.042 0z"></path><path d="M11.401 24.457c0 .635-.042 1.269-.042 1.904 0 .042.085.042.085 0 0-.635 0-1.27-.042-1.904z"></path><path d="M11.697 24.245c.042.762 0 1.481-.127 2.2 0 .043.085.085.085 0 .127-.719.169-1.439.042-2.2.042-.042 0-.042 0 0z"></path></g></svg>