<svg xmlns="http://www.w3.org/2000/svg" viewBox="0 0 25 32"><g fill="currentColor" class="nc-icon-wrapper"><path d="M14.785 13.867V30.4c0 .882.735 1.6 1.638 1.6h6.554c.903 0 1.638-.718 1.638-1.6V13.867c0-1.688-1.153-3.116-2.731-3.576v-6.44c.333-.293.546-.713.546-1.184V1.6c0-.882-.735-1.6-1.638-1.6h-2.185c-.903 0-1.639.718-1.639 1.6v1.067c0 .471.214.891.546 1.184v6.44c-1.577.46-2.731 1.888-2.731 3.576zm3.309 4.101c0-.882.735-1.6 1.638-1.6s1.638.718 1.632 1.647l-.008.067c-.015.15.035.298.139.41s.25.175.404.175h1.622V24h-1.622a.54.54 0 0 0-.544.492c-.066.828-.779 1.476-1.624 1.476a1.614 1.614 0 0 1-1.624-1.478.54.54 0 0 0-.544-.489h-1.688v-5.333h1.688a.54.54 0 0 0 .546-.533.915.915 0 0 0-.017-.165zm4.883 12.965h-6.554a.54.54 0 0 1-.546-.533v-5.333h1.23c.316 1.15 1.37 1.968 2.626 1.968 1.239 0 2.308-.832 2.626-1.968h1.165V30.4a.54.54 0 0 1-.546.533zm.546-17.066V17.6h-1.086c-.184-1.297-1.327-2.298-2.704-2.298s-2.521 1.002-2.704 2.298h-1.152v-3.733c0-1.1.685-2.045 1.661-2.452.111 1.075 1.033 1.919 2.162 1.919s2.051-.844 2.162-1.919c.976.408 1.661 1.353 1.661 2.452zM18.608 11.2h2.185c0 .588-.49 1.067-1.092 1.067s-1.092-.478-1.092-1.067zm-.546-9.6a.54.54 0 0 1 .546-.533h2.185a.54.54 0 0 1 .546.533v1.067a.54.54 0 0 1-.546.533h-2.185a.54.54 0 0 1-.546-.533V1.6zm2.73 2.667v5.867h-2.185V4.267h2.185z"></path><path d="M18.881 22.413a.845.845 0 0 0 .327-.066.794.794 0 0 0-.067.32c0 .448.374.813.832.813s.832-.365.832-.813a.775.775 0 0 0-.057-.289.814.814 0 0 0 .603-.778.775.775 0 0 0-.057-.289.814.814 0 0 0 .603-.778.824.824 0 0 0-.832-.813c-.21 0-.4.079-.546.204a.842.842 0 0 0-.287-.16.908.908 0 0 0 .277-.285.922.922 0 0 0 .008-.911l-.08-.149-.173.007c-.34.014-.641.186-.803.461s-.166.616-.008.911l.039.073c-.023.016-.045.035-.066.053a.84.84 0 0 0-.546-.204.824.824 0 0 0-.832.813c0 .205.081.391.209.533a.799.799 0 0 0-.209.533c0 .448.373.813.832.813zm0-.559c-.143 0-.26-.113-.26-.254s.117-.254.26-.254.26.114.26.254-.117.254-.26.254zm.819-.125a.729.729 0 0 0 .044.16c-.033.009-.066.017-.097.03a.812.812 0 0 0 .054-.19zm0-.258a.774.774 0 0 0-.054-.191c.031.013.064.021.097.031a.787.787 0 0 0-.043.16zm.273 1.45c-.143 0-.26-.114-.26-.254s.117-.254.26-.254.26.114.26.254-.117.254-.26.254zm.546-1.067c-.143 0-.26-.114-.26-.254s.117-.254.26-.254c.143 0 .26.114.26.254s-.117.254-.26.254zm.546-1.575c.143 0 .26.114.26.254s-.117.254-.26.254-.26-.114-.26-.254.117-.254.26-.254zm-1.092.508c-.143 0-.26-.114-.26-.254s.117-.254.26-.254.26.114.26.254-.117.254-.26.254zm-.039-1.633a.387.387 0 0 1 .155-.145c.003.071-.014.141-.051.203s-.09.111-.155.145a.364.364 0 0 1 .051-.203zm-1.053 1.125c.143 0 .26.114.26.254s-.117.254-.26.254-.26-.114-.26-.254.117-.254.26-.254z"></path><path d="M5.5 23.796v7.137H3.862c-.302 0-.546.239-.546.533s.244.533.546.533h4.369c.302 0 .546-.239.546-.533s-.244-.533-.546-.533H6.593v-7.14c3.048-.315 5.44-3.085 5.44-6.449 0-.916-.166-2.267-.432-3.526v-.001c-.193-.907-.421-1.677-.68-2.288a.546.546 0 0 0-.504-.329H1.706a.545.545 0 0 0-.5.32c-.407.908-.68 2.006-.838 2.769l-.001.001c-.229 1.104-.366 2.237-.366 3.033.001 3.397 2.424 6.19 5.5 6.473zM2.071 12.267h7.97c.115.314.225.674.327 1.067-.09.001-.178.013-.267.019-.086.006-.173.007-.258.018-.093.012-.184.033-.275.051-.085.016-.172.028-.256.049-.089.022-.174.054-.262.082-.082.026-.167.048-.247.079-.086.033-.168.075-.252.113-.077.035-.155.066-.229.104-.085.045-.165.099-.247.149-.067.041-.137.078-.202.123-.086.059-.164.127-.246.192-.055.044-.114.084-.167.131-.09.08-.172.168-.255.255-.038.04-.08.075-.116.116a4.393 4.393 0 0 0-.325.417A5.26 5.26 0 0 0 2.8 13.468c-.188 0-.376.011-.562.031-.063.007-.125.02-.187.029-.123.018-.245.035-.366.061l-.038.006c.131-.493.273-.944.424-1.327zm-.691 2.52c.028-.01.056-.022.085-.031.05-.016.1-.032.15-.046a4.2 4.2 0 0 1 .245-.064c.049-.011.098-.023.148-.033.088-.017.178-.031.268-.042.043-.005.085-.013.128-.016a4.157 4.157 0 0 1 3.967 1.957.523.523 0 0 0 .092.111c.015.014.034.024.051.037.021.015.041.032.064.044s.049.02.073.029c.02.007.039.015.059.02.025.006.049.007.075.009.018.002.035.007.053.007.014 0 .029 0 .044-.002a.546.546 0 0 0 .464-.333 3.148 3.148 0 0 1 .465-.787c.014-.018.025-.037.039-.054a3.298 3.298 0 0 1 2.022-1.146l.066-.011c.114-.016.229-.021.346-.025.071-.002.142-.005.215-.002.036.001.074.007.111.01.204 1.066.332 2.181.332 2.926 0 2.985-2.21 5.413-4.926 5.413-2.714 0-4.921-2.438-4.921-5.435-.001-.653.107-1.604.286-2.537z"></path></g></svg>