<svg xmlns="http://www.w3.org/2000/svg" viewBox="0 0 32 32"><g fill="currentColor" class="nc-icon-wrapper"><path d="M27.086 22.572c-.24 0-.484.021-.724.058.716-1.446.728-2.875.736-3.537.02-2.104-.744-3.891-1.385-5.02l1.497.204a.306.306 0 0 0 .304-.142c.704-1.083.704-2.233 0-3.316a.308.308 0 0 0-.304-.142l-4.851.662a.326.326 0 0 0-.236.162.336.336 0 0 0-.04.15l-3.182-1.017-1.076-3.379c-.004-.012-.004-.025-.008-.037l-.008-.025c0-.004 0-.004-.004-.008l-.18-.562c-.004-.017-.016-.037-.024-.054v-.004s0-.004-.004-.004v-.004l-.004-.004a2.148 2.148 0 0 0-.196-.3c.096.008.188.029.288.029a.317.317 0 0 0 .304-.267c1.293-.15 2.313-1.212 2.457-2.558a.322.322 0 0 0 .256-.317c0-1.733-1.353-3.141-3.017-3.141s-3.017 1.408-3.017 3.141c0 .917.384 1.733.989 2.308-.12.008-.244.017-.364.046-.644.15-1.205.579-1.557 1.225a111.479 111.479 0 0 0-1.289 3.758 109.366 109.366 0 0 1-1.269 3.699c-.004.004-.004.013-.008.017-.004.012-.004.025-.004.037-.008.029-.016.054-.016.083v1.025c0 .383.12.742.316 1.042h-1.148l-.001-9.732a.324.324 0 0 0-.316-.329H.316A.323.323 0 0 0 0 6.648v10.074c0 .183.144.329.316.329h2.525c-.248.383-.32.85-.188 1.291l.38 1.258a.32.32 0 0 0 .304.233h.672l-.937 2.595C1.431 23.565.343 25.507.343 27.711c0 .183.144.329.316.329h1.669c.164 2.208 1.941 3.958 4.102 3.958s3.934-1.746 4.098-3.958h12.438c.164 2.208 1.941 3.954 4.102 3.954s3.934-1.746 4.098-3.954h.516c.176 0 .316-.15.316-.329.021-2.833-2.193-5.141-4.914-5.141v-.001zM18.005 5.361V3.482h1.805c-.14.971-.872 1.733-1.805 1.879zm-2.697-2.212c0-1.366 1.069-2.479 2.381-2.479 1.205 0 2.189.938 2.349 2.146h-2.349a.323.323 0 0 0-.316.329V5.59c-1.165-.158-2.065-1.187-2.065-2.441zm-2.257 7.553c.42-1.275.856-2.591 1.261-3.691.24-.437.652-.754 1.121-.863.428-.1.86-.021 1.189.221.168.125.312.296.412.5l.172.537c.004.012.004.025.008.037l1.141 3.57c0 .004.008.008.012.017.02.054.056.104.1.142.008.008.016.008.028.017.024.017.044.033.072.042l5.186 1.654c.192.063.328.25.328.467l-.004.067a.482.482 0 0 1-.204.337.451.451 0 0 1-.384.062l-6.003-1.796-.608-1.333c0-.004-.004-.008-.008-.012l-.408-.892c-.204-.45-.408-.9-.616-1.346a.312.312 0 0 0-.424-.154.336.336 0 0 0-.148.442c.208.446.412.892.616 1.341l.348.767-1.329 3.654-2.993-.433c.376-1.057.764-2.224 1.136-3.353zm3.193 13.353c0 .008-.004.017-.004.029v1.396h-.584a7.282 7.282 0 0 1 .084-5.828l-.004-.004a.337.337 0 0 0 .024-.242 4.306 4.306 0 0 0-1.232-1.946l2.537.371-.82 6.208v.016zm.633.362h2.321c.492 0 .892.417.892.929v.133h-3.214v-1.062zm2.317-.662h-.008l.892-6.72c.128-.975-.528-1.879-1.465-2.012l-3.065-.442 1.061-2.916.296.654c.1.192.26.325.436.367l5.663 1.679c.308 1.05.456 1.867.44 2.483-.076 4.362-1.881 7.324-2.737 8.366-.06-.817-.712-1.458-1.513-1.458zm-7.408-9.053l6.743.975c.588.083 1 .654.92 1.266l-.904 6.812H16.92l.817-6.158a.33.33 0 0 0-.272-.375l-4.554-.662a3.658 3.658 0 0 0-.424-.108 1.2 1.2 0 0 1-.7-1.1v-.65zM4.53 6.981h1.261v3H4.53v-3zM.64 16.393V6.982h3.254v3.333c0 .183.144.329.316.329h1.897c.176 0 .316-.15.316-.329V6.982h3.254v9.411H.64zm2.938 2.783l-.308-1.029a.86.86 0 0 1 .12-.75.795.795 0 0 1 .652-.346h7.776c.172 0 .34.012.504.037.12.046.244.083.376.1l.148.021a3.525 3.525 0 0 1 2.149 1.958l-11.418.008zm2.869 12.165c-1.813 0-3.306-1.45-3.466-3.295h1.281c.156 1.112 1.069 1.975 2.181 1.975 1.117 0 2.033-.863 2.189-1.975h1.277c-.164 1.846-1.653 3.295-3.462 3.295zm-1.549-3.296h3.098c-.148.75-.788 1.312-1.553 1.312s-1.401-.562-1.545-1.312zm6.707-.662H1c.164-2.979 2.545-5.349 5.447-5.349 2.897 0 5.275 2.37 5.439 5.349h-.28zm10.698 0h-9.789c-.168-3.341-2.821-6.008-6.067-6.008-.896 0-1.741.208-2.509.571l.756-2.108h10.277a7.91 7.91 0 0 0-.516 3.079 7.83 7.83 0 0 0 .712 3.041.32.32 0 0 0 .288.187h5.147a.306.306 0 0 0 .204-.079c.668-.592 3.185-3.887 3.282-9.203.016-.629-.112-1.404-.384-2.383a1.1 1.1 0 0 0 .512-.175 1.15 1.15 0 0 0 .496-.959c0-.512-.312-.95-.776-1.1l-.992-.317 4.146-.567c.424.75.424 1.483 0 2.233l-1.973-.271a.314.314 0 0 0-.312.154.356.356 0 0 0 .008.362c.624.946 1.673 2.887 1.649 5.245-.004.704-.02 2.358-1.009 3.845-.108.158-.212.292-.308.421l-2.842 4.029zm4.782 3.958c-1.813 0-3.306-1.45-3.466-3.291H24.9c.156 1.112 1.069 1.975 2.181 1.975s2.025-.863 2.181-1.975h1.281c-.156 1.841-1.649 3.291-3.458 3.291zm-1.548-3.296h3.089c-.148.746-.784 1.312-1.545 1.312s-1.397-.562-1.545-1.312zm-2.446-.662l2.569-3.654c.06-.079.144-.191.236-.317a4.171 4.171 0 0 1 1.189-.183c2.265 0 4.126 1.833 4.29 4.154h-8.284z" fill="currentColor" class="nc-icon-wrapper"></path></g></svg>