<svg xmlns="http://www.w3.org/2000/svg" viewBox="0 0 48 48"><g fill="none" class="nc-icon-wrapper"><path d="M48 32.07H.192V19.435H48V32.07zM1.296 30.904h45.648V20.655H1.296v10.248z" fill="currentColor"></path><path d="M47.808 48H0V35.363h47.808V48zM1.104 46.779h45.648V36.584H1.104v10.194z" fill="currentColor"></path><path d="M5.088 27.717c-1.008 0-1.776-.903-1.776-1.965 0-1.061.816-1.964 1.776-1.964 1.008 0 1.776.902 1.776 1.964 0 1.062-.816 1.965-1.776 1.965zm0-2.708c-.384 0-.672.319-.672.743 0 .425.288.744.672.744.384 0 .672-.319.672-.744 0-.424-.288-.743-.672-.743z" fill="currentColor"></path><path d="M5.088 43.646c-1.008 0-1.776-.903-1.776-1.965 0-1.061.816-1.964 1.776-1.964 1.008 0 1.776.903 1.776 1.965 0 1.061-.816 1.964-1.776 1.964zm0-2.708c-.384 0-.672.319-.672.743 0 .425.288.744.672.744.384 0 .672-.319.672-.743 0-.425-.288-.744-.672-.744z" fill="currentColor"></path><path d="M42.72 27.717c-1.008 0-1.776-.903-1.776-1.965 0-1.061.816-1.964 1.776-1.964.96 0 1.776.902 1.776 1.964 0 1.062-.768 1.965-1.776 1.965zm0-2.708c-.384 0-.672.319-.672.743 0 .425.288.744.672.744.384 0 .672-.319.672-.744a.666.666 0 0 0-.672-.743z" fill="currentColor"></path><path d="M42.72 43.646c-1.008 0-1.776-.903-1.776-1.965 0-1.061.816-1.964 1.776-1.964.96 0 1.776.903 1.776 1.965 0 1.061-.768 1.964-1.776 1.964zm0-2.708c-.384 0-.672.319-.672.743 0 .425.288.744.672.744.384 0 .672-.319.672-.743a.666.666 0 0 0-.672-.744z" fill="currentColor"></path><path d="M15.552 20.018h-1.104v-2.39c0-2.336-.288-2.548-.624-2.92a3.002 3.002 0 0 0-.672-.425c-.816-.478-1.872-1.115-1.872-3.186V6.425H8.543v4.672c0 2.071-1.103 2.708-1.872 3.186-.24.16-.48.266-.671.425-.385.319-.625.584-.625 2.92v2.39H4.272v-2.39c0-2.495.288-3.185 1.056-3.822.24-.213.528-.425.816-.585.768-.477 1.296-.796 1.296-2.123V6.372c0-.637.48-1.168 1.056-1.168h2.784c.576 0 1.056.531 1.056 1.168v4.726c0 1.327.576 1.699 1.296 2.123.288.16.576.319.816.585.768.69 1.056 1.327 1.056 3.822v2.39h.048z" fill="currentColor"></path><path d="M4.272 31.487h1.104v4.46H4.272v-4.46z" fill="currentColor"></path><path d="M14.448 31.487h1.104v4.46h-1.104v-4.46z" fill="currentColor"></path><path d="M12.432 6.425h-5.04c-.288 0-.528-.266-.528-.584 0-.319.24-.584.528-.584h5.04c.288 0 .528.265.528.584.048.318-.24.584-.528.584z" fill="currentColor"></path><path d="M11.472 4.46c-.288 0-.528-.265-.528-.584v-1.54c0-.637-.48-1.168-1.056-1.168-.576 0-1.056.531-1.056 1.168v1.487c0 .319-.24.584-.528.584-.288 0-.528-.265-.528-.584V2.336C7.776 1.062 8.736 0 9.888 0 11.04 0 12 1.062 12 2.336v1.487c.048.319-.192.638-.528.638z" fill="currentColor"></path><path d="M43.92 20.018h-1.104v-2.39c0-2.336-.288-2.548-.624-2.92a3.002 3.002 0 0 0-.672-.425c-.816-.478-1.872-1.115-1.872-3.186V6.425h-2.736v4.672c0 2.071-1.104 2.708-1.872 3.186-.24.16-.48.266-.672.425-.384.319-.624.584-.624 2.92v2.39H32.64v-2.39c0-2.495.288-3.185 1.056-3.822.24-.213.528-.425.816-.585.768-.477 1.296-.796 1.296-2.123V6.372c0-.637.48-1.168 1.056-1.168h2.784c.576 0 1.056.531 1.056 1.168v4.726c0 1.327.576 1.699 1.296 2.123.288.16.576.319.816.585.768.69 1.056 1.327 1.056 3.822v2.39h.048z" fill="currentColor"></path><path d="M32.592 31.487h1.104v4.46h-1.104v-4.46z" fill="currentColor"></path><path d="M42.816 31.487h1.104v4.46h-1.104v-4.46z" fill="currentColor"></path><path d="M40.8 6.425h-5.04c-.288 0-.528-.266-.528-.584 0-.319.24-.584.528-.584h5.04c.288 0 .528.265.528.584 0 .318-.24.584-.528.584z" fill="currentColor"></path><path d="M39.84 4.46c-.288 0-.528-.265-.528-.584v-1.54c0-.637-.48-1.168-1.056-1.168-.576 0-1.056.531-1.056 1.168v1.487c0 .319-.24.584-.528.584-.288 0-.528-.265-.528-.584V2.336c0-1.274.96-2.336 2.112-2.336 1.152 0 2.112 1.062 2.112 2.336v1.487c.048.319-.192.638-.528.638z" fill="currentColor"></path><path d="M29.76 20.018h-1.104v-2.39c0-2.336-.288-2.548-.672-2.92-.144-.106-.384-.265-.624-.425-.816-.478-1.872-1.115-1.872-3.186V6.425h-2.736v4.672c0 2.071-1.104 2.708-1.872 3.186-.24.16-.48.266-.672.425-.384.319-.672.584-.672 2.92v2.39h-1.104v-2.39c0-2.495.288-3.185 1.056-3.822.24-.213.528-.425.816-.585.768-.477 1.296-.796 1.296-2.123V6.372c0-.637.48-1.168 1.056-1.168h2.784c.576 0 1.056.531 1.056 1.168v4.726c0 1.327.576 1.699 1.296 2.123.288.16.576.319.816.585.768.69 1.056 1.327 1.056 3.822v2.39h.096z" fill="currentColor"></path><path d="M18.432 31.487h1.104v4.46h-1.104v-4.46z" fill="currentColor"></path><path d="M28.656 31.487h1.104v4.46h-1.104v-4.46z" fill="currentColor"></path><path d="M26.592 6.425h-5.04c-.288 0-.528-.266-.528-.584 0-.319.24-.584.528-.584h5.04c.288 0 .528.265.528.584.048.318-.192.584-.528.584z" fill="currentColor"></path><path d="M25.68 4.46c-.288 0-.528-.265-.528-.584v-1.54c0-.637-.48-1.168-1.056-1.168a1.163 1.163 0 0 0-1.056 1.168v1.487c0 .319-.24.584-.528.584-.288 0-.528-.265-.528-.584V2.336c0-1.274.96-2.336 2.112-2.336 1.152 0 2.112 1.062 2.112 2.336v1.487c0 .319-.24.638-.528.638z" fill="currentColor"></path></g></svg>