<svg xmlns="http://www.w3.org/2000/svg" viewBox="0 0 32 32"><g fill="currentColor" class="nc-icon-wrapper"><path d="M13.494 8.856a4.762 4.762 0 1 0 0 9.526 4.762 4.762 0 1 0 0-9.526zm-2.381 4.763a2.381 2.381 0 1 1 4.762 0 2.381 2.381 0 1 1-4.762 0z"></path><path d="M0 7.665a3.572 3.572 0 0 1 3.572-3.572h19.845a3.572 3.572 0 0 1 3.572 3.572v11.907a3.572 3.572 0 0 1-3.572 3.572H3.572A3.572 3.572 0 0 1 0 19.572V7.665zm3.572-1.191a1.19 1.19 0 0 0-1.191 1.191v1.191h1.191a1.19 1.19 0 0 0 1.191-1.191V6.474H3.572zM2.381 16h1.191a3.572 3.572 0 0 1 3.572 3.572v1.191h12.701v-1.191A3.572 3.572 0 0 1 23.417 16h1.191v-4.763h-1.191a3.572 3.572 0 0 1-3.572-3.572V6.474H7.144v1.191a3.572 3.572 0 0 1-3.572 3.572H2.381V16zm22.227-7.144V7.665a1.19 1.19 0 0 0-1.191-1.191h-1.191v1.191a1.19 1.19 0 0 0 1.191 1.191h1.191zm0 9.525h-1.191a1.19 1.19 0 0 0-1.191 1.191v1.191h1.191a1.19 1.19 0 0 0 1.191-1.191v-1.191zM2.381 19.572a1.19 1.19 0 0 0 1.191 1.191h1.191v-1.191a1.19 1.19 0 0 0-1.191-1.191H2.381v1.191z"></path><path d="M3.812 25.526a4.765 4.765 0 0 0 4.124 2.381h16.275a7.54 7.54 0 0 0 7.541-7.541V12.029a4.761 4.761 0 0 0-2.359-4.112l-.022-.012v12.461a5.16 5.16 0 0 1-5.159 5.159H3.814z"></path></g></svg>