<svg xmlns="http://www.w3.org/2000/svg" viewBox="0 0 32 32"><g fill="currentColor" class="nc-icon-wrapper"><path d="M19.467 7.194a3.502 3.502 0 0 1-2.865-.618l.009.007a1.563 1.563 0 0 0-1.855.003l.004-.003a3.486 3.486 0 0 1-2.097.694c-.269 0-.53-.03-.782-.087l.024.005a1.568 1.568 0 0 0-1.897 1.533v4.626c0 2.093.99 3.954 2.527 5.142l.015.011 2.15 1.568a1.563 1.563 0 0 0 1.855-.003l-.004.003 2.15-1.568a6.491 6.491 0 0 0 2.603-5.2v-.025.001-4.555c0-.49-.225-.928-.577-1.216l-.003-.002a1.557 1.557 0 0 0-1.266-.313l.01-.002zm-1.238 6.088v.025c0 1.093-.52 2.065-1.327 2.682l-.008.006-1.207.894-1.208-.894a3.373 3.373 0 0 1-1.333-2.686v-.028.001-2.888a6.58 6.58 0 0 0 2.541-.706 6.58 6.58 0 0 0 2.541.706v2.888zm10.729-1.224C28.287 5.262 22.602-.003 15.686-.003c-2.746 0-5.299.83-7.42 2.254l.048-.03c-3.257 2.201-5.478 5.723-5.893 9.78l-.005.057a13.232 13.232 0 0 0 3.858 10.713l.001.001 8.312 8.329a1.564 1.564 0 0 0 2.228 0l8.282-8.329a13.229 13.229 0 0 0 3.922-9.419 13.4 13.4 0 0 0-.068-1.351l.005.056zm-6.055 8.501l-7.215 7.217-7.217-7.217a10.148 10.148 0 0 1-2.929-8.231l-.003.043a10.318 10.318 0 0 1 4.496-7.553l.036-.023C11.65 3.733 13.595 3.1 15.687 3.1s4.037.633 5.652 1.718l-.036-.023c2.502 1.687 4.208 4.389 4.529 7.502l.004.044a10.149 10.149 0 0 1-2.933 8.218z" fill="currentColor" class="nc-icon-wrapper"></path></g></svg>