<svg xmlns="http://www.w3.org/2000/svg" viewBox="0 0 29 32"><g fill="currentColor" class="nc-icon-wrapper"><path d="M28.697 5.892L25.268.327A.69.69 0 0 0 24.685 0H4.113a.69.69 0 0 0-.583.327L.101 5.892a.692.692 0 0 0-.103.369v16.696c.001.553.219 1.083.604 1.474s.908.611 1.453.613h9.6v2.087a.692.692 0 0 1-.686.696H6.571c-.455 0-.898.154-1.258.436s-.618.679-.733 1.126l-.446 1.741c-.053.208-.009.43.121.6s.33.27.542.27h19.2c.212 0 .413-.1.542-.27s.175-.392.121-.6l-.446-1.741c-.114-.447-.372-.843-.732-1.126s-.803-.436-1.258-.436h-4.398a.692.692 0 0 1-.686-.696v-2.087h9.6c.545-.002 1.067-.222 1.453-.613s.603-.921.604-1.474V6.261a.697.697 0 0 0-.103-.369zm-4.388-4.501l3.106 5.043c-.058.722-.482 1.362-1.12 1.689s-1.396.295-2.004-.085a2.088 2.088 0 0 1-.976-1.778.708.708 0 0 0-.076-.313l-2.242-4.556h3.312zm-10.745 0h1.673l1.214 4.932c-.02.73-.414 1.396-1.041 1.755s-1.393.359-2.019 0a2.087 2.087 0 0 1-1.041-1.755l1.214-4.932zm-9.073 0h3.312L5.561 5.947a.708.708 0 0 0-.076.313c.001.725-.369 1.398-.976 1.778s-1.367.412-2.004.085a2.084 2.084 0 0 1-1.119-1.689l3.106-5.043zm22.938 21.566a.693.693 0 0 1-.686.696H2.057a.694.694 0 0 1-.686-.696V9.023a3.328 3.328 0 0 0 2.057.716 3.403 3.403 0 0 0 2.75-1.412c.64.888 1.659 1.412 2.743 1.412s2.103-.525 2.743-1.412c.637.887 1.654 1.412 2.736 1.412s2.099-.525 2.736-1.412c.64.888 1.659 1.412 2.743 1.412s2.103-.525 2.743-1.412a3.363 3.363 0 0 0 4.807.703v13.927zM2.743 12.522c0-.384.307-.696.686-.696h5.486c.379 0 .686.311.686.696s-.307.696-.686.696H3.429a.691.691 0 0 1-.686-.696zm0 2.782c0-.384.307-.696.686-.696h8.914c.379 0 .686.311.686.696s-.307.696-.686.696H3.429a.691.691 0 0 1-.686-.696zm0 2.783c0-.384.307-.696.686-.696h8.914c.379 0 .686.312.686.696s-.307.696-.686.696H3.429a.691.691 0 0 1-.686-.696zm13.029 2.783a.691.691 0 0 1-.686.696H3.429c-.379 0-.686-.312-.686-.696s.307-.696.686-.696h11.657c.379 0 .686.312.686.696zm3.643-9.423l-1.412.533 1.649 1.29c.291.237.342.667.114.967s-.65.36-.951.135v-.001l-3.203-2.507c-.3-.226-.723-.166-.951.134s-.178.73.114.968l.923.723-.305 3.08a1.552 1.552 0 0 0 .574 1.375l5.516 4.405a1.086 1.086 0 0 0 1.548-.199l3.551-4.701a1.14 1.14 0 0 0-.194-1.566l-5.516-4.404a1.476 1.476 0 0 0-1.456-.232zm3.857 5.304c.145.111.241.276.265.459s-.023.368-.132.515l-1.046 1.403c-.229.304-.658.363-.959.132s-.361-.666-.135-.972l1.046-1.403a.677.677 0 0 1 .96-.135zm-1.8-.51l-1.047 1.402a.68.68 0 0 1-.962.137.697.697 0 0 1-.131-.977l1.046-1.403a.678.678 0 0 1 .962-.138.703.703 0 0 1 .131.977z" fill="currentColor" class="nc-icon-wrapper"></path></g></svg>