<svg xmlns="http://www.w3.org/2000/svg" viewBox="0 0 32 32"><g fill="currentColor" class="nc-icon-wrapper"><path d="M15.034 18.972c-.718 0-1.514-.326-2.115-.868-.316-.287-.883-.877-1.112-1.606-.236-.746-.063-1.439.501-2.007a.36.36 0 0 1 .496-.022.314.314 0 0 1 .011.467c-1.051 1.058.184 2.333.588 2.698.509.461 1.181.722 1.745.681.389-.026.746-.213.973-.511.404-.498.302-1.044-.348-1.884l-.201-.255c-.591-.744-1.202-1.513-1.003-2.633.07-.42.321-.795.695-1.035.48-.315 1.154-.435 1.807-.322.926.162 1.834.904 2.259 1.844.31.67.315 1.43.016 2.105-.077.165-.282.241-.458.169s-.257-.264-.18-.43c.32-.694.094-1.344-.018-1.591-.333-.737-1.051-1.336-1.747-1.458-.464-.081-.954 0-1.278.215a.894.894 0 0 0-.409.609c-.15.848.325 1.444.875 2.135l.208.261c.334.431 1.221 1.576.34 2.664a2.04 2.04 0 0 1-1.473.766 1.538 1.538 0 0 1-.174.009z"></path><path d="M18.468 13.08c-.14 0-.267-.079-.321-.2s-.025-.262.074-.356l1.236-1.174c.137-.114.344-.109.475.012s.139.315.02.445l-1.236 1.174a.356.356 0 0 1-.247.099z"></path><path d="M11.816 19.387a.355.355 0 0 1-.244-.095.311.311 0 0 1 0-.461l1.283-1.217c.137-.114.344-.109.475.011s.139.315.02.445l-1.283 1.216a.36.36 0 0 1-.25.1z"></path><path d="M14.043 23.836a.36.36 0 0 1-.246-.095l-6.782-6.366a.314.314 0 0 1-.004-.465.364.364 0 0 1 .496.003l6.782 6.366c.099.093.129.233.075.355s-.18.201-.32.202z"></path><path d="M12.715 25.084a.358.358 0 0 1-.245-.095l-6.782-6.366c-.132-.128-.13-.332.004-.457s.351-.127.487-.004l6.779 6.363c.101.093.133.234.079.357s-.181.203-.322.203z"></path><path d="M21.741 32c-.314 0-.625-.059-.914-.174l-6.563-2.597c-.177-.07-.26-.261-.186-.427s.278-.244.455-.174l6.563 2.598a1.79 1.79 0 0 0 1.304 0c.421-.16.757-.471.934-.863l7.775-17.315c.377-.838.235-1.562-.632-3.228l-2.492-4.373c-.048-.076-.062-.168-.036-.254s.087-.158.171-.2c.083-.042.181-.05.272-.023s.164.088.206.168l2.502 4.39c.853 1.639 1.168 2.621.651 3.774l-7.775 17.311c-.188.411-.499.761-.896 1.007s-.862.379-1.338.381z"></path><path d="M12.547 30.009a2.51 2.51 0 0 1-1.726-.663L.697 19.842c-.944-.884-.926-2.338.034-3.239l14.496-13.61c.915-.86 1.721-1.191 4.073-.882l5.57.669c.128.012 1.826.2 2.993 1.296 1.1 1.032 1.283 2.701 1.291 2.771l.567 5.056v.012c.139 1.861.031 2.907-.931 3.81L14.293 29.334a2.531 2.531 0 0 1-1.737.674h-.01zm5.276-27.357c-1.173 0-1.598.326-2.104.803L1.223 17.064c-.689.648-.705 1.687-.033 2.317l10.123 9.503c.672.631 1.812.626 2.491-.01l14.497-13.609c.704-.661.868-1.401.73-3.299l-.566-5.054c0-.017-.17-1.511-1.09-2.376-1.009-.947-2.561-1.109-2.577-1.109h-.009l-5.579-.67a10.86 10.86 0 0 0-1.385-.106z"></path><path d="M22.392 11.394c-.8 0-1.554-.349-2.04-.944s-.651-1.369-.444-2.094c.207-.725.761-1.318 1.5-1.606s1.577-.236 2.27.139c.693.375 1.16 1.031 1.264 1.775s-.166 1.491-.731 2.022a2.64 2.64 0 0 1-1.818.707zm0-4.176c-.627 0-1.213.293-1.561.782s-.414 1.11-.174 1.653c.24.544.753.939 1.368 1.054s1.25-.067 1.693-.483c.352-.33.549-.778.549-1.245s-.198-.915-.549-1.245a1.941 1.941 0 0 0-1.326-.516z"></path><path d="M24.598 9.056c-.745 0-1.373-.217-1.825-.641a2.133 2.133 0 0 1-.641-1.225c-.028-.176.101-.341.288-.369s.365.089.398.265c.046.327.203.631.446.868.495.465 1.334.574 2.359.307 1.095-.286 2.248-.96 3.247-1.897 1.979-1.857 2.754-4.267 1.694-5.263s-3.627-.268-5.606 1.59a8.674 8.674 0 0 0-.512.522c-.124.137-.344.154-.49.037s-.164-.322-.04-.46c.173-.191.358-.379.55-.559C25.548 1.215 26.81.482 28.018.167c1.277-.333 2.356-.165 3.036.474s.86 1.649.505 2.848c-.336 1.135-1.117 2.319-2.2 3.335s-2.344 1.749-3.552 2.064a4.83 4.83 0 0 1-1.21.167z"></path><path d="M24.755 22.755c-.05 0-.1-.011-.146-.031l-1.093-.476c-.174-.076-.25-.27-.17-.433s.287-.235.461-.159l1.093.476c.148.064.229.217.194.366s-.177.256-.34.256z"></path><path d="M23.982 24.361a.346.346 0 0 1-.139-.029l-3.101-1.298c-.176-.074-.254-.267-.176-.431s.284-.239.459-.165l3.101 1.299c.15.062.233.214.199.365s-.174.259-.338.26h-.005z"></path><path d="M23.211 25.966a.346.346 0 0 1-.139-.029l-3.548-1.501c-.087-.034-.156-.099-.191-.181s-.033-.174.006-.255c.039-.081.111-.143.2-.173s.186-.025.271.014l3.548 1.501c.15.063.232.216.197.366s-.176.258-.34.257h-.003z"></path><path d="M22.439 27.572a.36.36 0 0 1-.142-.029l-4.334-1.835c-.173-.075-.248-.267-.171-.43s.281-.236.455-.165l4.338 1.835c.149.063.232.216.197.366s-.177.258-.34.257h-.003z"></path><path d="M19.704 28.346a.36.36 0 0 1-.142-.029l-1.584-.671c-.086-.035-.153-.1-.187-.182s-.031-.173.007-.252c.038-.08.109-.142.197-.172s.184-.026.269.012l1.583.671c.149.063.232.216.197.366s-.176.258-.34.258z"></path></g></svg>