<svg xmlns="http://www.w3.org/2000/svg" viewBox="0 0 48 49"><g fill="none" class="nc-icon-wrapper"><path d="M41.87 28.047a.69.69 0 0 0 .947-.63V2.056A2.054 2.054 0 0 0 40.76 0H2.057A2.054 2.054 0 0 0 0 2.057V40.76c0 1.138.919 2.057 2.057 2.057h25.36c.48 0 .822-.493.63-.946-3.483-8.736 5.13-17.295 13.825-13.825l-.001.001zM25.51 1.372v9.517L21.627 9.6c-.302-.096 0-.137-4.32 1.29V1.371h8.201zM2.056 41.446a.679.679 0 0 1-.685-.685V2.058c0-.384.301-.686.685-.686h13.88c0 11.356-.124 10.74.288 11.027.384.274.205.233 5.184-1.426 5.006 1.673 4.622 1.563 4.787 1.563a.679.679 0 0 0 .685-.685V1.372h13.88c.384 0 .686.302.686.686v24.384C32.272 23.59 23.59 32.23 26.443 41.446H2.057z" fill="currentColor"></path><path d="M14.345 35.069H6.158c-.755 0-1.372.617-1.372 1.371v1.81c0 .755.617 1.372 1.372 1.372h8.187c.755 0 1.372-.617 1.372-1.371v-1.81c0-.755-.617-1.372-1.372-1.372zm0 3.181H6.158v-1.81h8.187v1.81z" fill="currentColor"></path><path d="M38.249 28.5c-5.376 0-9.751 4.375-9.751 9.75 0 5.377 4.375 9.752 9.75 9.752 5.377 0 9.752-4.375 9.752-9.751 0-5.376-4.375-9.751-9.751-9.751zm0 18.13c-4.622 0-8.38-3.757-8.38-8.38 0-4.621 3.758-8.38 8.38-8.38 4.622 0 8.38 3.758 8.38 8.38 0 4.622-3.758 8.38-8.38 8.38z" fill="currentColor"></path><path d="M38.249 31.092a7.164 7.164 0 0 0-7.159 7.159c0 3.95 3.21 7.159 7.159 7.159 3.95 0 7.159-3.21 7.159-7.16s-3.21-7.158-7.16-7.158zm0 12.946a5.789 5.789 0 0 1 0-11.575 5.789 5.789 0 0 1 0 11.575z" fill="currentColor"></path><path d="M42.09 34.958a.695.695 0 0 0-.96.138l-3.635 4.855-2.181-2.181a.68.68 0 0 0-.974 0 .68.68 0 0 0 0 .974c3.004 3.004 2.852 2.976 3.278 2.949.425-.028.164.178 4.608-5.76a.683.683 0 0 0-.137-.96v-.015z" fill="currentColor"></path><path d="M2.632 7.159v5.184c0 .85 1.289.864 1.289 0V7.16c0-.85-1.289-.864-1.289 0z" fill="currentColor"></path><path d="M2.632 3.277v1.29c0 .85 1.289.863 1.289 0v-1.29c0-.85-1.289-.864-1.289 0z" fill="currentColor"></path></g></svg>