<svg xmlns="http://www.w3.org/2000/svg" viewBox="0 0 29 32"><g fill="currentColor" class="nc-icon-wrapper"><path d="M28.757 28.982l-3.214-18.355c-.41-2.305-2.757-2.632-2.757-2.632 1.203-.89 2.211-2.462 0-2.462h-2.185C20.183 2.414 17.565 0 14.4 0S8.618 2.414 8.202 5.533H6.017c-2.211 0-1.203 1.572 0 2.462 0 0-2.346.327-2.757 2.632L.045 28.982c-.138.779.052 1.553.515 2.122.466.57 1.178.896 1.952.896h23.779c.774 0 1.486-.326 1.951-.896.464-.569.653-1.342.516-2.122zM14.399 1.096c2.429 0 4.468 1.715 5.033 4.021-1.143-1.577-2.969-2.605-5.033-2.605-2.061 0-3.889 1.027-5.031 2.605.565-2.306 2.604-4.021 5.031-4.021zM18.4 5.533h-8c.954-1.176 2.392-1.926 3.999-1.926 1.609 0 3.047.75 4.001 1.926zm8.743 24.635c-.197.239-.499.371-.854.371H2.511c-.355 0-.657-.132-.854-.371-.195-.24-.268-.568-.205-.926l3.289-18.615h3.396v1.859a1.525 1.525 0 0 0-.958 1.421c0 .843.669 1.526 1.494 1.526s1.493-.684 1.493-1.526c0-.649-.398-1.2-.958-1.421v-1.859h10.384v1.859c-.56.221-.958.771-.958 1.421 0 .843.668 1.526 1.493 1.526s1.494-.684 1.494-1.526c0-.649-.399-1.2-.958-1.421v-1.859h3.396l3.289 18.615c.065.358-.009.686-.204.926z"></path><path d="M11.951 21.229a1.399 1.399 0 0 1-.654-1.842c.135-.297.363-.516.629-.65-.262-.466-.307-1.162-.107-1.66l.025-.066-1.135.264c-.324.075-.702.389-.843.695l-3.14 6.887a.622.622 0 0 0 .29.818l4.777 2.277a.6.6 0 0 0 .801-.299l1.95-4.275-1.272-2.253c-.38.256-.877.315-1.321.104z"></path><path d="M21.792 21.695l-3.715-6.581c-.153-.272-.511-.522-.826-.595a7.19 7.19 0 0 0 .007-3.203h-.924a6.347 6.347 0 0 1 .029 3.067l-2.051-.288c-.328-.045-.699.174-.825.487l-1.092 2.737c-.127.314-.094.811.073 1.104l3.717 6.58a.597.597 0 0 0 .823.227l4.564-2.693a.623.623 0 0 0 .22-.842zm-5.516-3.146a1.342 1.342 0 0 1-1.852-.508 1.404 1.404 0 0 1 .496-1.895c.256-.15.538-.203.81-.175a4.632 4.632 0 0 1-.504.728.466.466 0 0 0 .022.645.441.441 0 0 0 .631-.022c.036-.039.336-.377.663-.961.086.086.166.182.229.293a1.403 1.403 0 0 1-.495 1.895z"></path></g></svg>