<svg xmlns="http://www.w3.org/2000/svg" viewBox="0 0 31 32"><g fill="currentColor" class="nc-icon-wrapper"><path d="M5.477 2.505a.399.399 0 0 0-.597 0c-3.031 3.178-3.378 8.232-.799 11.839l2.104 2.941a40.828 40.828 0 0 0 7.959 8.347l2.805 2.206c3.398 2.672 8.145 2.324 11.158-.836a.57.57 0 0 0 0-.766l-4.715-4.944a.551.551 0 0 0-.819 0l-1.818 1.907a2.089 2.089 0 0 1-2.489.417c-4.457-2.337-8.062-6.122-10.282-10.778a2.222 2.222 0 0 1 .39-2.483l1.818-1.907a.741.741 0 0 0 0-.999L5.477 2.505zM3.181.863a2.742 2.742 0 0 1 3.994 0l4.715 4.944a3.122 3.122 0 0 1 0 4.282l-1.736 1.821c1.98 4.101 5.145 7.429 9.03 9.513l1.69-1.773a2.894 2.894 0 0 1 4.216 0l4.715 4.944a2.953 2.953 0 0 1 0 4.049c-3.842 4.029-9.948 4.49-14.306 1.062l-2.805-2.206a43.17 43.17 0 0 1-8.42-8.83L2.17 15.728C-1.068 11.201-.643 4.874 3.181.863z"></path></g></svg>