<svg xmlns="http://www.w3.org/2000/svg" viewBox="0 0 32 32"><g fill="currentColor" class="nc-icon-wrapper"><path d="M27.881 12.78a8.624 8.624 0 0 0-2.656-.984l-.055-.009c-.312-.218-.179-.568-.21-.876a4.32 4.32 0 0 0 .57-.422 3.51 3.51 0 0 0 1.146-2.174l.002-.018c.486-.098.847-.522.847-1.03v-.006l-.003-1.28c0-.134-.026-.262-.073-.379l.002.007a.982.982 0 0 0 .035-.262V3.425c0-.774-.611-1.408-1.377-1.448A1.451 1.451 0 0 0 24.663.638h-3.188a3.02 3.02 0 0 0-3.018 3.013c.003 1.778-.005 1.687.005 1.793-.189.23-.294.518-.294.824v.773c0 .652.483 1.193 1.108 1.288a3.52 3.52 0 0 0 1.445 2.402l.011.007c-.038.457.114.822-.211 1.047a8.106 8.106 0 0 0-.847.205 1.452 1.452 0 0 0-1.018-.498h-.004a1.454 1.454 0 0 0-1.448-1.339h-3.186c-1.26 0-2.341.776-2.793 1.873a7.398 7.398 0 0 0-.917-.233l-.051-.008c-.305-.212-.184-.563-.211-.797a4.32 4.32 0 0 0 .57-.422 3.51 3.51 0 0 0 1.146-2.174l.002-.018c.486-.098.847-.522.847-1.03v-.006c-.005-1.338-.006-1.356-.004-4.116a1.233 1.233 0 0 0-1.234-1.231.333.333 0 0 1-.312-.217l-.001-.002-.088-.243a1.241 1.241 0 0 0-1.16-.813H4.276a1.023 1.023 0 0 0-1.021 1.02v.86c0 .818.424 1.539 1.062 1.956-.001.145.001.315.001.512a1.306 1.306 0 0 0-1.064 1.281v.773c0 .652.483 1.193 1.108 1.288a3.525 3.525 0 0 0 1.445 2.402l.011.007c-.035.387.109.748-.21.97a8.917 8.917 0 0 0-2.145.695l.054-.023a.451.451 0 1 0 .383.815l-.002.001a7.955 7.955 0 0 1 1.598-.549l.056-.011c1.158 1.618 3.598 1.624 4.759 0 .173.038.416.099.699.188a3 3 0 0 0-.012.262v1.694c0 .033.003.067.005.1-.189.23-.294.518-.294.824v.773c0 .652.483 1.193 1.108 1.288a3.52 3.52 0 0 0 1.445 2.402l.011.007c-.032.489.092.78-.163 1.009a1.147 1.147 0 0 0-.67.088l.007-.003c-1.093.526-3.062 1.011-4.246 2.989H3.919v-5.078a.452.452 0 0 0-.901-.002v.002l-.003 5.078H1.93a1.002 1.002 0 0 1-1.002-1.001v-5.788c0-1.257.442-2.322 1.311-3.163a.45.45 0 1 0-.627-.646C.56 14.754.027 16.035.027 17.545v5.788c0 1.048.854 1.901 1.905 1.901H7.78a5.397 5.397 0 0 0-.297 1.783v.045-.002 2.632c0 .919.749 1.668 1.67 1.668h12.471c.92 0 1.67-.748 1.67-1.668v-1.115a.452.452 0 0 0-.901-.002v1.117a.768.768 0 0 1-.768.767h-.988v-1.686a.452.452 0 1 0-.904 0v1.687h-8.355v-1.686a.454.454 0 0 0-.904-.001v1.689h-1.32a.768.768 0 0 1-.768-.767v-2.632c0-2.02 1.138-3.425 2.989-4.28a.96.96 0 0 0 .227.364l1.569 1.569a.986.986 0 0 0 1.329.049l-.001.001.893-.748.893.748a.985.985 0 0 0 1.326-.05l1.569-1.569c.1-.1.178-.223.226-.359l.002-.007c2.208 1.005 2.839 2.568 2.961 3.761a.453.453 0 0 0 .449.404l.047-.002h-.002a.45.45 0 0 0 .402-.496v.002a5.173 5.173 0 0 0-.28-1.247l.011.036h5.851c1.05 0 1.905-.852 1.905-1.901V17.55c0-2.036-.993-3.684-2.871-4.767zM4.161 2.598v-.86a.12.12 0 0 1 .12-.12h5.536c.143 0 .264.09.312.217l.001.002c.028.041.228 1.056 1.248 1.056a.334.334 0 0 1 .332.331v2.39a1.094 1.094 0 0 1-.748-.541l-.003-.006c-.347-.62-1-1.033-1.75-1.033h-3.61A1.439 1.439 0 0 1 4.16 2.598zm2.217 9.705c.396-.448.343-.969.348-.996.397.158.857.249 1.338.249.387 0 .761-.059 1.112-.169l-.026.007c.003.342.129.662.348.909-.376.447-.935.728-1.56.728s-1.184-.282-1.557-.725l-.003-.003zm-.253-2.396a2.643 2.643 0 0 1-.888-1.944v-.002a.45.45 0 0 0-.45-.439h-.22a.404.404 0 0 1-.403-.402v-.773c0-.223.18-.403.403-.403h.213a.449.449 0 0 0 .449-.449v-.003l-.003-.589c.122.019.247.031.375.031h3.608a1.1 1.1 0 0 1 .961.567c.317.576.896.954 1.542 1.02l.001.822c0 .083-.064.151-.142.151l-.225.001a.45.45 0 0 0-.449.442 2.643 2.643 0 0 1-.871 1.951l-.002.002c-1.147 1.006-2.725 1.029-3.899.017zM19.36 3.653c0-1.165.95-2.113 2.116-2.113h3.186a.55.55 0 0 1 .55.55v.001a.788.788 0 0 0 .787.786h.034a.55.55 0 0 1 .55.549v1.92a.133.133 0 0 1-.061.112c-.595-.06-.594-.687-.596-.694-.032-1.093-1.34-1.633-2.14-.89-.78.724-2.006 1.587-3.42 1.587h-.938a.137.137 0 0 1-.068-.116V3.651zm.786 4.231a.45.45 0 0 0-.45-.439h-.22a.404.404 0 0 1-.403-.402V6.29c.079.04.172.067.271.073h1.025c1.352 0 2.747-.632 4.035-1.828.23-.214.616-.064.625.257l.001.028c.017.85.717 1.542 1.562 1.542h.014l.019-.001.003.905c0 .083-.064.151-.142.151l-.224.001a.45.45 0 0 0-.449.442 2.643 2.643 0 0 1-.871 1.951l-.002.002c-1.17 1.028-2.748 1.01-3.899.017a2.643 2.643 0 0 1-.888-1.944v-.002zm4.301 4.464c-.708 1.192-2.493 1.189-3.201 0 .475-.493.375-1.036.389-1.116.397.158.857.249 1.338.249.387 0 .761-.059 1.112-.169l-.026.007c.006.032-.056.568.389 1.03zm-12.542.819c0-1.165.95-2.112 2.116-2.112h3.186a.55.55 0 0 1 .55.549c0 .434.353.787.788.787h.033a.55.55 0 0 1 .55.548v1.921a.132.132 0 0 1-.09.125h-.001l-.484.169.001-1.037c.004-1-.932-1.798-2.153-1.407a3.054 3.054 0 0 1-1.792-.006l.022.006c-1.224-.393-2.158.416-2.153 1.405l.001 1.038-.485-.169a.137.137 0 0 1-.091-.127v-1.694zm.786 4.231a.45.45 0 0 0-.45-.439h-.219a.404.404 0 0 1-.403-.402v-.753c.078.035.065.026.716.252a.79.79 0 0 0 1.051-.746l-.001-1.196c-.001-.438.387-.735.977-.545a3.99 3.99 0 0 0 2.35-.007l-.028.008c.579-.186.978.105.977.548l-.001 1.194a.79.79 0 0 0 1.056.744l-.006.002.462-.161.003.883c0 .083-.064.151-.142.151l-.225.001a.45.45 0 0 0-.449.442 2.643 2.643 0 0 1-.871 1.951l-.002.002c-1.139 1-2.717 1.037-3.899.017a2.643 2.643 0 0 1-.888-1.944v-.002zm1.229 6.675a.088.088 0 0 1-.118-.003l-1.56-1.56a.054.054 0 0 1-.017-.038c0-.022.014-.041.033-.049l.564-.253a.254.254 0 0 1 .251.026h-.001l1.603 1.247-.755.631zm-.003-2.362c.323-.448.252-.891.262-.965.397.158.857.249 1.338.249.387 0 .761-.059 1.112-.169l-.026.007c.005.033-.042.456.262.879l-1.473 1.147-1.475-1.147zm4.625.798l-1.56 1.56a.088.088 0 0 1-.061.024.094.094 0 0 1-.057-.02l-.755-.632 1.603-1.247a.25.25 0 0 1 .25-.026l.564.253a.054.054 0 0 1 .032.049.053.053 0 0 1-.016.038zm11.309.827a1.002 1.002 0 0 1-1.002 1.001h-.754v-5.078a.452.452 0 0 0-.901-.002v1.574a4.444 4.444 0 0 0-.003.043v3.461h-4.613c-1.064-1.778-2.762-2.342-4.246-2.989a1.125 1.125 0 0 0-.67-.084l.007-.001c-.246-.221-.136-.499-.163-.837a4.32 4.32 0 0 0 .57-.422 3.51 3.51 0 0 0 1.146-2.174l.002-.017c.486-.098.847-.522.847-1.03v-.006l-.003-1.279c0-.134-.026-.262-.073-.379l.002.007a.982.982 0 0 0 .035-.262v-1.928c0-.038-.002-.075-.006-.112v.005c.152-.044.288-.077.398-.101 1.039 1.889 3.804 1.892 4.845 0a7.983 7.983 0 0 1 2.162.835c1.605.925 2.419 2.267 2.419 3.987v5.788z" fill="currentColor" class="nc-icon-wrapper"></path></g></svg>