<svg xmlns="http://www.w3.org/2000/svg" viewBox="0 0 27 32"><g fill="currentColor" class="nc-icon-wrapper"><path d="M17.97 8.162h-.242c-1.289 0-2.377.992-2.377 2.25l.806 21.206c0 .191.202.382.403.382h9.308c.202 0 .403-.152.403-.382l.806-21.206c0-1.221-1.047-2.25-2.377-2.25-.685 0-1.249-.534-1.249-1.182V3.7c.483-.038.886-.42.886-.877V.878c0-.496-.403-.877-.927-.877h-3.908c-.524 0-.927.382-.927.877v1.945c0 .382.282.725.645.839V6.98c0 .648-.565 1.182-1.25 1.182zm7.737 17.316h-8.945l-.121-3.128h9.187l-.121 3.128zm-8.744 5.721l-.201-4.996h8.905l-.202 4.996h-8.502zm7.736-22.274c.846 0 1.571.648 1.571 1.449l-.403 11.175H16.6l-.403-11.175c0-.801.685-1.488 1.571-1.488h.202c1.128 0 2.055-.877 2.055-1.945v-3.28h2.619v3.28c.001 1.106.927 1.983 2.055 1.983zM19.381.839c0-.076.04-.114.121-.114h3.908c.081 0 .121.038.121.114v1.945c0 .076-.04.114-.121.114h-3.908c-.081 0-.121-.038-.121-.114V.839z"></path><path d="M1.45 12.014c.604.458 1.37.686 2.176.686.322 0 .645-.038 1.007-.114.242 1.297.322 2.823-.04 4.348-.161.648-.363 1.297-.564 1.945-.725 2.365-1.451 4.844-.242 6.408.766.953 2.136 1.411 4.231 1.487v4.463H5.842c-.242 0-.403.152-.403.382s.161.382.403.382h5.198c.242 0 .403-.152.403-.382s-.161-.382-.403-.382H8.864v-4.462c1.974-.076 3.304-.534 4.029-1.449 1.29-1.602.524-4.119-.161-6.598-.161-.572-.322-1.182-.483-1.755-.967-3.662.806-7.438.806-7.476.04-.114.04-.267-.04-.382s-.202-.191-.322-.191H7.656c-.161-1.869-1.813-3.356-3.828-3.356C1.733 5.568 0 7.208 0 9.191c.04 1.144.564 2.174 1.45 2.822zm10.759 12.854c-.645.801-1.894 1.182-3.828 1.182h-.04c-2.015 0-3.304-.382-3.949-1.182-1.007-1.259-.322-3.509.363-5.721.202-.648.403-1.335.564-1.983.282-1.144.322-2.327.242-3.356.242.114.564.152.967.152.927 0 1.41-.382 1.854-.686.403-.305.725-.534 1.37-.534s.967.229 1.37.534l.04.038c-.121 1.182-.121 2.517.202 3.852.161.572.322 1.182.483 1.793.685 2.251 1.37 4.615.363 5.912zm-.887-12.434c-.363-.267-.846-.458-1.531-.458-.927 0-1.41.381-1.854.686-.403.305-.725.534-1.37.534-.483 0-.766-.114-1.088-.343-.202-1.373-.604-2.479-.846-3.128h7.455a20.199 20.199 0 0 0-.766 2.708zM3.868 6.369c1.571 0 2.861 1.144 3.022 2.593H4.07c-.121 0-.282.076-.322.191-.081.114-.081.229-.04.382 0 0 .443.954.806 2.365-1.209.267-2.055-.076-2.539-.42C1.29 10.984.887 10.145.887 9.306c-.04-1.64 1.29-2.937 2.982-2.937z"></path><path d="M2.901 9.23c0-.229-.161-.382-.403-.382h-.846c-.242 0-.403.152-.403.382s.161.382.403.382h.846c.202 0 .403-.153.403-.382z"></path><path d="M3.868 8.314c.242 0 .403-.152.403-.381v-.801c0-.229-.161-.382-.403-.382s-.403.152-.403.382v.801c0 .229.161.381.403.381z"></path><path d="M2.619 9.878l-.605.572a.356.356 0 0 0 0 .534c.081.076.202.114.282.114s.202-.038.282-.114l.604-.572c.161-.152.161-.382 0-.534s-.403-.152-.564 0z"></path><path d="M4.835 8.696a.375.375 0 0 0 .282-.114l.604-.572c.161-.152.161-.381 0-.534s-.403-.152-.564 0l-.604.572a.356.356 0 0 0 0 .534.377.377 0 0 0 .282.114z"></path><path d="M2.619 8.581c.081.076.202.114.282.114s.202-.038.282-.114a.356.356 0 0 0 0-.534l-.604-.572c-.161-.152-.403-.152-.564 0s-.161.381 0 .534l.604.572z"></path><path d="M10.516 19.833a.733.733 0 0 0-1.007 0l-1.048.992c-.121.114-.202.305-.202.496s.081.343.202.496l1.007.954c.121.114.322.191.524.191s.363-.076.524-.191l1.007-.954c.121-.114.202-.305.202-.496s-.081-.343-.202-.496l-1.008-.992zm-.524 2.289l-.886-.839.886-.839.886.839-.886.839z"></path><path d="M8.139 22.694c-.04-.191-.121-.343-.282-.458s-.363-.152-.524-.114l-1.41.191c-.202.038-.363.114-.483.267s-.161.343-.121.496l.202 1.335c.04.191.121.343.282.458.121.076.282.152.443.152h.121l1.41-.191c.403-.038.685-.381.604-.763l-.242-1.373zm-1.854 1.525l-.161-1.182 1.249-.152.161 1.182-1.249.152z"></path><path d="M6.165 19.871c.121.267.403.42.685.42.081 0 .202 0 .282-.038l1.33-.534c.161-.076.322-.191.403-.382.081-.152.081-.343 0-.534l-.564-1.259a.774.774 0 0 0-.403-.382.724.724 0 0 0-.564 0l-1.33.534a.695.695 0 0 0-.403.877l.564 1.297zm1.37-1.907l.483 1.106-1.169.458-.483-1.106 1.169-.458z"></path></g></svg>