<svg xmlns="http://www.w3.org/2000/svg" viewBox="0 0 32 32"><g fill="currentColor" class="nc-icon-wrapper"><path d="M19.68 3.768a1.088 1.088 0 0 0-1.542 0L3.769 18.137a1.088 1.088 0 0 0 0 1.542l1.554 1.554a4 4 0 0 1 5.433 5.463l.01-.02 1.554 1.554a1.088 1.088 0 0 0 1.542 0l14.369-14.369a1.088 1.088 0 0 0 0-1.542l-1.554-1.554a4 4 0 0 1-5.433-5.463l-.01.02-1.554-1.554zm-3.085-1.542c.592-.592 1.41-.959 2.314-.959s1.722.366 2.314.959l1.704 1.704c.743.743.61 1.786.235 2.416a1.818 1.818 0 0 0 2.499 2.486l-.008.005c.63-.375 1.673-.508 2.416.235l1.704 1.704c.592.592.959 1.41.959 2.314s-.366 1.722-.959 2.314L15.404 29.773c-.592.592-1.41.959-2.314.959s-1.722-.366-2.314-.959l-1.704-1.704c-.743-.743-.61-1.786-.235-2.416a1.818 1.818 0 0 0-2.5-2.486l.008-.005c-.63.375-1.673.508-2.416-.235l-1.704-1.704c-.592-.592-.959-1.41-.959-2.314s.366-1.722.959-2.314L16.594 2.226z" fill="currentColor" class="nc-icon-wrapper"></path></g></svg>