<svg xmlns="http://www.w3.org/2000/svg" viewBox="0 0 30 32"><g fill="currentColor" class="nc-icon-wrapper"><path d="M4.923 9.466C4.923 11.077 0 10.697 0 15.62v13.919A2.469 2.469 0 0 0 2.472 32h12.287a2.47 2.47 0 0 0 2.472-2.461V15.62c0-4.923-4.923-4.543-4.923-6.154V4.923h.626c.334 0 .604-.28.604-.627V.627A.622.622 0 0 0 12.934 0H4.297a.615.615 0 0 0-.604.627v3.669c0 .346.28.627.604.627h.627v4.543zm6.154-4.543v4.308c0 3.327 4.923 1.968 4.923 6.277v14.033c0 .679-.561 1.229-1.225 1.229H2.456a1.23 1.23 0 0 1-1.225-1.229V15.508c0-4.307 4.923-2.953 4.923-6.277V4.923h4.923zM4.296 17.231a.615.615 0 0 0-.604.627v3.669c0 .346.28.627.604.627h8.637c.334 0 .604-.28.604-.627v-3.669a.622.622 0 0 0-.604-.627H4.296zm8.011-13.539H4.922V1.231h7.385v2.461zm0 17.231H4.922v-2.462h7.385v2.462z"></path><path d="M24.615 30.769v-6.156a4.93 4.93 0 0 0 4.923-4.922v-4.922H18.461v4.922a4.926 4.926 0 0 0 4.923 4.922v6.156h-1.849a.608.608 0 0 0-.613.615c0 .33.274.616.613.616h4.928a.609.609 0 0 0 .613-.616.62.62 0 0 0-.613-.615h-1.849zm-4.923-11.078V16h8.615v3.691a3.699 3.699 0 0 1-3.704 3.691h-1.208a3.7 3.7 0 0 1-3.704-3.691z"></path></g></svg>