<svg xmlns="http://www.w3.org/2000/svg" viewBox="0 0 32 32"><g fill="currentColor" class="nc-icon-wrapper"><path d="M11.468 19.334h-.551v-2.737c.001-1.268-.468-2.484-1.304-3.38s-1.97-1.401-3.153-1.401-2.317.504-3.153 1.401-1.305 2.113-1.304 3.38v2.737h-.551c-.385 0-.754.164-1.026.456s-.425.687-.426 1.1v9.555c.001.412.153.808.426 1.099S1.067 32 1.452 32H11.47c.385 0 .754-.164 1.026-.456s.425-.687.425-1.099V20.89c0-.413-.153-.808-.426-1.1s-.641-.456-1.026-.456zm-8.563-2.737c-.001-1.011.373-1.982 1.04-2.697s1.572-1.118 2.515-1.118c.944 0 1.849.402 2.516 1.118s1.041 1.686 1.04 2.697v2.737H2.905v-2.737zm9.114 13.847c0 .325-.246.589-.55.589H1.451c-.304 0-.55-.264-.55-.589v-9.555c.001-.326.247-.59.551-.59h10.015c.304 0 .55.264.551.59v9.555zm-5.108-5.368v2.147c0 .267-.202.483-.451.483s-.451-.216-.451-.483v-2.147c0-.267.202-.483.451-.483s.451.216.451.483zM31.097 4.478l.002-.01V2.416c0-.714-.295-1.391-.805-1.85s-1.183-.653-1.839-.529L8.608 4.024c-.005.001-.009.005-.013.006-.515.105-.981.399-1.315.831s-.519.977-.52 1.539v3.623c0 .267.202.483.451.483s.451-.216.451-.483V6.4c.001-.384.143-.752.396-1.024s.597-.424.956-.425h20.733c.358.001.702.153.956.425s.396.64.396 1.024v4.094a6.068 6.068 0 0 1-3.606 1.22h-2.704c-.249 0-.451.216-.451.483v5.797c0 .128.047.251.132.341s.199.142.319.142h2.704a6.895 6.895 0 0 0 3.606-1.044v4.908c-.001.384-.143.752-.396 1.024s-.597.425-.956.425H14.764c-.249 0-.451.216-.451.483s.202.483.451.483h14.983c.597-.001 1.17-.255 1.593-.708s.66-1.067.661-1.707V6.401a2.467 2.467 0 0 0-.904-1.922h.001zm-17.399-.494L28.615.987c.393-.073.796.044 1.102.319s.481.681.481 1.109v1.618a2.134 2.134 0 0 0-.451-.049H13.698zm13.795 13.525h-2.254v-4.83h2.254a6.89 6.89 0 0 0 3.606-1.037v4.654a6.063 6.063 0 0 1-3.606 1.213zm-.451-3.381v1.932c0 .267-.202.483-.451.483s-.451-.216-.451-.483v-1.932c0-.267.202-.483.451-.483s.451.216.451.483z" fill="currentColor" class="nc-icon-wrapper"></path></g></svg>