<svg xmlns="http://www.w3.org/2000/svg" viewBox="0 0 31 32"><g fill="currentColor" class="nc-icon-wrapper"><path d="M1.567 32h9.908a.525.525 0 0 0 .521-.485l1.043-11.733c.013-.15-.036-.298-.135-.409s-.24-.174-.387-.173H.523c-.147-.001-.287.062-.387.173s-.148.259-.135.409l1.043 11.733a.527.527 0 0 0 .521.485zm9.431-1.067H2.043l-.095-1.067h9.146l-.095 1.067zm.19-2.133H1.853l-.474-5.333h2.687l-1.629.96c-.121.07-.209.187-.245.324s-.017.283.052.407l1.304 2.309a.515.515 0 0 0 .712.195l2.258-1.333c.12-.071.208-.187.244-.323s.018-.282-.051-.405l-1.204-2.133h1.029l-.249.758c-.044.134-.034.281.027.407s.17.223.301.268l2.471.849c.131.045.274.035.399-.028s.218-.174.262-.308l.64-1.947h1.275l-.474 5.333zm-6.423-4.514l.782 1.387-1.356.8-.782-1.387 1.356-.8zm2.677-.227l.195-.592h1.65l-.365 1.102-1.48-.51zm4.504-3.792l-.189 2.133h-1.265a.506.506 0 0 0-.242-.189l-2.471-.85a.519.519 0 0 0-.66.336l-.233.703H1.285l-.187-2.133h10.849z"></path><path d="M25.241 4.118c.322-.189.52-.539.521-.918V1.067c0-.283-.11-.554-.305-.754s-.461-.312-.737-.312h-5.215c-.277 0-.542.112-.738.312s-.305.471-.305.754V3.2c.002.379.2.729.521.918v4.587l-3.923 1.569c-.417.165-.772.464-1.009.852s-.346.844-.31 1.301l1.351 17.482c.044.565.305 1.089.727 1.457s.969.548 1.522.502l4.772-.401 5.058.405a2.062 2.062 0 0 0 1.578-.561c.385-.364.622-.862.664-1.396l1.194-15.473.156-1.994c.034-.462-.079-.924-.323-1.315s-.605-.69-1.03-.853l-4.17-1.584V4.119zm-5.736-3.051h5.215V3.2h-5.215V1.067zm4.693 3.2v1.6h-4.172v-1.6h4.172zm4.175 25.564c-.023.281-.153.542-.363.726s-.482.275-.758.254l-5.098-.41h-.083l-4.816.403c-.276.023-.55-.068-.76-.251s-.341-.446-.363-.728l-.079-1.023h12.402l-.081 1.03zm.163-2.097H15.969l-.988-12.8h14.543l-.987 12.8zm.512-16.455c.212.081.394.23.516.426s.179.426.162.658l-.119 1.504H14.902l-.118-1.524c-.019-.229.036-.457.155-.651s.296-.344.506-.426L19.7 9.565a.532.532 0 0 0 .328-.497V6.935H24.2v2.133c0 .223.136.423.34.5l4.51 1.712z"></path><path d="M22.112 22.4c.83 0 1.626-.337 2.213-.937s.916-1.414.916-2.263-.33-1.663-.916-2.263c-.587-.6-1.383-.937-2.213-.937s-1.626.337-2.212.937c-.587.6-.916 1.414-.916 2.263s.331 1.662.917 2.262c.587.6 1.382.937 2.212.938zm0-5.333c.553 0 1.084.225 1.475.625s.611.943.611 1.509-.22 1.108-.611 1.509c-.391.4-.922.625-1.475.625s-1.084-.225-1.475-.625-.611-.943-.611-1.509.22-1.108.611-1.509c.391-.4.922-.625 1.475-.625z"></path><path d="M18.253 26.667h7.822c.138 0 .271-.056.369-.156s.153-.236.153-.377v-2.133c0-.141-.055-.277-.153-.377s-.23-.156-.369-.156h-7.822a.527.527 0 0 0-.521.533v2.133c0 .141.055.277.153.377s.231.156.369.156zm.522-2.134h6.779V25.6h-6.779v-1.067z"></path></g></svg>