<svg xmlns="http://www.w3.org/2000/svg" viewBox="0 0 25 32"><g fill="currentColor" class="nc-icon-wrapper"><path d="M7.44 5.008V1.067c.316 0 .572-.239.572-.533S7.756.001 7.44.001H3.434c-.316 0-.572.239-.572.533s.256.533.572.533v3.941c-.001 1.459-.561 2.87-1.579 3.979C.659 10.288.001 11.945.001 13.659v17.808c0 .141.06.277.168.377S.422 32 .574 32h9.729c.152 0 .297-.056.405-.156s.168-.236.168-.377V13.659c-.001-1.713-.658-3.37-1.854-4.672-1.018-1.108-1.578-2.519-1.579-3.979zm-2.861.325h1.717c.036.832.23 1.652.572 2.421l-.12.117c-.375.352-.891.54-1.422.52s-1.029-.248-1.371-.627a6.74 6.74 0 0 0 .624-2.432zm1.716-4.266v3.2H4.578v-3.2h1.717zm-5.15 15.467h5.151v12.267H1.145V16.534zm8.584 14.4H1.144v-1.067h5.723c.152 0 .297-.056.405-.156s.168-.236.168-.377V16c0-.141-.06-.277-.168-.377s-.253-.156-.405-.156H1.144v-1.808c.001-1.459.561-2.87 1.579-3.979.262-.284.499-.587.71-.907.498.398 1.12.635 1.774.677h.217c.742.003 1.46-.25 2.015-.709.215.33.459.644.727.939 1.012 1.111 1.566 2.521 1.562 3.979v17.275z"></path><path d="M22.893 30.934h-3.434v-5.899c1.454-.125 2.801-.767 3.76-1.793s1.457-2.357 1.391-3.717l-1.013-8.384c-.032-.271-.279-.476-.572-.475H14.75c-.293-.002-.54.203-.572.475l-1.013 8.416c-.056 1.353.447 2.676 1.405 3.695s2.299 1.657 3.746 1.783v5.899h-3.434c-.316 0-.572.239-.572.533s.256.533.572.533h8.012c.316 0 .572-.239.572-.533s-.256-.533-.572-.533zm-7.635-19.201h7.257l.767 6.4h-8.791l.767-6.4zm-.95 7.91l.057-.443h9.048l.046.411c.038.917-.247 1.821-.811 2.574s-1.377 1.313-2.314 1.596a4.961 4.961 0 0 1-2.896 0c-.933-.28-1.742-.836-2.307-1.582s-.854-1.644-.824-2.556z"></path></g></svg>