<svg xmlns="http://www.w3.org/2000/svg" viewBox="0 0 14 32"><g fill="currentColor" class="nc-icon-wrapper"><path d="M8.343 18.262c-.916 1.934-2.917 2.646-3.222 4.818-.305 2.341-.678 5.089.17 7.328.034.136.237.068.203-.068-.814-2.103-.678-5.361-.136-7.532.475-1.764 2.306-2.782 2.984-4.546.034 0 0-.034 0 0z"></path><path d="M5.562 30.51c.068.271.407.339.644.407.271.068.543.136.848.17.237.068.95.102 1.051.373.068.136.271.068.237-.068-.136-.373-.509-.373-.848-.441-.271-.068-.543-.102-.848-.17-.271-.068-.848-.068-1.017-.271-.034-.034-.068-.034-.068 0z"></path><path d="M.373 17.515c.203 2.205 2.103 2.748 3.018 4.512.678 1.255.61 2.952.644 4.377.034 1.323.271 3.393-1.085 4.241-.102.068 0 .271.102.17 1.73-1.154 1.153-4.309 1.051-6.005-.068-.984-.034-2.171-.543-3.054C2.577 20.094.745 19.72.372 17.515z"></path><path d="M.712 17.346c1.255-.034 2.476-.102 3.73-.068 1.255 0 2.577.271 3.798.204-.102 0-.068.136 0 .136h.068c.034 0 .068-.034.068-.068s.034-.068.034-.102c0-.034 0-.068-.034-.102-.848-.407-2.17-.238-3.086-.238-1.526-.034-3.052-.034-4.578.17-.034.034-.034.068 0 .068z"></path><path d="M3.968 29.356c0 .373.407.509.678.305.543-.373.17-1.187.339-1.73 0-.068-.068-.068-.102-.034-.068.271-.034.509-.034.78 0 .237 0 .441-.102.678-.17.271-.644.407-.746-.034.034 0-.034 0-.034.034z"></path><path d="M1.153 10.289c-.339.034-.271 0-.441.271-.034.034 0 .102.068.102 2.34.238 4.68.271 7.02.034.102 0 .102-.17 0-.136-1.187.136-2.34.238-3.527.204-.543 0-1.085-.034-1.628-.034a6.57 6.57 0 0 1-.814-.068c-.373.102-.61-.034-.678-.373.034 0 0-.034 0 0z"></path><path d="M7.495 10.289c.203.034.373.068.407.305l.068-.068h-.136c-.102 0-.102.17 0 .17h.136a.073.073 0 0 0 .068-.068c-.034-.238-.339-.543-.577-.339 0-.034.034 0 .034 0z"></path><path d="M10.208.382v1.255c0 .102.136.136.17.034 0-.034.034-.068.034-.136.034-.102-.136-.136-.17-.034 0 .034-.034.068-.034.102.068 0 .102 0 .17.034A15.516 15.516 0 0 1 10.31.382c0-.068-.102-.068-.102 0z"></path><path d="M10.411.483v1.12c0 .136.203.136.203 0v-.068c0-.136-.17-.102-.17 0v.068h.203a12.35 12.35 0 0 1-.068-1.12c-.034-.068-.17-.068-.17 0z"></path><path d="M10.649.382c-.034.237-.034.475-.034.712 0 .136-.068.339 0 .441.068.136.237.068.203-.068-.034-.102-.17-.068-.17.034l.068-.068c.034 0 .068.034.068.034-.068-.102-.034-.407-.034-.509 0-.204 0-.407-.034-.577 0-.034-.068-.034-.068 0z"></path><path d="M8.851 8.117c.407-.102.78.034 1.187 0 .441 0 .78-.102 1.187.136.102.068.203-.102.102-.17-.373-.237-.746-.17-1.187-.136-.441.068-.882-.034-1.289.17-.034 0 0 .034 0 0z"></path><path d="M4.171 17.99c.102 1.289.17 2.545.136 3.834 0 .068.136.068.136 0v-.271c0-.101-.136-.102-.136 0 .17 0 .203-.102.102-.305v-.305c0-.339-.034-.678-.034-1.018a36.949 36.949 0 0 0-.136-1.934c0-.034-.068-.034-.068 0z"></path><path d="M7.698 17.719c0 .238 0 .509-.034.746 0 .136-.068.339.034.441.034.034.068.034.102 0 .068-.034.068-.068.068-.102s-.034-.068-.068-.068h-.034c-.068-.034-.136.102-.068.136h.034c0-.034-.034-.068-.034-.102H7.8c-.102-.068-.034-.441-.034-.577v-.543c.034 0-.034 0-.068.068z"></path><path d="M7.156 26.235c-.034-.034-.034-.034-.068 0-.203.203-.102.95-.136 1.187 0 .712 0 1.425.068 2.137 0 .102.17.102.136 0a13.097 13.097 0 0 1-.102-1.629c0-.136.068-1.629.034-1.629.068-.034.068-.068.068-.068z"></path><path d="M8.003 28.745v.814c0 .068.102.102.136.034s.034-.136.034-.17c.034-.068-.102-.102-.136-.034s-.034.136-.068.17c.034 0 .068 0 .136.034 0-.271-.034-.543-.034-.814 0-.102-.068-.102-.068-.034z"></path><path d="M9.733 29.186c0 .136.034.305.034.441 0 .068.068.102.102.068.102-.034.136-.136.102-.237s-.17-.068-.17.034c0 .034-.034.034-.034.068.034 0 .068.034.102.034-.034-.136-.068-.305-.102-.441.034-.034-.068 0-.034.034z"></path><path d="M10.343 29.356c.034.102.034.204.068.271 0 .034.034.034.034.034.068-.034.136-.068.17-.136.034-.034-.034-.102-.068-.034s-.068.102-.136.102c.034 0 .034 0 .068.034-.034-.102-.034-.203-.068-.271-.034-.034-.068-.034-.068 0z"></path><path d="M12.243 28.847c-.034.102-.034.17.034.238 0 .034.034.034.068.034.034-.034.068-.068.136-.102s0-.136-.068-.102l-.102.102h.068c0-.068-.034-.102-.034-.17 0-.034-.068-.034-.102 0z"></path><path d="M8.173 5.505c.034.17.136.305.237.441.034.068.136 0 .102-.034-.136-.17-.203-.339-.339-.407 0-.034 0-.034 0 0z"></path><path d="M8.241 5.267c.136.237.271.475.407.746.034.034.068 0 .068-.034-.17-.237-.271-.475-.475-.713z"></path><path d="M8.139 4.928l.509.814c.034.068.136 0 .102-.068-.203-.271-.373-.509-.577-.78l-.034.034z"></path><path d="M8.241 4.487c.102.204.203.373.305.577.034.034.102 0 .068-.034-.102-.204-.237-.373-.339-.577 0 0-.034 0-.034.034z"></path><path d="M8.241 4.046c.068.136.136.305.203.441.034.034.102 0 .068-.034-.068-.136-.17-.305-.237-.441 0-.034-.068 0-.034.034z"></path><path d="M8.783 4.046c.034 0 .034-.068 0-.068-.034.034-.034.068 0 .068z"></path><path d="M1.017 10.356c.509 0 .983-.034 1.458-.102.068 0 .068-.136 0-.136-.475.068-.95.136-1.458.204v.034z"></path><path d="M1.357 10.289c-.034.102-.034.238-.068.339 0 .068.068.068.068 0 0-.102.034-.238.034-.339h-.034z"></path><path d="M1.594 10.255c-.034.102-.034.238-.068.339 0 .068.068.068.068 0 0-.102.034-.238.034-.339 0-.034-.034-.034-.034 0z"></path><path d="M1.831 10.221c-.034.102-.102.238-.136.339-.034.068.068.102.102.034.034-.102.068-.238.102-.339 0-.034-.034-.068-.068-.034z"></path><path d="M2.069 10.187a3.902 3.902 0 0 1-.203.373c-.034.068.068.102.102.034.068-.136.102-.271.17-.407 0 0-.034-.034-.068 0z"></path><path d="M2.306 10.187a.65.65 0 0 0-.136.407c0 .068.102.068.102 0a.382.382 0 0 1 .102-.373c0-.034-.034-.068-.068-.034z"></path><path d="M2.543 10.119c-.034.136-.068.271-.17.373-.034.034.034.102.068.068.102-.136.17-.271.17-.441-.034 0-.068-.034-.068 0z"></path><path d="M2.713 10.187a.71.71 0 0 1-.136.373c-.034.068.068.102.102.068.034-.136.068-.271.068-.441 0-.034-.034-.034-.034 0z"></path><path d="M2.917 10.187c-.068.136-.102.305-.136.441-.034.068.102.102.102.034.034-.136.068-.305.102-.475 0-.034-.034-.034-.068 0z"></path><path d="M3.154 10.187c-.068.136-.102.305-.17.441-.034.068.102.102.102.034.034-.136.068-.305.102-.441.034-.068-.034-.068-.034-.034z"></path><path d="M3.323 10.255c-.068.136-.102.271-.17.373-.034.068.102.102.102.034l.102-.407c.034-.034 0-.034-.034 0z"></path><path d="M3.561 10.187c-.034.17-.102.339-.136.509-.034.068.102.102.102.034l.102-.509c0-.068-.068-.068-.068-.034z"></path><path d="M3.764 10.255c0 .136-.034.305-.136.407-.068.068.034.136.102.068.102-.17.136-.305.102-.475 0-.034-.068-.034-.068 0z"></path><path d="M4.103 10.289a.81.81 0 0 0-.17.475c0 .068.102.068.102 0 0-.17 0-.305.102-.441.034-.034 0-.068-.034-.034z"></path><path d="M4.409 10.289c-.102.136-.17.271-.136.441 0 .068.102.034.102 0 0-.136 0-.271.102-.373 0-.068-.068-.102-.068-.068z"></path><path d="M4.68 10.153a.68.68 0 0 1-.136.441c-.034.034.034.068.068.034.068-.17.102-.305.102-.475 0-.034-.034-.034-.034 0z"></path><path d="M1.357 11.273a45.346 45.346 0 0 0-.136 4.818c0 .068.068.068.068 0-.068-1.595 0-3.189.102-4.818 0-.034-.034-.034-.034 0z"></path><path d="M1.594 11.68c-.203 1.629-.203 3.257-.17 4.92 0 .068.102.068.068 0-.068-1.662 0-3.291.102-4.92.034-.034 0-.034 0 0z"></path><path d="M6.104 13.58c0 .611.034 1.255.034 1.866 0 .034.068.034.034 0-.034-.611-.034-1.255-.068-1.866z"></path><path d="M6.274 12.528a43.897 43.897 0 0 0 .034 3.664c0 .034.068.034.068 0-.068-1.221-.068-2.443-.068-3.664 0-.034-.034-.034-.034 0z"></path><path d="M4.07 23.215c.136-.034.237-.102.407-.136.17 0 .339.034.475.136.068.068.17-.034.068-.102-.237-.17-.78-.238-.95.102z"></path><path d="M4.239 23.147c-.068.203-.136.441-.203.679 0 .034.068.068.068.034.068-.238.136-.441.17-.679.034-.068 0-.068-.034-.034z"></path><path d="M4.544 23.079c-.17.339-.271.712-.373 1.052 0 .034.068.068.068.034.068-.373.203-.712.339-1.086 0 0-.034-.034-.034 0z"></path><path d="M4.68 23.113c-.203.441-.373.916-.577 1.357-.034.068.068.068.102.034.17-.441.373-.916.543-1.357 0-.034-.068-.034-.068-.034z"></path><path d="M4.816 23.181c-.203.509-.373 1.018-.577 1.527-.034.068.068.068.102.034.17-.509.339-1.018.543-1.527 0-.034-.034-.068-.068-.034z"></path></g></svg>