<svg xmlns="http://www.w3.org/2000/svg" viewBox="0 0 18 18"><g fill="none" class="nc-icon-wrapper"><path fill-rule="evenodd" clip-rule="evenodd" d="M7.222 2a5.222 5.222 0 1 0 0 10.444A5.222 5.222 0 0 0 7.222 2zM0 7.222a7.222 7.222 0 1 1 12.987 4.351l4.72 4.72a1 1 0 0 1-1.414 1.414l-4.72-4.72A7.222 7.222 0 0 1 0 7.222z" fill="currentColor"></path><path fill-rule="evenodd" clip-rule="evenodd" d="M7.222 3.556a1 1 0 0 1 1 1v1.666H9.89a1 1 0 1 1 0 2H8.222V9.89a1 1 0 0 1-2 0V8.222H4.556a1 1 0 1 1 0-2h1.666V4.556a1 1 0 0 1 1-1z" fill="currentColor"></path></g></svg>