<svg xmlns="http://www.w3.org/2000/svg" viewBox="0 0 32 32"><g fill="currentColor" class="nc-icon-wrapper"><path d="M27.336 6.209c-2.795-2.945-7.3-2.945-10.095 0a1.71 1.71 0 0 1-2.481 0c-2.795-2.945-7.301-2.945-10.095 0-2.825 2.978-2.825 7.828 0 10.805l8.961 9.444a3.273 3.273 0 0 0 4.748 0l8.961-9.444c2.825-2.978 2.825-7.828 0-10.805zM16 4.364c3.675-3.505 9.375-3.391 12.918.343 3.624 3.819 3.624 9.989 0 13.809l-8.961 9.444a5.455 5.455 0 0 1-7.914 0l-8.961-9.444c-3.624-3.819-3.624-9.989 0-13.809C6.625.973 12.325.859 16 4.364z"></path></g></svg>