<svg xmlns="http://www.w3.org/2000/svg" width="200" height="100" viewBox="0 0 200 100" fill="none"><mask id="mask0_1143_741" style="mask-type:alpha" maskUnits="userSpaceOnUse" x="0" y="0" width="200" height="100"><rect width="200" height="100" fill="#D9D9D9"></rect></mask><g mask="url(#mask0_1143_741)"><path d="M44.714 32.5199C43.174 32.2133 39.016 31.5999 35.012 31.5999C29.93 31.5999 25.002 32.6733 25.002 35.5866C25.002 40.0333 24.232 44.4799 25.772 48.7733C27.466 54.2933 30.7 55.5199 34.396 58.8933C35.012 59.5066 35.628 60.1199 35.936 60.8866C36.706 62.5733 36.552 68.7066 34.858 70.0866C34.704 70.2399 34.55 70.3933 34.396 70.3933C34.242 70.5466 34.242 70.5466 34.396 70.3933C34.55 70.3933 34.704 70.2399 34.858 70.0866C36.244 68.7066 36.09 62.7266 35.32 61.1933C33.164 57.3599 27.312 56.7466 24.54 49.2333C23 45.0933 23 39.5733 22.846 34.9733C22.692 30.6799 30.238 30.2199 36.09 30.8333C41.634 31.2933 45.484 32.5199 44.714 32.5199Z" fill="url(#paint0_linear_1143_741)"></path><path d="M27.774 34.6666C35.782 35.7399 39.632 35.2799 46.562 33.4399C48.872 32.8266 50.72 32.6733 50.72 34.8199C50.72 37.4266 50.72 40.9533 50.412 43.7133C49.95 47.6999 48.718 51.6866 45.792 54.5999C43.944 56.5933 39.17 59.3533 38.246 61.3466C37.322 63.3399 37.476 69.0133 39.478 70.3933C39.94 70.6999 39.016 70.0866 39.016 70.0866C37.168 68.5533 37.014 62.8799 37.784 61.0399C38.708 58.7399 43.174 56.1333 45.176 53.9866C47.794 51.0733 48.718 47.3933 49.026 43.5599C49.796 28.6866 46.1 39.7266 27.774 34.6666Z" fill="url(#paint1_linear_1143_741)"></path><path d="M35.32 67.3266C35.628 70.5466 27.774 72.0799 31.316 71.9266C33.318 71.7733 35.32 70.8533 37.168 71.0066C38.862 71.0066 39.94 71.7733 42.404 71.9266C44.406 72.0799 43.482 71.7733 42.404 71.1599C40.864 70.3933 38.4 69.1666 38.4 67.3266C38.554 69.3199 41.788 70.5466 43.328 71.1599C45.022 71.9266 45.33 72.6933 42.25 72.8466C38.708 72.9999 34.704 72.9999 31.316 72.8466C28.236 72.6933 29.16 71.9266 30.854 71.0066C32.856 70.2399 35.32 69.0133 35.32 67.3266Z" fill="url(#paint2_linear_1143_741)"></path><path d="M37.784 42.4866C36.706 42.9466 35.782 43.0999 34.704 43.0999C38.246 44.7866 42.712 46.0133 47.332 43.0999L47.486 42.9466C47.486 37.5799 43.636 39.7266 37.784 42.4866Z" fill="url(#paint3_linear_1143_741)"></path><path d="M34.704 43.8666C29.776 41.4133 26.388 37.8866 26.234 41.5666C26.08 44.0199 26.234 46.3199 27.004 48.7733C27.004 48.9266 27.004 48.9266 27.004 48.9266C27.466 50.3066 28.082 51.8399 29.468 53.2199C31.162 55.2133 33.164 56.7466 35.166 58.2799C36.244 59.0466 37.168 59.5066 38.246 58.2799C41.018 54.9066 45.946 53.9866 47.178 46.3199C47.332 45.3999 47.486 44.4799 47.486 43.4066C42.866 46.7799 38.246 45.5533 34.704 43.8666Z" fill="url(#paint4_linear_1143_741)"></path><path fill-rule="evenodd" clip-rule="evenodd" d="M46.254 27.7666C46.254 27.1533 46.87 26.9999 47.178 26.9999C47.486 26.9999 48.718 26.8466 47.64 28.2266C46.408 29.6066 47.486 30.8333 47.024 30.3733C46.408 29.9133 46.254 28.3799 46.254 27.7666Z" fill="url(#paint5_linear_1143_741)"></path><path fill-rule="evenodd" clip-rule="evenodd" d="M51.028 28.0733C51.952 27.6133 53.03 27.7666 53.03 28.5333C53.03 29.2999 54.724 30.5266 51.798 30.2199C48.872 29.9133 48.41 32.3666 48.41 31.2933C48.41 30.0666 50.104 28.5333 51.028 28.0733Z" fill="url(#paint6_linear_1143_741)"></path><path d="M63.348 40.4933C63.656 40.4933 63.964 40.6466 64.118 40.7999C64.272 40.9533 64.426 41.1066 64.58 41.4133L66.89 48.9266L69.662 40.4933H73.358L76.13 48.9266L78.44 41.4133C78.44 41.1066 78.594 40.9533 78.902 40.7999C79.056 40.6466 79.364 40.4933 79.672 40.4933H82.444L78.286 53.0666C78.132 53.3733 77.978 53.5266 77.824 53.6799C77.516 53.8333 77.362 53.9866 77.054 53.9866H75.514C75.206 53.9866 74.898 53.8333 74.744 53.6799C74.436 53.5266 74.282 53.3733 74.282 53.0666L71.664 45.3999L69.2 53.0666C69.046 53.3733 68.892 53.5266 68.738 53.6799C68.43 53.8333 68.276 53.9866 67.968 53.9866H66.428C66.12 53.9866 65.812 53.8333 65.658 53.6799C65.35 53.5266 65.196 53.3733 65.196 53.0666L61.038 40.4933H63.348Z" fill="#383738"></path><path d="M83.83 35.7399C83.83 35.5866 83.984 35.4333 84.138 35.4333H86.91C87.064 35.4333 87.218 35.5866 87.218 35.7399V38.4999C87.218 38.6533 87.064 38.8066 86.91 38.8066H84.138C83.984 38.8066 83.83 38.6533 83.83 38.4999V35.7399ZM87.372 53.8333H83.83V40.4933H87.372V53.8333Z" fill="#383738"></path><path d="M93.994 53.8333H90.452V40.4933H93.994V41.8733C93.994 41.5666 94.148 41.2599 94.456 40.9533C94.764 40.6466 95.072 40.4933 95.38 40.4933H101.694C102.002 40.4933 102.464 40.6466 102.618 40.9533C102.926 41.2599 103.08 41.5666 103.08 41.8733V53.9866H99.538V43.8666H95.38C95.072 43.8666 94.764 44.0199 94.456 44.3266C94.148 44.6333 93.994 44.9399 93.994 45.2466V53.8333Z" fill="#383738"></path><path d="M106.16 41.8733C106.16 41.5666 106.314 41.1066 106.622 40.9533C106.93 40.6466 107.238 40.4933 107.546 40.4933H118.48C118.788 40.4933 119.096 40.6466 119.404 40.9533C119.712 41.2599 119.866 41.5666 119.866 41.8733V47.5466C119.866 47.8533 119.712 48.1599 119.404 48.4666C119.096 48.7733 118.788 48.9266 118.48 48.9266H109.702V50.6133H119.866V53.9866H107.7C107.392 53.9866 106.93 53.8333 106.776 53.5266C106.468 53.2199 106.314 52.9133 106.314 52.6066V41.8733H106.16ZM109.702 43.8666V45.5533H116.324V43.8666H109.702Z" fill="#383738"></path><path d="M122.946 41.8733C122.946 41.5666 123.1 41.1066 123.408 40.9533C123.716 40.6466 124.024 40.4933 124.332 40.4933H135.266C135.574 40.4933 136.036 40.6466 136.19 40.9533C136.498 41.2599 136.652 41.5666 136.652 41.8733V44.7866H133.11V43.8666H126.488V50.6133H133.11V49.8466H136.652V52.7599C136.652 53.0666 136.498 53.5266 136.19 53.6799C135.882 53.9866 135.574 54.1399 135.266 54.1399H124.332C124.024 54.1399 123.562 53.9866 123.408 53.6799C123.1 53.3733 122.946 53.0666 122.946 52.7599V41.8733Z" fill="#383738"></path><path d="M143.274 35.4333V50.4599H144.506V53.8333H141.118C140.81 53.8333 140.348 53.6799 140.194 53.3733C139.886 53.0666 139.732 52.7599 139.732 52.4533V35.4333H143.274Z" fill="#383738"></path><path d="M156.672 40.4933H160.214V53.8333H156.672V52.4533C156.672 52.7599 156.518 53.2199 156.21 53.3733C155.902 53.6799 155.594 53.8333 155.286 53.8333H148.972C148.664 53.8333 148.202 53.6799 148.048 53.3733C147.74 53.0666 147.586 52.7599 147.586 52.4533V40.4933H151.128V50.6133H155.286C155.594 50.6133 156.056 50.4599 156.21 50.1533C156.518 49.8466 156.672 49.5399 156.672 49.2333V40.4933Z" fill="#383738"></path><path d="M166.836 53.8333H163.294V35.4333H166.836V41.8733C166.836 41.5666 166.99 41.1066 167.298 40.9533C167.606 40.6466 167.914 40.4933 168.222 40.4933H175.614C175.922 40.4933 176.384 40.6466 176.538 40.9533C176.846 41.2599 177 41.5666 177 41.8733V52.6066C177 52.9133 176.846 53.3733 176.538 53.5266C176.23 53.8333 175.922 53.9866 175.614 53.9866H168.222C167.914 53.9866 167.606 53.8333 167.298 53.5266C166.99 53.2199 166.836 52.9133 166.836 52.6066V53.8333ZM166.836 50.4599H173.458V43.8666H168.222C167.914 43.8666 167.606 44.0199 167.298 44.3266C166.99 44.6333 166.836 44.9399 166.836 45.2466V50.4599Z" fill="#383738"></path><path d="M69.508 64.4133V62.5733L68.122 59.9666H68.738L69.354 61.1933C69.508 61.4999 69.662 61.8066 69.816 62.1133C69.97 61.8066 70.124 61.4999 70.278 61.1933L70.894 59.9666H71.51L69.97 62.5733V64.4133H69.508Z" fill="#383738"></path><path d="M76.438 62.2666C76.438 63.7999 75.514 64.5666 74.436 64.5666C73.204 64.5666 72.434 63.6466 72.434 62.2666C72.434 60.8866 73.358 59.9666 74.436 59.9666C75.668 59.9666 76.438 60.8866 76.438 62.2666ZM73.05 62.2666C73.05 63.1866 73.512 64.1066 74.436 64.1066C75.36 64.1066 75.822 63.3399 75.822 62.2666C75.822 61.3466 75.36 60.4266 74.436 60.4266C73.512 60.4266 73.05 61.3466 73.05 62.2666Z" fill="#383738"></path><path d="M78.594 60.1199V62.7266C78.594 63.6466 79.056 64.1066 79.672 64.1066C80.288 64.1066 80.75 63.6466 80.75 62.7266V60.1199H81.366V62.7266C81.366 64.1066 80.596 64.5666 79.672 64.5666C78.748 64.5666 78.132 64.1066 78.132 62.7266V60.1199H78.594Z" fill="#383738"></path><path d="M83.06 60.1199C83.368 60.1199 83.83 59.9666 84.138 59.9666C84.754 59.9666 85.216 60.1199 85.37 60.2733C85.524 60.4266 85.678 60.7333 85.678 61.0399C85.678 61.6533 85.37 61.9599 84.908 62.1133C85.216 62.2666 85.524 62.5733 85.524 63.0333C85.678 63.6466 85.832 64.1066 85.832 64.2599H85.216C85.216 64.1066 85.062 63.7999 84.908 63.1866C84.754 62.5733 84.6 62.4199 83.984 62.2666H83.368V64.1066H83.06V60.1199ZM83.522 62.1133H84.138C84.754 62.1133 85.216 61.8066 85.216 61.3466C85.216 60.7333 84.754 60.5799 84.138 60.5799C83.83 60.5799 83.676 60.5799 83.522 60.5799V62.1133Z" fill="#383738"></path><path d="M89.374 60.1199C89.682 60.1199 89.99 59.9666 90.452 59.9666C91.068 59.9666 91.376 60.1199 91.684 60.2733C91.838 60.4266 91.992 60.7333 91.992 61.0399C91.992 61.4999 91.684 61.8066 91.222 61.9599C91.684 62.1133 92.146 62.4199 92.146 63.0333C92.146 63.3399 91.992 63.6466 91.838 63.9533C91.53 64.2599 91.068 64.4133 90.298 64.4133C89.836 64.4133 89.528 64.4133 89.374 64.4133V60.1199ZM89.99 61.9599H90.452C91.068 61.9599 91.376 61.6533 91.376 61.1933C91.376 60.7333 90.914 60.4266 90.452 60.4266C90.144 60.4266 89.99 60.4266 89.99 60.4266V61.9599ZM89.99 64.1066C90.144 64.1066 90.298 64.1066 90.452 64.1066C91.068 64.1066 91.53 63.9533 91.53 63.1866C91.53 62.5733 91.068 62.2666 90.452 62.2666H89.99V64.1066Z" fill="#383738"></path><path d="M94.302 60.1199V62.7266C94.302 63.6466 94.764 64.1066 95.38 64.1066C95.996 64.1066 96.458 63.6466 96.458 62.7266V60.1199H97.074V62.7266C97.074 64.1066 96.304 64.5666 95.38 64.5666C94.456 64.5666 93.84 64.1066 93.84 62.7266V60.1199H94.302Z" fill="#383738"></path><path d="M98.768 63.7999C99.076 63.9533 99.384 64.1066 99.846 64.1066C100.462 64.1066 100.77 63.7999 100.77 63.3399C100.77 62.8799 100.462 62.7266 100 62.4199C99.23 62.1133 98.768 61.8066 98.768 61.1933C98.768 60.5799 99.384 59.9666 100.154 59.9666C100.616 59.9666 100.924 60.1199 101.078 60.1199L100.924 60.7333C100.77 60.5799 100.462 60.5799 100.154 60.5799C99.538 60.5799 99.384 60.8866 99.384 61.1933C99.384 61.6533 99.692 61.8066 100.308 62.1133C101.078 62.4199 101.386 62.7266 101.386 63.3399C101.386 63.9533 100.924 64.5666 99.846 64.5666C99.384 64.5666 98.922 64.4133 98.768 64.2599V63.7999Z" fill="#383738"></path><path d="M103.388 60.1199V64.5666H102.772V60.1199H103.388Z" fill="#383738"></path><path d="M105.236 64.4133V59.9666H105.852L107.238 62.2666C107.546 62.7266 107.854 63.1866 108.008 63.6466C108.008 63.0333 108.008 62.5733 108.008 61.8066V59.9666H108.624V64.4133H108.008L106.468 62.2666C106.16 61.8066 105.852 61.1933 105.698 60.7333C105.698 61.3466 105.698 61.8066 105.698 62.5733V64.4133H105.236Z" fill="#383738"></path><path d="M112.628 62.4199H110.934V63.9533H112.782V64.4133H110.318V59.9666H112.782V60.4266H110.934V61.8066H112.628V62.4199Z" fill="#383738"></path><path d="M114.322 63.7999C114.63 63.9533 114.938 64.1066 115.4 64.1066C116.016 64.1066 116.324 63.7999 116.324 63.3399C116.324 62.8799 116.016 62.7266 115.554 62.4199C114.784 62.1133 114.322 61.8066 114.322 61.1933C114.322 60.5799 114.938 59.9666 115.708 59.9666C116.17 59.9666 116.478 60.1199 116.632 60.1199L116.478 60.7333C116.324 60.5799 116.016 60.5799 115.708 60.5799C115.092 60.5799 114.938 60.8866 114.938 61.1933C114.938 61.6533 115.246 61.8066 115.862 62.1133C116.632 62.4199 116.94 62.7266 116.94 63.3399C116.94 63.9533 116.478 64.5666 115.4 64.5666C114.938 64.5666 114.476 64.4133 114.322 64.2599V63.7999Z" fill="#383738"></path><path d="M118.326 63.7999C118.634 63.9533 118.942 64.1066 119.404 64.1066C120.02 64.1066 120.328 63.7999 120.328 63.3399C120.328 62.8799 120.02 62.7266 119.558 62.4199C118.788 62.1133 118.326 61.8066 118.326 61.1933C118.326 60.5799 118.942 59.9666 119.712 59.9666C120.174 59.9666 120.482 60.1199 120.636 60.1199L120.482 60.7333C120.328 60.5799 120.02 60.5799 119.712 60.5799C119.096 60.5799 118.942 60.8866 118.942 61.1933C118.942 61.6533 119.25 61.8066 119.866 62.1133C120.636 62.4199 120.944 62.7266 120.944 63.3399C120.944 63.9533 120.482 64.5666 119.404 64.5666C118.942 64.5666 118.48 64.4133 118.326 64.2599V63.7999Z" fill="#383738"></path><path d="M125.102 60.5799H123.716V60.1199H126.95V60.5799H125.564V64.5666H124.948V60.5799H125.102Z" fill="#383738"></path><path d="M128.49 63.0333L128.028 64.4133H127.412L128.952 59.9666H129.568L131.108 64.4133H130.492L130.03 63.0333H128.49ZM129.876 62.5733L129.414 61.3466C129.26 61.0399 129.26 60.7333 129.26 60.5799C129.26 60.8866 129.106 61.0399 129.106 61.3466L128.644 62.5733H129.876Z" fill="#383738"></path><path d="M135.882 64.2599C135.574 64.4133 135.112 64.5666 134.496 64.5666C133.88 64.5666 133.264 64.4133 132.802 63.9533C132.494 63.6466 132.186 63.0333 132.186 62.2666C132.186 60.8866 133.11 59.9666 134.65 59.9666C135.112 59.9666 135.574 60.1199 135.728 60.1199L135.574 60.7333C135.266 60.5799 135.112 60.5799 134.65 60.5799C133.572 60.5799 132.802 61.1933 132.802 62.4199C132.802 63.4933 133.418 64.2599 134.496 64.2599C134.804 64.2599 135.112 64.2599 135.266 64.1066V62.7266H134.342V62.2666H135.728V64.2599H135.882Z" fill="#383738"></path><path d="M137.576 60.1199H138.192V64.1066H140.04V64.5666H137.576V60.1199Z" fill="#383738"></path><path d="M142.042 60.1199V64.5666H141.426V60.1199H142.042Z" fill="#383738"></path><path d="M143.736 64.4133V59.9666H144.352L145.738 62.2666C146.046 62.7266 146.354 63.1866 146.508 63.6466C146.508 63.0333 146.508 62.5733 146.508 61.8066V59.9666H147.124V64.4133H146.508L145.122 62.2666C144.814 61.8066 144.506 61.1933 144.352 60.7333C144.352 61.3466 144.352 61.8066 144.352 62.5733V64.4133H143.736Z" fill="#383738"></path><path d="M151.282 62.4199H149.588V63.9533H151.436V64.4133H148.972V59.9666H151.436V60.4266H149.588V61.8066H151.282V62.4199Z" fill="#383738"></path><path d="M155.594 60.1199V61.9599H157.75V60.1199H158.366V64.5666H157.75V62.4199H155.594V64.5666H154.978V60.1199H155.594Z" fill="#383738"></path><path d="M162.37 62.4199H160.676V63.9533H162.524V64.4133H160.06V59.9666H162.524V60.4266H160.676V61.8066H162.37V62.4199Z" fill="#383738"></path><path d="M164.064 60.1199C164.372 60.1199 164.834 59.9666 165.142 59.9666C165.758 59.9666 166.22 60.1199 166.374 60.2733C166.528 60.4266 166.682 60.7333 166.682 61.0399C166.682 61.6533 166.374 61.9599 165.912 62.1133C166.22 62.2666 166.528 62.5733 166.528 63.0333C166.682 63.6466 166.836 64.1066 166.836 64.2599H166.22C166.22 64.1066 166.066 63.7999 165.912 63.1866C165.758 62.5733 165.604 62.4199 164.988 62.2666H164.68V64.1066H164.064V60.1199ZM164.68 62.1133H165.296C165.912 62.1133 166.374 61.8066 166.374 61.3466C166.374 60.7333 165.912 60.5799 165.296 60.5799C164.988 60.5799 164.834 60.5799 164.68 60.5799V62.1133Z" fill="#383738"></path><path d="M170.686 62.4199H168.992V63.9533H170.84V64.4133H168.376V59.9666H170.84V60.4266H168.992V61.8066H170.686V62.4199Z" fill="#383738"></path></g><defs><linearGradient id="paint0_linear_1143_741" x1="205.033" y1="6.74234" x2="200.435" y2="62.5057" gradientUnits="userSpaceOnUse"><stop offset="0.00537634" stop-color="#BBBDBF"></stop><stop offset="1" stop-color="#404041"></stop></linearGradient><linearGradient id="paint1_linear_1143_741" x1="190.066" y1="4.81161" x2="184.622" y2="64.1381" gradientUnits="userSpaceOnUse"><stop offset="0.00537634" stop-color="#BBBDBF"></stop><stop offset="1" stop-color="#404041"></stop></linearGradient><linearGradient id="paint2_linear_1143_741" x1="365.869" y1="-356.346" x2="227.207" y2="-15.2458" gradientUnits="userSpaceOnUse"><stop offset="0.00537634" stop-color="#BBBDBF"></stop><stop offset="1" stop-color="#404041"></stop></linearGradient><linearGradient id="paint3_linear_1143_741" x1="64.1149" y1="12.3701" x2="109.313" y2="102.129" gradientUnits="userSpaceOnUse"><stop stop-color="#EC1C24"></stop><stop offset="1" stop-color="#7A0608"></stop></linearGradient><linearGradient id="paint4_linear_1143_741" x1="95.9643" y1="24.6708" x2="97.9337" y2="78.6252" gradientUnits="userSpaceOnUse"><stop stop-color="#EC1C24"></stop><stop offset="1" stop-color="#AD1B1F"></stop></linearGradient><linearGradient id="paint5_linear_1143_741" x1="26.2352" y1="49.7323" x2="188.191" y2="49.7323" gradientUnits="userSpaceOnUse"><stop stop-color="#EC1C24"></stop><stop offset="1" stop-color="#AD1B1F"></stop></linearGradient><linearGradient id="paint6_linear_1143_741" x1="21.3796" y1="49.3282" x2="174.039" y2="49.3282" gradientUnits="userSpaceOnUse"><stop stop-color="#EC1C24"></stop><stop offset="1" stop-color="#AD1B1F"></stop></linearGradient></defs></svg>