<svg xmlns="http://www.w3.org/2000/svg" width="200" height="100" viewBox="0 0 200 100" fill="none"><mask id="mask0_1143_732" style="mask-type:alpha" maskUnits="userSpaceOnUse" x="0" y="0" width="200" height="100"><rect width="200" height="100" fill="#D9D9D9"></rect></mask><g mask="url(#mask0_1143_732)"><path d="M97.1208 43.5301C96.4808 43.5301 95.8408 43.3713 95.2808 43.1332C94.7208 42.895 94.2408 42.4981 93.7608 42.1012C93.3608 41.6248 92.9608 41.1485 92.7208 40.5134C92.4808 39.9577 92.3208 39.3227 92.3208 38.6082C92.3208 37.9731 92.4808 37.338 92.7208 36.7029C92.9608 36.1472 93.2808 35.5915 93.7608 35.1946C94.1608 34.7183 94.7208 34.4008 95.2808 34.1626C95.8408 33.9245 96.4808 33.7657 97.1208 33.7657C97.6808 33.7657 98.2408 33.8451 98.7208 34.0038C99.2008 34.1626 99.6808 34.4802 100.081 34.7977C100.161 34.8771 100.161 34.9565 100.241 35.0359C100.241 35.1152 100.241 35.1946 100.241 35.274C100.241 35.3534 100.161 35.4328 100.081 35.4328C100.081 35.5122 100.001 35.5122 99.9208 35.5915C99.8408 35.5915 99.7608 35.6709 99.6808 35.5915C99.6008 35.5915 99.5208 35.5122 99.4408 35.5122C99.1208 35.274 98.8008 35.0359 98.4008 34.8771C98.0008 34.7183 97.6008 34.6389 97.1208 34.6389C96.5608 34.6389 96.0808 34.7183 95.6008 34.9565C95.1208 35.1946 94.7208 35.4328 94.4008 35.8297C94.0808 36.2266 93.7608 36.6236 93.6008 37.0999C93.4408 37.5762 93.2808 38.0525 93.2808 38.6082C93.2808 39.1639 93.3608 39.6402 93.6008 40.1165C93.7608 40.5928 94.0808 40.9898 94.4008 41.3867C94.7208 41.7836 95.1208 42.0218 95.6008 42.2599C96.0808 42.4981 96.5608 42.5775 97.1208 42.5775C97.6008 42.5775 98.0008 42.4981 98.4008 42.3393C98.8008 42.1805 99.2008 42.0218 99.5208 41.7042C99.6008 41.6248 99.7608 41.6248 99.8408 41.6248C99.9208 41.6248 100.081 41.7042 100.161 41.7836C100.241 41.863 100.321 41.9424 100.321 42.1012C100.321 42.1805 100.321 42.2599 100.321 42.2599C100.321 42.3393 100.241 42.3393 100.241 42.4187C99.8408 42.8156 99.3608 43.0538 98.8808 43.2125C98.2408 43.4507 97.6808 43.5301 97.1208 43.5301Z" fill="#353535"></path><path d="M106.641 43.5301C105.921 43.5301 105.281 43.3713 104.721 43.1332C104.161 42.895 103.601 42.5775 103.201 42.1012C102.801 41.7042 102.401 41.1485 102.161 40.5928C101.921 40.0371 101.761 39.3227 101.761 38.6876C101.761 37.9731 101.921 37.338 102.161 36.7823C102.401 36.2266 102.721 35.6709 103.201 35.274C103.601 34.8771 104.161 34.4802 104.721 34.242C105.281 34.0038 106.001 33.8451 106.641 33.8451C107.361 33.8451 108.001 34.0038 108.561 34.242C109.121 34.4802 109.681 34.7977 110.081 35.274C110.481 35.6709 110.881 36.2266 111.121 36.7823C111.361 37.338 111.521 38.0525 111.521 38.6876C111.521 39.4021 111.361 40.0371 111.121 40.5928C110.881 41.1485 110.561 41.7042 110.081 42.1012C109.681 42.4981 109.121 42.895 108.561 43.1332C108.001 43.4507 107.361 43.5301 106.641 43.5301ZM106.641 42.6569C107.201 42.6569 107.761 42.5775 108.241 42.3393C108.721 42.1805 109.121 41.863 109.521 41.4661C109.841 41.0691 110.161 40.6722 110.321 40.1959C110.481 39.7196 110.641 39.1639 110.641 38.6082C110.641 38.0525 110.561 37.4968 110.321 37.0205C110.161 36.5442 109.841 36.1472 109.521 35.7503C109.201 35.3534 108.721 35.1152 108.241 34.8771C107.761 34.7183 107.201 34.5595 106.641 34.5595C106.081 34.5595 105.521 34.6389 105.041 34.8771C104.561 35.0359 104.161 35.3534 103.761 35.7503C103.441 36.1472 103.121 36.5442 102.961 37.0205C102.801 37.4968 102.641 38.0525 102.641 38.6082C102.641 39.1639 102.721 39.7196 102.961 40.1959C103.121 40.6722 103.441 41.0691 103.761 41.4661C104.081 41.863 104.561 42.1012 105.041 42.3393C105.601 42.5775 106.081 42.6569 106.641 42.6569Z" fill="#353535"></path><path d="M117.521 43.5301C116.881 43.5301 116.241 43.3713 115.681 43.1332C115.121 42.895 114.641 42.4981 114.161 42.1012C113.761 41.6248 113.361 41.1485 113.121 40.5134C112.881 39.9577 112.721 39.3227 112.721 38.6082C112.721 37.9731 112.881 37.338 113.121 36.7029C113.361 36.1472 113.681 35.5915 114.161 35.1946C114.561 34.7183 115.121 34.4008 115.681 34.1626C116.241 33.9245 116.881 33.7657 117.521 33.7657C118.081 33.7657 118.641 33.8451 119.121 34.0038C119.601 34.1626 120.081 34.4802 120.481 34.7977C120.561 34.8771 120.561 34.9565 120.641 35.0359C120.641 35.1152 120.641 35.1946 120.641 35.274C120.641 35.3534 120.561 35.4328 120.481 35.4328C120.481 35.5122 120.401 35.5122 120.321 35.5915C120.241 35.5915 120.161 35.6709 120.081 35.5915C120.001 35.5915 119.921 35.5122 119.841 35.5122C119.521 35.274 119.201 35.0359 118.801 34.8771C118.401 34.7183 118.001 34.6389 117.521 34.6389C116.961 34.6389 116.481 34.7183 116.001 34.9565C115.521 35.1946 115.121 35.4328 114.801 35.8297C114.481 36.2266 114.161 36.6236 114.001 37.0999C113.841 37.5762 113.681 38.0525 113.681 38.6082C113.681 39.1639 113.761 39.6402 114.001 40.1165C114.161 40.5928 114.481 40.9898 114.801 41.3867C115.121 41.7836 115.521 42.0218 116.001 42.2599C116.481 42.4981 116.961 42.5775 117.521 42.5775C118.001 42.5775 118.401 42.4981 118.801 42.3393C119.201 42.1805 119.601 42.0218 119.921 41.7042C120.001 41.6248 120.161 41.6248 120.241 41.6248C120.321 41.6248 120.481 41.7042 120.561 41.7836C120.641 41.863 120.721 41.9424 120.721 42.1012C120.721 42.1805 120.721 42.2599 120.721 42.2599C120.721 42.3393 120.641 42.3393 120.641 42.4187C120.241 42.8156 119.761 43.0538 119.281 43.2125C118.641 43.4507 118.081 43.5301 117.521 43.5301Z" fill="#353535"></path><path d="M123.201 43.4507C123.041 43.4507 122.961 43.3713 122.881 43.2919C122.801 43.2125 122.721 43.0538 122.721 42.9744V34.4008C122.721 34.242 122.801 34.1626 122.881 34.0832C122.961 34.0038 123.121 33.9245 123.201 33.9245C123.281 33.9245 123.441 34.0038 123.521 34.0832C123.601 34.1626 123.681 34.3214 123.681 34.4008V38.5288L128.161 34.0832C128.241 34.0038 128.321 34.0038 128.321 33.9245C128.401 33.9245 128.481 33.9245 128.481 33.9245C128.641 33.9245 128.721 34.0038 128.801 34.0832C128.881 34.1626 128.881 34.242 128.881 34.4008C128.881 34.5595 128.801 34.6389 128.721 34.7977L125.361 38.1319L128.721 42.7362C128.801 42.8156 128.801 42.9744 128.801 43.0538C128.801 43.1332 128.721 43.2919 128.641 43.3713C128.561 43.4507 128.481 43.5301 128.321 43.5301C128.161 43.5301 128.001 43.4507 127.921 43.2919L124.561 38.8464L123.441 39.9577V43.0538C123.441 43.2125 123.361 43.2919 123.281 43.3713C123.441 43.3713 123.281 43.4507 123.201 43.4507Z" fill="#353535"></path><path d="M130.001 34.7977C129.841 34.7977 129.761 34.7183 129.681 34.6389C129.601 34.5595 129.521 34.4802 129.521 34.3214C129.521 34.1626 129.601 34.0832 129.681 34.0038C129.761 33.9245 129.841 33.8451 130.001 33.8451H136.721C136.881 33.8451 136.961 33.9245 137.041 34.0038C137.121 34.0832 137.201 34.1626 137.201 34.3214C137.201 34.4802 137.121 34.5595 137.041 34.6389C136.961 34.7183 136.881 34.7977 136.721 34.7977H130.001ZM133.361 43.4507C133.201 43.4507 133.121 43.3713 133.041 43.2919C132.961 43.2125 132.881 43.0538 132.881 42.9744V33.9245H133.841V42.895C133.841 43.0538 133.761 43.1332 133.681 43.2125C133.601 43.3713 133.441 43.4507 133.361 43.4507Z" fill="#353535"></path><path d="M137.041 43.4507C136.881 43.4507 136.721 43.3713 136.641 43.2125C136.561 43.0538 136.561 42.895 136.641 42.7362L140.241 34.242C140.321 34.0038 140.481 33.9245 140.721 33.9245C140.961 33.9245 141.121 34.0038 141.201 34.242L144.801 42.7362C144.881 42.895 144.881 43.0538 144.801 43.2125C144.721 43.3713 144.561 43.4507 144.401 43.4507C144.321 43.4507 144.241 43.4507 144.161 43.3713C144.081 43.2919 144.001 43.2125 144.001 43.1332L140.641 35.0359H141.041L137.681 43.1332C137.601 43.2125 137.601 43.2919 137.521 43.3713C137.281 43.3713 137.201 43.4507 137.041 43.4507ZM137.841 41.1485L138.241 40.3547H143.201L143.601 41.1485H137.841Z" fill="#353535"></path><path d="M146.641 43.4507C146.481 43.4507 146.401 43.3713 146.321 43.2919C146.241 43.2125 146.161 43.0538 146.161 42.9744V34.4008C146.161 34.242 146.241 34.1626 146.321 34.0832C146.401 34.0038 146.561 33.9245 146.641 33.9245C146.721 33.9245 146.881 34.0038 146.961 34.0832C147.041 34.1626 147.121 34.3214 147.121 34.4008V42.895C147.121 43.0538 147.041 43.1332 146.961 43.2125C146.881 43.3713 146.801 43.4507 146.641 43.4507Z" fill="#353535"></path><path d="M150.081 43.4507C149.921 43.4507 149.841 43.3713 149.761 43.2919C149.681 43.2125 149.601 43.0538 149.601 42.9744V34.4008C149.601 34.242 149.681 34.1626 149.761 34.0832C149.841 34.0038 150.001 33.9245 150.081 33.9245C150.161 33.9245 150.321 34.0038 150.401 34.0832C150.481 34.1626 150.561 34.3214 150.561 34.4008V42.4981H155.361C155.521 42.4981 155.601 42.5775 155.681 42.6568C155.761 42.7362 155.841 42.8156 155.841 42.9744C155.841 43.1332 155.761 43.2125 155.681 43.2919C155.601 43.3713 155.441 43.4507 155.361 43.4507H150.081Z" fill="#353535"></path><path d="M94.0808 73.8553C93.6808 73.8553 93.2808 73.7759 93.0408 73.5378C92.7208 73.2996 92.6408 72.9821 92.6408 72.5851V48.7695C92.6408 48.3726 92.8008 48.0551 93.0408 47.8169C93.2808 47.5787 93.6008 47.42 94.0008 47.42H102.241C103.601 47.42 104.801 47.7375 105.921 48.2932C107.041 48.8489 107.921 49.6428 108.561 50.6748C109.201 51.6274 109.521 52.8182 109.521 54.0883C109.521 55.2791 109.201 56.3905 108.561 57.3431C107.921 58.2958 107.041 59.0102 106.001 59.4866C107.521 59.8835 108.721 60.6773 109.681 61.7887C110.641 62.9001 111.041 64.3291 111.041 65.9962C111.041 67.5045 110.721 68.854 110.001 70.0448C109.281 71.2356 108.321 72.1088 107.121 72.8233C105.921 73.4584 104.481 73.8553 102.881 73.8553H94.0808ZM95.2808 58.4545H102.241C103.601 58.4545 104.721 58.0576 105.601 57.3431C106.481 56.5493 106.961 55.5173 106.961 54.1677C106.961 52.8182 106.481 51.7862 105.601 51.0717C104.721 50.3572 103.601 50.0397 102.241 50.0397H95.2808V58.4545ZM95.2808 71.315H102.801C103.921 71.315 104.881 71.0768 105.681 70.6799C106.481 70.283 107.201 69.6479 107.681 68.854C108.161 68.0602 108.401 67.1076 108.401 66.0755C108.401 65.0435 108.161 64.1703 107.681 63.4558C107.201 62.7414 106.561 62.1063 105.681 61.7093C104.881 61.3124 103.841 61.0743 102.801 61.0743H95.2808V71.315Z" fill="#A4BF62"></path><path d="M113.761 73.8553C113.201 73.8553 112.881 73.6172 112.641 73.2202C112.401 72.8233 112.401 72.347 112.561 71.9501L122.561 48.3726C122.801 47.7375 123.201 47.4994 123.841 47.4994C124.401 47.4994 124.881 47.8169 125.121 48.3726L135.121 71.9501C135.361 72.347 135.281 72.8233 135.041 73.2202C134.801 73.6172 134.401 73.8553 133.921 73.8553C133.681 73.8553 133.441 73.7759 133.201 73.6172C132.961 73.4584 132.801 73.2996 132.641 72.9821L123.361 50.516H124.401L114.961 72.9821C114.881 73.2202 114.721 73.4584 114.481 73.6172C114.241 73.7759 114.001 73.8553 113.761 73.8553ZM116.001 67.5839L117.041 65.3611H130.881L131.921 67.5839H116.001Z" fill="#A4BF62"></path><path d="M140.401 73.8553C140.001 73.8553 139.681 73.6965 139.441 73.4584C139.201 73.2202 139.041 72.9027 139.041 72.5058V48.7695C139.041 48.3726 139.201 48.0551 139.441 47.8169C139.681 47.5787 140.001 47.42 140.401 47.42H146.721C148.401 47.42 149.841 47.7375 151.121 48.452C152.401 49.1665 153.441 50.1191 154.161 51.3099C154.881 52.5006 155.281 53.9296 155.281 55.5173C155.281 57.0256 154.881 58.3752 154.161 59.5659C153.441 60.7567 152.401 61.7093 151.121 62.3444C149.841 62.9795 148.321 63.3764 146.721 63.3764H141.681V72.347C141.681 72.7439 141.521 73.0615 141.281 73.2996C141.121 73.6965 140.801 73.8553 140.401 73.8553ZM141.761 60.9949H146.801C147.921 60.9949 148.961 60.7567 149.841 60.2804C150.721 59.8041 151.441 59.169 152.001 58.3752C152.561 57.5813 152.801 56.6287 152.801 55.5967C152.801 54.4853 152.561 53.5327 152.001 52.6594C151.441 51.7862 150.801 51.1511 149.841 50.6748C148.961 50.1985 147.921 49.9603 146.801 49.9603H141.761V60.9949ZM154.641 73.8553C154.321 73.8553 154.081 73.7759 153.921 73.6965C153.761 73.6172 153.601 73.379 153.441 73.2202L146.881 62.9001L149.521 62.265L155.601 71.9501C155.921 72.5058 156.001 72.9821 155.761 73.379C155.681 73.6172 155.281 73.8553 154.641 73.8553Z" fill="#A4BF62"></path><path d="M63.5208 38.37C63.2808 33.2894 59.5208 29.9552 54.3208 29.9552C49.2808 30.0346 45.9208 34.1626 44.6408 37.4968C43.4408 40.7516 43.5208 46.7849 47.6808 48.6901C51.7608 50.6748 55.0408 49.5634 55.0408 49.5634V48.6901C55.0408 48.6901 52.4008 49.1665 50.2408 48.3726C49.2808 48.0551 48.3208 47.4994 47.5208 46.6261C47.2808 46.388 47.5208 45.5147 47.9208 44.959C48.3208 44.4033 53.4408 41.5455 53.2008 41.3073C52.8808 41.1485 48.8008 43.6889 48.0008 44.1652C47.2008 44.5621 46.4808 44.6415 46.0808 43.927C45.8408 43.0538 45.8408 41.9424 46.0008 40.6722C46.2408 38.9257 46.8808 37.2586 47.8408 35.9091C48.0808 35.5122 48.8008 35.3534 49.3608 35.6709C49.9208 35.9091 51.9208 37.4968 52.0808 37.338C52.2408 37.1793 49.7608 35.4328 49.5208 34.9565C49.2808 34.4802 49.8408 33.8451 49.8408 33.8451C51.3608 32.6543 53.1208 31.9398 54.8808 32.0192C55.2008 32.0192 55.5208 32.0192 55.8408 32.0986C56.4008 32.2574 56.3208 33.4481 56.0008 35.6709C55.6008 38.0525 55.8408 37.9731 56.4808 35.4328C57.1208 33.0512 57.2008 32.4161 57.6808 32.4955C60.4808 33.3688 62.5608 35.5915 62.4008 38.6876C62.3208 40.3547 61.7608 42.1012 60.9608 43.6095C60.8808 43.6889 60.4808 44.4033 59.9208 44.2446C59.2808 44.0858 57.2808 42.1805 57.2008 42.3393C57.0408 42.4981 58.5608 43.7682 59.2808 44.5621C59.8408 45.1178 59.7608 45.1972 59.3608 46.2292C58.8008 46.9437 58.4008 47.42 58.1608 47.5787C57.2808 48.2138 56.9608 48.8489 58.3208 48.1344C59.5208 47.2612 63.8408 43.4507 63.5208 38.37Z" fill="#A4BF62"></path><path d="M65.5208 68.6953C65.3608 69.6479 68.0008 70.4417 68.4808 69.6479C68.9608 68.7746 76.4808 26.8592 77.2808 25.4302C78.0808 24.0013 88.8008 22.4136 89.1208 22.0166C89.4408 21.5403 89.0408 19 88.5608 19C88.0808 19 75.3608 21.8579 74.5608 23.2868C73.7608 24.6364 65.7608 67.3457 65.5208 68.6953Z" fill="#A4BF62"></path><path d="M54.0808 40.1165C54.0808 39.0845 54.6408 38.8464 56.4008 38.767C58.2408 38.6876 72.9608 38.8464 73.0408 39.0845C73.0408 39.3227 73.2808 39.8784 68.5608 39.799C63.8408 39.6402 55.4408 39.6402 55.2808 40.1165C55.1208 40.5134 55.7608 62.9795 56.0808 65.8374C56.4008 68.6953 56.8008 78.6184 57.6808 79.1741C58.5608 79.7298 67.1208 78.8566 70.8008 78.5391C74.4808 78.2215 78.2408 78.936 78.6408 78.3009C79.0408 77.6658 78.3208 74.0935 78.3208 66.5519C78.3208 59.0102 78.8008 45.1178 78.8008 43.8476C78.8008 42.5775 79.3608 43.2125 79.4408 44.3239C79.5208 45.4353 79.7608 56.2318 79.4408 62.265C79.1208 68.2983 79.6808 77.4277 79.6008 78.1421C79.5208 78.8566 79.2008 79.6504 77.0408 79.7298C74.8808 79.8092 62.8808 81 60.7208 81C58.5608 81 55.7608 81.3175 55.2808 78.4597C54.8008 75.6018 54.6408 64.8848 54.6408 61.233C54.6408 57.5813 54.0808 42.1805 54.0808 40.1165Z" fill="#353535"></path><path d="M55.0408 52.5006C55.0408 52.5006 65.7608 52.6594 69.2008 52.5006C72.6408 52.3419 79.2008 52.58 79.2008 52.58V53.3739C79.2008 53.3739 75.6808 53.6914 69.6008 54.009C63.5208 54.4059 55.1208 54.3265 55.1208 54.3265V52.5006H55.0408Z" fill="#353535"></path></g></svg>