<svg xmlns="http://www.w3.org/2000/svg" width="200" height="100" viewBox="0 0 200 100" fill="none"><mask id="mask0_1143_729" style="mask-type:alpha" maskUnits="userSpaceOnUse" x="0" y="0" width="200" height="100"><rect width="200" height="100" fill="#D9D9D9"></rect></mask><g mask="url(#mask0_1143_729)"><path d="M54.1429 68.3498H55.7857V72.9285H56.5714V68.3498H58.1429V67.6343H54.1429V68.3498Z" fill="#383838"></path><path d="M64.2143 67.6343L62.1429 72.9285H63L63.4286 71.7838H65.7143L66.1429 72.9285H67L64.9286 67.6343H64.2143ZM63.6429 71.0684L64.5 68.6359L65.3571 71.0684H63.6429Z" fill="#383838"></path><path d="M73.5714 70.7822H74.7143V70.9968C74.7143 71.283 74.6429 71.4976 74.5714 71.6407C74.5 71.8553 74.3571 71.9984 74.1429 72.07C74 72.1415 73.7857 72.213 73.5 72.213C73.2857 72.213 73.0714 72.1415 72.8571 72.07C72.6429 71.9984 72.5714 71.8553 72.4286 71.6407C72.3571 71.4976 72.2857 71.283 72.2857 71.0684V69.4944C72.2857 69.2798 72.3571 68.9936 72.4286 68.8506C72.5 68.6359 72.6429 68.4928 72.8571 68.4213C73 68.3498 73.2143 68.2782 73.5 68.2782C73.6429 68.2782 73.7857 68.2782 74 68.3498C74.1429 68.4213 74.2857 68.4928 74.3571 68.6359C74.5 68.779 74.5714 68.9221 74.5714 69.0652H75.4286C75.3571 68.779 75.2143 68.4928 75.0714 68.2067C74.8571 67.9921 74.6429 67.7774 74.3571 67.6343C74.0714 67.4913 73.7857 67.4197 73.4286 67.4197C73 67.4197 72.7143 67.4913 72.3571 67.6343C72.0714 67.7774 71.8571 68.0636 71.6429 68.3498C71.5 68.6359 71.4286 68.9936 71.4286 69.4229V70.9968C71.4286 71.3545 71.5 71.7122 71.6429 71.9984C71.7857 72.2846 72.0714 72.4992 72.3571 72.6423C72.6429 72.7854 73 72.8569 73.4286 72.8569C73.8571 72.8569 74.1429 72.7854 74.5 72.6423C74.7857 72.4992 75 72.213 75.2143 71.9269C75.3571 71.6407 75.4286 71.283 75.4286 70.8537V69.9237H73.5714V70.7822Z" fill="#383838"></path><path d="M81.5714 67.6343H80.7857V72.9285H84.4286V72.213H81.5714V67.6343Z" fill="#383838"></path><path d="M90.1429 67.6343H89.3571V72.9285H90.1429V67.6343Z" fill="#383838"></path><path d="M98.8571 71.5692L96.2143 67.6343H95.5V72.9285H96.2857V68.9936L98.9286 72.9285H99.6429V67.6343H98.8571V71.5692Z" fill="#383838"></path><path d="M105.071 67.6343V72.9285H108.643V72.213H105.857V70.6391H108.214V69.9237H105.857V68.3498H108.643V67.6343H105.071Z" fill="#383838"></path><path d="M122.286 69.9237H119.929V67.6343H119.071V72.9285H119.929V70.6391H122.286V72.9285H123.071V67.6343H122.286V69.9237Z" fill="#383838"></path><path d="M128.5 67.6343V72.9285H132.143V72.213H129.286V70.6391H131.714V69.9237H129.286V68.3498H132.143V67.6343H128.5Z" fill="#383838"></path><path d="M140.286 70.496C140.5 70.3529 140.714 70.2099 140.857 69.9237C141 69.7091 141.071 69.4229 141.071 69.1367C141.071 68.8506 141 68.5644 140.857 68.3498C140.714 68.1351 140.5 67.9205 140.286 67.7774C140.071 67.6343 139.786 67.5628 139.429 67.5628H137.214V72.8569H138V70.6391H139.214L140.429 72.8569H141.357L140.071 70.5676C140.143 70.5676 140.214 70.496 140.286 70.496ZM138 68.3498H139.5C139.643 68.3498 139.786 68.3498 139.929 68.4213C140.071 68.4928 140.143 68.5644 140.214 68.7075C140.286 68.8506 140.286 68.9936 140.286 69.1367C140.286 69.2798 140.286 69.4229 140.214 69.566C140.143 69.7091 140.071 69.7806 139.929 69.8521C139.786 69.9237 139.714 69.9237 139.5 69.9237H138V68.3498Z" fill="#383838"></path><path d="M150 68.3498V67.6343H146.357V72.9285H150V72.213H147.143V70.6391H149.571V69.9237H147.143V68.3498H150Z" fill="#383838"></path><path d="M78.5 42.9523L75.9286 56.1876L69.8571 29.9316H66.5L60.4286 56.1876L57.8571 42.9523L54.5 28H50L58.4286 63.4849H62.4286L65.3571 51.6089L68.2143 38.8744L71 51.6089L73.9286 63.4849H77.9286L86.3571 28H81.8571L78.5 42.9523Z" fill="#FB2E01"></path><path d="M122.5 43.0954L123.143 55.1145L111.143 28.0715H107V63.4134H111.429V49.6057L111.143 38.0159L122.786 63.4134H126.357C125.571 63.4134 124.929 62.7695 124.929 62.0541V46.8871C124.929 46.0286 125.143 45.1701 125.571 44.4547C126.143 43.5246 126.571 42.4515 126.857 41.3784V28.0715H122.5V43.0954Z" fill="#FB2E01"></path><path d="M135.357 59.3355V46.601H147.571V42.5231H135.357V31.8633H148.857V28H131.071V41.2353C131.429 42.38 131.857 43.4531 132.429 44.4547C132.857 45.1701 133.071 46.0286 133.071 46.8871V62.0541C133.071 62.841 132.429 63.4134 131.643 63.4134H150V59.3355H135.357Z" fill="#FB2E01"></path><path d="M99.8571 42.6661L106.5 28H87L93.6429 42.6661C95.4286 46.601 96.3571 50.8219 96.3571 55.0429V61.1955C96.3571 62.0541 95.5 62.7695 94.4286 62.7695H92.8571C92.4286 62.7695 92.0714 63.0556 92.0714 63.4134H101.429C101.429 63.0556 101.071 62.7695 100.643 62.7695H99.0714C98 62.7695 97.1429 62.0541 97.1429 61.1955V55.0429C97.1429 50.8219 98.0714 46.6725 99.8571 42.6661ZM97.0714 43.0954C97 43.31 96.5714 43.31 96.4286 43.0954L93.5 36.6566C93.4286 36.442 93.5714 36.2989 93.7857 36.2989H99.6429C99.8571 36.2989 100 36.5135 99.9286 36.6566L97.0714 43.0954Z" fill="#FB2E01"></path></g></svg>