<svg xmlns="http://www.w3.org/2000/svg" width="44" height="48" viewBox="0 0 44 48" fill="none"><path d="M24.2403 0.229406C22.8016 -0.0764686 21.1976 -0.0764686 19.7592 0.229406C19.402 0.305444 19.1463 0.621 19.1463 0.987359V3.15273C18.8888 3.24328 18.6338 3.34869 18.384 3.46621L16.8542 1.93409C16.5936 1.67315 16.1878 1.63306 15.881 1.83593C14.6365 2.66059 13.544 3.75515 12.7202 5.00147C12.517 5.30804 12.5587 5.71622 12.8183 5.97617L14.3436 7.50386C14.2201 7.7617 14.111 8.02195 14.0196 8.28359H11.8638C11.498 8.28359 11.1836 8.539 11.107 8.89742C11.0065 9.37265 10.951 9.8676 10.9168 10.367H2.98368C1.3379 10.367 0 11.707 0 13.3552V45.0124C0 46.66 1.33799 48 2.98368 48H41.0163C42.6621 48 44 46.66 44 45.0118V13.3546C44 11.7063 42.662 10.3664 41.0163 10.3664H33.0835C33.0494 9.86624 32.9938 9.37238 32.8934 8.8968C32.8168 8.53838 32.5024 8.28297 32.1366 8.28297H29.9808C29.8897 8.02202 29.782 7.76488 29.6592 7.51189L31.1821 5.98667C31.4395 5.72883 31.4826 5.32549 31.2849 5.01888C30.4694 3.75698 29.3724 2.65824 28.1124 1.84157C27.8063 1.64422 27.4043 1.68604 27.1461 1.94457L25.6232 3.46978C25.3713 3.34674 25.1138 3.2389 24.8533 3.14766V0.987519C24.8533 0.621504 24.5972 0.305445 24.2403 0.229406ZM42.4536 13.3545V45.0117C42.4536 45.8052 41.8082 46.4515 41.0159 46.4515H2.9833C2.19095 46.4515 1.54566 45.8052 1.54566 45.0117V13.3545C1.54566 12.5609 2.191 11.9147 2.9833 11.9147H10.9161C10.9509 12.4148 11.0058 12.9086 11.1062 13.3833C11.1828 13.7417 11.4972 13.9971 11.863 13.9971H14.0251C14.1179 14.2587 14.2239 14.5152 14.3436 14.7651L12.8177 16.2934C12.5602 16.5512 12.5171 16.9546 12.7148 17.2612C13.5358 18.5341 14.6018 19.6045 15.8835 20.4454C16.1889 20.6476 16.5947 20.6057 16.8535 20.3455L18.3833 18.8134C18.6332 18.9309 18.8882 19.0363 19.1456 19.1269V21.2915C19.1456 21.6568 19.4007 21.9727 19.7578 22.0495C20.4767 22.2019 21.2304 22.2803 21.9989 22.2803C22.7674 22.2803 23.5218 22.2022 24.2399 22.0495C24.5971 21.9727 24.8521 21.6568 24.8521 21.2915V19.1324C25.1127 19.0412 25.3701 18.9334 25.6221 18.8103L27.145 20.3355C27.4031 20.5947 27.8051 20.6359 28.1113 20.4385C29.383 19.6156 30.4521 18.548 31.2906 17.265C31.4908 16.9585 31.449 16.5527 31.1902 16.2935L29.6604 14.7614C29.7778 14.5112 29.883 14.2558 29.9734 13.9979H32.1355C32.5013 13.9979 32.8157 13.7425 32.8923 13.3841C32.9927 12.9089 33.0483 12.415 33.0825 11.9155H41.016C41.8083 11.9148 42.4536 12.5609 42.4536 13.3545ZM25.3711 5.08925C25.6748 5.26897 26.0613 5.22024 26.3105 4.97L27.7807 3.49761C28.4795 4.02158 29.1073 4.64962 29.6304 5.3502L28.1603 6.82188C27.9115 7.07108 27.8618 7.45749 28.0405 7.76163C28.3218 8.23997 28.5299 8.74013 28.6576 9.24641C28.7449 9.58927 29.0534 9.83017 29.4075 9.83017H31.4877C31.5464 10.2567 31.5768 10.6942 31.5768 11.1387C31.5768 11.5832 31.5468 12.0221 31.4877 12.4479H29.4075C29.0589 12.4479 28.7528 12.6826 28.6614 13.0192C28.5185 13.5443 28.3166 14.0388 28.0423 14.5314C27.8739 14.8341 27.9263 15.2112 28.1706 15.4559L29.6394 16.9269C29.1076 17.6354 28.4854 18.2561 27.7827 18.7818L26.3116 17.3085C26.0628 17.06 25.677 17.0088 25.3722 17.1892C24.8967 17.4695 24.3973 17.6776 23.8897 17.8079C23.548 17.8947 23.3075 18.2043 23.3075 18.5583V20.6417C22.4558 20.7592 21.5444 20.7592 20.6923 20.6417V18.5583C20.6923 18.2092 20.458 17.9026 20.1219 17.811C19.5977 17.6679 19.1039 17.4657 18.6121 17.191C18.3097 17.0213 17.9343 17.0748 17.6889 17.3195L16.2202 18.7905C15.5127 18.2572 14.893 17.6337 14.368 16.9301L15.8392 15.4567C16.0866 15.2096 16.1366 14.8266 15.962 14.5231C15.6877 14.0448 15.4834 13.553 15.3381 13.0204C15.247 12.6827 14.9409 12.4491 14.592 12.4491H12.5117C12.453 12.0226 12.4227 11.5843 12.4227 11.1398C12.4227 10.6954 12.4527 10.2571 12.5117 9.83132H14.592C14.946 9.83132 15.2535 9.59042 15.3419 9.24756C15.4685 8.74571 15.6773 8.24039 15.9617 7.7465C16.1363 7.44304 16.0863 7.05974 15.8388 6.81295L14.3725 5.34436C14.9012 4.65 15.5282 4.02132 16.2222 3.49177L17.6886 4.96036C17.9329 5.20506 18.3094 5.25932 18.6117 5.08893C19.1035 4.81484 19.5973 4.61197 20.1215 4.46888C20.4587 4.37764 20.692 4.07107 20.692 3.72164V1.63715C21.5437 1.51964 22.4551 1.51964 23.3072 1.63715V3.72058C23.3072 4.0745 23.5477 4.38314 23.8894 4.47093C24.397 4.60054 24.8957 4.80894 25.3711 5.08925Z" fill="white"></path><path d="M18.8786 11.1391C18.8786 12.8631 20.2794 14.2653 22.0001 14.2653C23.7208 14.2653 25.1215 12.8625 25.1215 11.1391C25.1215 9.41582 23.7208 8.01368 22.0001 8.01368C20.2794 8.01368 18.8786 9.41591 18.8786 11.1391ZM23.5754 11.1391C23.5754 12.0094 22.869 12.7169 22.0001 12.7169C21.1311 12.7169 20.4247 12.0094 20.4247 11.1391C20.4247 10.2696 21.1311 9.56208 22.0001 9.56208C22.869 9.56208 23.5754 10.2699 23.5754 11.1391Z" fill="white"></path><path d="M21.6871 25.633C21.3462 24.3825 20.2128 23.456 18.8581 23.456C17.5028 23.456 16.3706 24.3826 16.029 25.633H6.26065C5.83307 25.633 5.48763 25.979 5.48763 26.4072C5.48763 26.8354 5.83307 27.1814 6.26065 27.1814H16.0316C16.375 28.4288 17.5059 29.353 18.8587 29.353C20.2114 29.353 21.3423 28.4284 21.6857 27.1814H37.7381C38.1656 27.1814 38.5111 26.8354 38.5111 26.4072C38.5111 25.979 38.1656 25.633 37.7381 25.633H21.6871ZM18.8587 27.8049C18.0901 27.8049 17.4649 27.18 17.4611 26.4114C17.4611 26.41 17.4618 26.409 17.4618 26.4076C17.4618 26.4051 17.4604 26.4038 17.4604 26.4013C17.4618 25.631 18.0881 25.004 18.858 25.004C19.6286 25.004 20.2563 25.6327 20.2563 26.4044C20.2563 27.1762 19.6293 27.8049 18.8587 27.8049Z" fill="white"></path><path d="M37.7386 33.1122H33.5281C33.1871 31.8617 32.0538 30.9352 30.699 30.9352C29.3438 30.9352 28.2115 31.8618 27.8699 33.1122H6.26153C5.83396 33.1122 5.48851 33.4582 5.48851 33.8864C5.48851 34.3146 5.83396 34.6606 6.26153 34.6606H27.8726C28.2159 35.908 29.3469 36.8322 30.6996 36.8322C32.0523 36.8322 33.1832 35.9076 33.5266 34.6606H37.7389C38.1665 34.6606 38.512 34.3146 38.512 33.8864C38.5113 33.4582 38.1662 33.1122 37.7386 33.1122ZM30.6996 35.2831C29.929 35.2831 29.3013 34.6544 29.3013 33.8826C29.3013 33.1108 29.929 32.4821 30.6996 32.4821C31.4688 32.4821 32.0941 33.1077 32.0972 33.8771C32.0972 33.8802 32.0958 33.8827 32.0958 33.8858C32.0958 33.8882 32.0972 33.8896 32.0972 33.892C32.091 34.66 31.4671 35.2831 30.6996 35.2831Z" fill="white"></path><path d="M37.7386 40.5834H17.3432C16.9998 39.3361 15.8689 38.4126 14.5162 38.4126C13.1634 38.4126 12.0325 39.3361 11.6891 40.5834H6.26136C5.83378 40.5834 5.48833 40.9294 5.48833 41.3576C5.48833 41.7859 5.83378 42.1318 6.26136 42.1318H11.6881C12.029 43.383 13.1624 44.3096 14.5171 44.3096C15.8723 44.3096 17.0056 43.382 17.3462 42.1318H37.7381C38.1656 42.1318 38.5111 41.7859 38.5111 41.3576C38.5111 40.9294 38.1662 40.5834 37.7386 40.5834ZM14.5162 42.7612C13.7456 42.7612 13.1178 42.1325 13.1178 41.3607C13.1178 40.589 13.7456 39.9603 14.5162 39.9603C15.2868 39.9603 15.9145 40.589 15.9145 41.3607C15.9145 42.1325 15.2868 42.7612 14.5162 42.7612Z" fill="white"></path></svg>