<svg xmlns="http://www.w3.org/2000/svg" width="28" height="48" viewBox="0 0 28 48" fill="none"><path d="M23.2703 0H4.72969C2.11888 0 0 2.1504 0 4.80004V43.2C0 45.8496 2.11888 48 4.72969 48H23.2703C25.8811 48 28 45.8496 28 43.2V4.80004C28 2.1504 25.8811 0 23.2703 0ZM4.72969 1.92H23.2703C24.8405 1.92 26.1081 3.20637 26.1081 4.79995V7.87194H1.89229V4.79995C1.89229 3.20637 3.15981 1.92 4.73003 1.92H4.72969ZM26.1079 9.79203V37.3443H1.89212V9.79203H26.1079ZM23.2701 46.0802H4.72951C3.15929 46.0802 1.89177 44.7938 1.89177 43.2002V39.2642H26.1075V43.2002C26.1075 44.7938 24.84 46.0802 23.2698 46.0802H23.2701Z" fill="white"></path><path d="M12.5808 6.91194H15.4185C15.9388 6.91194 16.3645 6.47994 16.3645 5.9519C16.3645 5.42386 15.9388 4.99186 15.4185 4.99186H12.5808C12.0605 4.99186 11.6348 5.42386 11.6348 5.9519C11.6348 6.47994 12.0605 6.91194 12.5808 6.91194Z" fill="white"></path><path d="M14 39.84C12.4203 39.84 11.1433 41.1361 11.1433 42.7392C11.1433 44.3424 12.4204 45.6384 14 45.6384C15.5796 45.6384 16.8567 44.3424 16.8567 42.7392C16.8567 41.1456 15.5796 39.84 14 39.84ZM14 43.728C13.4608 43.728 13.0352 43.2864 13.0352 42.7489C13.0352 42.2017 13.4703 41.7697 14 41.7697C14.5297 41.7697 14.9648 42.2113 14.9648 42.7489C14.9648 43.2864 14.5297 43.728 14 43.728Z" fill="white"></path><path d="M12.496 34.6563C17.4716 34.6659 21.5199 30.5763 21.5294 25.5175C21.5294 24.9991 21.1132 24.5767 20.5929 24.5767H13.4322V17.2903C13.4322 16.7623 13.016 16.3302 12.4957 16.3302H12.4863C10.0836 16.3206 7.78504 17.2903 6.09176 19.0182C2.57286 22.6086 2.58237 28.4168 6.12013 31.9882C7.82285 33.697 10.1119 34.657 12.4957 34.657L12.496 34.6563ZM7.44479 20.3715C8.55154 19.2483 9.98935 18.5283 11.5406 18.3171V25.4979C11.5406 26.0355 11.9663 26.477 12.496 26.4963H19.5715C19.354 28.061 18.6445 29.5202 17.5473 30.6435C14.7473 33.4658 10.2163 33.4563 7.43545 30.6051C6.1112 29.2514 5.36388 27.4179 5.35445 25.4978C5.36391 23.5778 6.11119 21.7346 7.44496 20.3714L7.44479 20.3715Z" fill="white"></path><path d="M15.504 23.4242H23.5917C24.1025 23.4338 24.5282 23.021 24.5377 22.5026V22.493C24.5377 20.0642 23.5917 17.741 21.8985 16.0226C21.8985 16.0226 21.889 16.0226 21.889 16.013C20.1958 14.3041 17.9067 13.3442 15.5135 13.3442C14.9932 13.3442 14.577 13.7762 14.577 14.3042V22.5123C14.577 23.0211 14.9743 23.4339 15.4757 23.4339C15.4757 23.4243 15.4851 23.4243 15.504 23.4243L15.504 23.4242ZM16.4594 19.2578L19.2971 16.3682C19.4768 16.4834 19.6566 16.6082 19.8268 16.733L16.4593 20.1602L16.4594 19.2578ZM21.1606 18.077C21.293 18.2498 21.416 18.4226 21.5295 18.605L18.6539 21.5041H17.7647L21.1606 18.077ZM21.3309 21.5042L22.3619 20.4578C22.4565 20.8034 22.5228 21.149 22.5795 21.5042H21.3309ZM17.4525 15.533L16.4594 16.541V15.3314C16.7904 15.3794 17.1215 15.4466 17.4525 15.533Z" fill="white"></path></svg>