<svg xmlns="http://www.w3.org/2000/svg" width="52" height="48" viewBox="0 0 52 48" fill="none"><path d="M4.33398 5.45474C4.33398 5.01349 4.59768 4.61573 5.00248 4.44664C5.40727 4.27788 5.87337 4.37139 6.18315 4.68332C6.49291 4.99525 6.58576 5.46462 6.41818 5.87226C6.25024 6.2799 5.85524 6.54544 5.4171 6.54544C4.81897 6.54544 4.33402 6.05708 4.33402 5.45477L4.33398 5.45474ZM9.75049 6.5454C10.1887 6.5454 10.5837 6.27986 10.7512 5.87223C10.9191 5.46459 10.8263 4.99523 10.5165 4.68328C10.2068 4.37135 9.74066 4.27785 9.33585 4.4466C8.93106 4.61572 8.667 5.01349 8.667 5.4547C8.667 5.74399 8.78126 6.02122 8.98438 6.22613C9.18751 6.43068 9.46317 6.54538 9.75045 6.54538L9.75049 6.5454ZM14.0839 6.5454C14.5221 6.5454 14.9171 6.27986 15.0846 5.87223C15.2522 5.46459 15.1597 4.99523 14.85 4.68328C14.5398 4.37135 14.0741 4.27785 13.6693 4.4466C13.2645 4.61572 13.0004 5.01349 13.0004 5.4547C13.0004 5.74399 13.1147 6.02122 13.3178 6.22613C13.5209 6.43068 13.7966 6.54538 14.0839 6.54538L14.0839 6.5454ZM34.6665 6.5454H46.5837C47.1818 6.5454 47.6668 6.05704 47.6668 5.45474C47.6668 4.85206 47.1818 4.3637 46.5837 4.3637H34.6665C34.0684 4.3637 33.5834 4.85206 33.5834 5.45474C33.5834 6.05705 34.0684 6.5454 34.6665 6.5454ZM52 5.45474V42.5453C51.9982 43.9913 51.4273 45.3779 50.4117 46.4006C49.396 47.423 48.0195 47.9982 46.5835 48H5.4165C3.98048 47.9982 2.60397 47.4229 1.58831 46.4006C0.572646 45.3778 0.00176427 43.9913 0 42.5453V5.45474C0.00181358 4.00865 0.572738 2.62213 1.58831 1.59944C2.60397 0.577032 3.98048 0.00177663 5.4165 0H46.5835C48.0195 0.00182629 49.396 0.577116 50.4117 1.59944C51.4274 2.62222 51.9982 4.00874 52 5.45474ZM2.16671 5.45474V8.72748H49.8337V5.45474C49.8326 4.58688 49.4898 3.75515 48.8804 3.14156C48.2714 2.52792 47.4451 2.18274 46.5837 2.18199H5.41669C4.55523 2.18272 3.72893 2.52789 3.11998 3.14156C2.51061 3.7552 2.16783 4.5869 2.16671 5.45474ZM49.8337 42.5453V10.909H2.16671V42.5453C2.1678 43.4131 2.51057 44.2448 3.11998 44.8584C3.72899 45.4721 4.55526 45.8173 5.41669 45.818H46.5837C47.4451 45.8173 48.2714 45.4721 48.8804 44.8584C49.4898 44.2448 49.8325 43.4131 49.8337 42.5453ZM27.0838 25.0912V24.0002C27.0838 23.3979 26.5985 22.9091 26.0004 22.9091C25.4022 22.9091 24.9169 23.3979 24.9169 24.0002V25.0912C24.9169 25.6935 25.4022 26.1819 26.0004 26.1819C26.5985 26.1819 27.0838 25.6935 27.0838 25.0912ZM20.6379 28.4184L20.6375 28.418C21.0757 28.418 21.4707 28.1521 21.6383 27.7449C21.8058 27.3372 21.7133 26.8679 21.4036 26.5559L20.6375 25.7845V25.7848C20.2146 25.3586 19.5287 25.3586 19.1058 25.7848C18.6828 26.2107 18.6828 26.9014 19.1058 27.3273L19.8718 28.0988V28.0984C20.0746 28.3037 20.3502 28.4184 20.6375 28.418L20.6379 28.4184ZM17.3339 31.6367C16.7354 31.6367 16.2504 32.1251 16.2504 32.7274C16.2504 33.3301 16.7354 33.8184 17.3339 33.8184H18.4173H18.417C19.0155 33.8184 19.5004 33.3301 19.5004 32.7274C19.5004 32.1251 19.0155 31.6367 18.417 31.6367H17.3339ZM31.3636 25.7849L30.5975 26.5563V26.5559C30.3937 26.7605 30.279 27.0381 30.279 27.3277C30.2787 27.6174 30.3929 27.895 30.5961 28.0999C30.7995 28.3048 31.0756 28.4195 31.3632 28.4195C31.6509 28.4191 31.9265 28.3037 32.1293 28.0984L32.8953 27.327V27.3274C33.3183 26.9015 33.3183 26.2108 32.8953 25.7845C32.4724 25.3586 31.7865 25.3586 31.3636 25.7845L31.3636 25.7849ZM32.5007 32.7274C32.5007 33.017 32.6146 33.2946 32.8177 33.4992C33.0208 33.7037 33.2965 33.8184 33.5841 33.8184H34.6676H34.6672C35.2657 33.8184 35.7507 33.3301 35.7507 32.7274C35.7507 32.1251 35.2657 31.6367 34.6672 31.6367H33.5842C33.2965 31.6364 33.0208 31.7514 32.8177 31.956C32.6146 32.1605 32.5007 32.4381 32.5007 32.7274L32.5007 32.7274ZM30.0168 30.2261L28.925 31.3252C29.1368 31.762 29.2482 32.2416 29.2507 32.7274C29.2507 33.5956 28.9083 34.4281 28.2989 35.0417C27.6892 35.6553 26.8625 36.0001 26.0007 36.0001C25.1389 36.0001 24.3122 35.6553 23.7025 35.0417C23.0932 34.4281 22.7507 33.5956 22.7507 32.7274C22.7507 31.8595 23.0932 31.0271 23.7025 30.4135C24.3123 29.7995 25.1389 29.4546 26.0007 29.4546C26.4835 29.4572 26.9594 29.5693 27.3932 29.7826L28.4846 28.6836C28.909 28.2642 29.5894 28.2672 30.0099 28.6905C30.4299 29.1138 30.4332 29.799 30.0168 30.2261V30.2261ZM27.0842 32.7274C27.0827 32.4491 26.975 32.1821 26.7835 31.9815C26.7759 31.9742 26.7657 31.972 26.7581 31.9647C26.7505 31.957 26.7487 31.9468 26.7414 31.9392C26.3675 31.5881 25.8001 31.5498 25.383 31.8475C24.9659 32.1448 24.8136 32.6967 25.0188 33.1683C25.2238 33.6398 25.7294 33.9017 26.2296 33.795C26.7298 33.688 27.0867 33.2424 27.0842 32.7274L27.0842 32.7274ZM27.0842 38.1818L24.9173 38.1822C24.3192 38.1822 23.8342 38.6706 23.8342 39.2729C23.8342 39.8756 24.3192 40.3639 24.9173 40.3639H27.0842C27.6823 40.3639 28.1673 39.8756 28.1673 39.2729C28.1673 38.6706 27.6823 38.1822 27.0842 38.1822V38.1818ZM42.2504 32.7274C42.2581 35.1553 41.722 37.5536 40.6816 39.7437C40.501 40.1225 40.1209 40.3635 39.7041 40.3639H31.4171C30.8189 40.3639 30.334 39.8755 30.334 39.2729C30.334 38.6705 30.8189 38.1822 31.4171 38.1822H35.3551C36.3206 36.5286 36.8311 34.6458 36.8339 32.7274C36.8339 28.83 34.769 25.2286 31.4171 23.2794C28.0655 21.3307 23.9356 21.3307 20.5844 23.2794C17.2325 25.2281 15.1675 28.8295 15.1675 32.7274C15.1704 34.6458 15.6808 36.5286 16.6464 38.1822H20.5844C21.1825 38.1822 21.6675 38.6706 21.6675 39.2729C21.6675 39.8755 21.1825 40.3639 20.5844 40.3639H12.2966C11.8791 40.3639 11.4986 40.1221 11.3191 39.743C10.2796 37.5528 9.7438 35.1549 9.75104 32.7274C9.75104 28.3877 11.4631 24.2256 14.5107 21.1568C17.5579 18.0879 21.6911 16.3639 26.0007 16.3639C30.3104 16.3639 34.4438 18.0879 37.4908 21.1568C40.5384 24.2257 42.2504 28.3879 42.2504 32.7274V32.7274ZM40.0839 32.7274C40.0839 27.6608 37.3994 22.9793 33.042 20.4452C28.6847 17.9121 23.3163 17.9121 18.9594 20.4452C14.6021 22.9787 11.9176 27.6606 11.9176 32.7274C11.9118 34.6001 12.2792 36.4549 12.9978 38.1822H14.1792C12.3384 34.1296 12.671 29.4123 15.0624 25.6626C17.4538 21.9127 21.5755 19.6456 26.0009 19.6456C30.4263 19.6456 34.5481 21.9127 36.9394 25.6626C39.3308 29.4127 39.6634 34.1301 37.8226 38.1822H39.0029C39.7225 36.4552 40.0904 34.6004 40.0842 32.7274H40.0839Z" fill="white"></path></svg>