<svg xmlns="http://www.w3.org/2000/svg" width="100.000000pt" height="100.000000pt" viewBox="0 0 100.000000 100.000000" preserveAspectRatio="xMidYMid meet"><metadata>Created by potrace 1.16, written by Peter Selinger 2001-2019</metadata><g transform="translate(0.000000,100.000000) scale(0.100000,-0.100000)" fill="#000000" stroke="none"><path d="M165 923 c-44 -23 -65 -44 -86 -85 -17 -34 -19 -63 -19 -348 0 -285 2 -314 19 -348 22 -42 43 -63 88 -86 27 -14 76 -16 343 -16 285 0 314 2 348 19 42 22 63 43 86 88 14 27 16 76 16 343 0 285 -2 314 -19 348 -22 42 -43 63 -88 86 -47 24 -643 23 -688 -1z m464 -227 c14 -8 40 -29 58 -48 112 -116 76 -306 -72 -374 -230 -108 -440 190 -263 374 18 17 38 32 44 32 26 0 24 -21 -4 -45 -42 -36 -62 -84 -62 -152 0 -77 37 -140 102 -172 91 -44 197 -15 249 67 24 38 29 57 29 107 0 71 -21 116 -71 157 -19 15 -48 30 -66 34 l-32 6 -3 -48 c-2 -36 -7 -49 -18 -49 -19 0 -28 124 -10 135 14 9 82 -5 119 -24z"></path></g></svg>