<svg xmlns="http://www.w3.org/2000/svg" width="100.000000pt" height="100.000000pt" viewBox="0 0 100.000000 100.000000" preserveAspectRatio="xMidYMid meet"><metadata>Created by potrace 1.16, written by Peter Selinger 2001-2019</metadata><g transform="translate(0.000000,100.000000) scale(0.100000,-0.100000)" fill="#000000" stroke="none"><path d="M184 930 c-43 -13 -102 -76 -115 -122 -6 -25 -9 -153 -7 -342 3 -301 3 -303 27 -338 13 -19 40 -46 59 -59 l36 -24 326 0 326 0 36 24 c19 13 46 40 59 59 l24 36 0 325 c0 368 1 363 -79 419 l-39 27 -311 2 c-171 1 -325 -2 -342 -7z m155 -244 c8 -10 8 -21 1 -40 -5 -15 -10 -41 -10 -57 0 -24 4 -29 25 -29 35 0 79 -24 104 -56 15 -20 21 -41 21 -80 0 -48 -4 -59 -33 -91 -29 -31 -41 -37 -88 -40 -42 -3 -61 0 -87 16 -55 35 -72 75 -72 168 0 87 7 113 53 181 29 44 63 55 86 28z m335 -16 c-1 -14 -5 -44 -9 -67 l-8 -43 38 0 c30 0 45 -8 76 -39 36 -36 39 -43 39 -96 0 -53 -3 -60 -39 -96 -35 -35 -44 -39 -88 -39 -99 0 -155 68 -154 189 0 80 24 147 69 194 35 36 78 35 76 -3z"></path><path d="M262 575 c-35 -77 -23 -177 25 -215 58 -46 147 -7 147 63 0 55 -35 87 -96 87 -51 0 -53 2 -60 70 -3 24 -3 24 -16 -5z"></path><path d="M593 570 c-21 -63 -24 -96 -14 -141 20 -89 112 -121 165 -58 28 33 32 59 14 92 -18 35 -40 46 -90 47 -51 0 -52 2 -61 70 -2 23 -4 22 -14 -10z"></path></g></svg>