<svg xmlns="http://www.w3.org/2000/svg" width="100.000000pt" height="100.000000pt" viewBox="0 0 100.000000 100.000000" preserveAspectRatio="xMidYMid meet"><metadata>Created by potrace 1.16, written by Peter Selinger 2001-2019</metadata><g transform="translate(0.000000,100.000000) scale(0.100000,-0.100000)" fill="#000000" stroke="none"><path d="M163 921 c-26 -12 -52 -35 -70 -62 l-28 -42 -3 -306 c-2 -196 1 -319 7 -342 15 -51 48 -88 95 -110 37 -17 70 -19 346 -19 275 0 309 2 345 19 48 22 69 44 90 94 12 30 15 89 15 339 0 273 -2 307 -19 343 -22 48 -44 69 -94 90 -30 12 -89 15 -339 15 -276 0 -307 -2 -345 -19z m505 -374 c3 -238 1 -243 -69 -183 -76 64 -209 97 -195 48 16 -58 28 -133 23 -146 -9 -23 -83 -22 -95 2 -5 9 -17 49 -27 89 -9 39 -23 74 -31 77 -8 3 -14 12 -14 20 0 7 -9 16 -20 19 -17 4 -20 14 -20 67 0 53 3 63 20 67 11 3 20 14 20 24 0 24 34 32 107 25 32 -3 68 -6 81 -6 34 0 124 45 158 80 56 57 59 48 62 -183z"></path><path d="M592 680 c-36 -24 -95 -50 -149 -66 -9 -2 -13 -25 -13 -69 0 -54 3 -67 18 -71 42 -15 148 -67 164 -81 10 -9 20 -14 23 -11 3 3 4 78 3 166 l-3 161 -43 -29z"></path><path d="M290 545 l0 -85 55 0 55 0 0 85 0 85 -55 0 -55 0 0 -85z"></path></g></svg>