<svg xmlns="http://www.w3.org/2000/svg" width="100.000000pt" height="100.000000pt" viewBox="0 0 100.000000 100.000000" preserveAspectRatio="xMidYMid meet"><metadata>Created by potrace 1.16, written by Peter Selinger 2001-2019</metadata><g transform="translate(0.000000,100.000000) scale(0.100000,-0.100000)" fill="#000000" stroke="none"><path d="M165 924 c-44 -23 -76 -55 -91 -91 -20 -47 -20 -639 0 -686 16 -39 61 -82 99 -96 45 -17 639 -15 680 3 39 16 82 61 96 99 7 18 11 144 11 340 0 350 -1 353 -73 411 l-39 31 -326 3 c-282 2 -331 0 -357 -14z m416 -323 c43 -44 40 -86 -11 -139 -46 -48 -70 -54 -70 -17 0 15 11 32 30 46 36 27 43 44 29 70 -15 30 -60 22 -77 -14 -16 -33 -45 -33 -50 1 -2 14 7 33 27 52 40 40 82 40 122 1z"></path></g></svg>