<svg xmlns="http://www.w3.org/2000/svg" width="100.000000pt" height="100.000000pt" viewBox="0 0 100.000000 100.000000" preserveAspectRatio="xMidYMid meet"><g transform="translate(0.000000,100.000000) scale(0.100000,-0.100000)" fill="#000000" stroke="none"><path d="M165 923 c-44 -23 -65 -44 -86 -85 -17 -34 -19 -63 -19 -348 0 -285 2 -314 19 -348 22 -42 43 -63 88 -86 27 -14 76 -16 343 -16 285 0 314 2 348 19 42 22 63 43 86 88 14 27 16 76 16 343 0 285 -2 314 -19 348 -22 42 -43 63 -88 86 -47 24 -643 23 -688 -1z m426 -174 c31 -16 12 -28 -28 -17 -48 13 -108 3 -160 -28 -43 -25 -66 -19 -35 9 46 42 174 63 223 36z m76 -35 c3 -8 -2 -23 -11 -32 -15 -15 -17 -15 -32 0 -21 21 -11 48 16 48 11 0 23 -7 27 -16z m63 5 c0 -13 -91 -119 -102 -119 -18 0 -5 24 40 76 47 53 62 64 62 43z m-380 -59 c0 -5 -7 -10 -15 -10 -8 0 -15 5 -15 10 0 6 7 10 15 10 8 0 15 -4 15 -10z m230 -65 l0 -65 50 0 49 0 3 -67 3 -68 19 40 c11 22 20 64 20 95 2 76 21 61 21 -16 0 -51 -5 -69 -32 -113 -18 -29 -33 -55 -33 -57 0 -3 20 -2 43 1 34 5 48 3 60 -10 21 -20 22 -49 3 -68 -16 -15 -157 -57 -193 -57 -12 0 -68 18 -124 40 -104 41 -139 48 -139 30 0 -5 -25 -10 -55 -10 l-55 0 0 110 0 110 30 0 c28 0 30 2 30 39 0 45 18 101 32 101 6 0 8 -12 4 -30 -3 -16 -9 -43 -12 -58 -4 -19 -1 -34 10 -45 9 -8 16 -20 16 -26 0 -6 4 -11 10 -11 5 0 10 28 12 63 l3 62 48 3 c44 3 47 5 47 31 0 38 5 41 72 41 l58 0 0 -65z m148 43 c7 -7 8 -17 1 -30 -12 -22 -32 -23 -49 -3 -23 28 21 60 48 33z"></path><path d="M480 542 l0 -98 33 -12 c18 -7 35 -12 38 -12 2 0 3 49 1 110 l-3 110 -35 0 -34 0 0 -98z"></path><path d="M380 510 l0 -50 35 0 35 0 0 50 0 50 -35 0 -35 0 0 -50z"></path><path d="M582 410 c2 -83 4 -90 23 -89 46 1 50 10 50 97 l0 82 -38 0 -38 0 3 -90z"></path><path d="M244 457 c-3 -8 -4 -47 -2 -88 3 -74 3 -74 31 -74 l29 0 0 85 c0 84 0 85 -26 88 -16 2 -28 -2 -32 -11z"></path><path d="M330 375 c0 -65 0 -65 28 -65 16 0 69 -16 118 -35 101 -40 119 -41 212 -19 76 19 103 37 84 56 -9 9 -30 8 -94 -4 -82 -16 -84 -16 -158 9 -41 13 -79 28 -84 34 -20 19 5 21 49 4 51 -19 75 -15 75 13 0 26 -114 72 -180 72 l-50 0 0 -65z"></path></g></svg>