<svg xmlns="http://www.w3.org/2000/svg" width="100.000000pt" height="100.000000pt" viewBox="0 0 100.000000 100.000000" preserveAspectRatio="xMidYMid meet"><metadata>Created by potrace 1.16, written by Peter Selinger 2001-2019</metadata><g transform="translate(0.000000,100.000000) scale(0.100000,-0.100000)" fill="#000000" stroke="none"><path d="M165 923 c-44 -23 -65 -44 -86 -85 -17 -34 -19 -63 -19 -348 0 -285 2 -314 19 -348 22 -42 43 -63 88 -86 27 -14 76 -16 343 -16 285 0 314 2 348 19 42 22 63 43 86 88 14 27 16 76 16 343 0 285 -2 314 -19 348 -22 42 -43 63 -88 86 -47 24 -643 23 -688 -1z m585 -258 l0 -55 35 0 35 0 -2 -172 -3 -173 -304 -3 c-216 -2 -308 1 -317 9 -11 9 -14 47 -14 162 l0 151 67 68 67 68 218 0 218 0 0 -55z"></path><path d="M338 628 l-3 -63 -63 -3 -63 -3 3 -137 3 -137 253 -3 252 -2 0 205 0 205 -190 0 -189 0 -3 -62z m87 -193 l0 -100 -90 0 -90 0 -3 89 c-2 49 0 96 2 103 4 11 26 13 93 11 l88 -3 0 -100z"></path></g></svg>