<svg xmlns="http://www.w3.org/2000/svg" width="100.000000pt" height="100.000000pt" viewBox="0 0 100.000000 100.000000" preserveAspectRatio="xMidYMid meet"><metadata>Created by potrace 1.16, written by Peter Selinger 2001-2019</metadata><g transform="translate(0.000000,100.000000) scale(0.100000,-0.100000)" fill="#000000" stroke="none"><path d="M165 923 c-44 -23 -65 -44 -86 -85 -17 -34 -19 -63 -19 -348 0 -285 2 -314 19 -348 22 -42 43 -63 88 -86 27 -14 76 -16 343 -16 285 0 314 2 348 19 42 22 63 43 86 88 14 27 16 76 16 343 0 285 -2 314 -19 348 -22 42 -43 63 -88 86 -47 24 -643 23 -688 -1z m593 -259 c21 -15 22 -20 22 -199 0 -179 -1 -184 -22 -199 -33 -24 -463 -24 -496 0 -21 15 -22 20 -22 199 0 179 1 184 22 199 33 24 463 24 496 0z"></path><path d="M274 637 c-2 -7 -3 -89 -2 -182 l3 -170 235 0 235 0 3 174 c2 133 -1 176 -10 183 -7 4 -113 8 -236 8 -172 0 -224 -3 -228 -13z"></path></g></svg>