<svg xmlns="http://www.w3.org/2000/svg" width="100.000000pt" height="100.000000pt" viewBox="0 0 100.000000 100.000000" preserveAspectRatio="xMidYMid meet"><g transform="translate(0.000000,100.000000) scale(0.100000,-0.100000)" fill="#000000" stroke="none"><path d="M160 921 c-19 -10 -48 -35 -65 -55 l-30 -38 0 -338 0 -338 30 -38 c60 -74 61 -74 415 -74 354 0 355 0 415 74 l30 38 0 338 0 338 -30 38 c-60 74 -61 74 -415 74 -288 0 -318 -2 -350 -19z m517 -227 c51 -37 63 -77 63 -204 0 -128 -12 -167 -63 -204 -24 -18 -46 -22 -141 -24 -141 -4 -186 7 -223 55 -27 36 -28 40 -28 167 0 106 3 137 18 163 32 59 78 73 229 70 100 -3 122 -6 145 -23z"></path><path d="M373 660 c-36 -15 -43 -43 -43 -175 0 -120 1 -127 25 -150 23 -24 29 -25 155 -25 126 0 132 1 155 25 24 23 25 29 25 153 0 179 3 176 -167 179 -70 2 -138 -2 -150 -7z m271 -26 c21 -8 21 -43 0 -51 -8 -3 -23 1 -31 10 -13 13 -14 19 -3 31 14 18 13 18 34 10z m-89 -38 c39 -16 75 -68 75 -106 0 -56 -65 -120 -123 -120 -40 0 -91 41 -106 86 -13 37 -12 44 5 80 12 24 32 46 54 56 42 22 51 22 95 4z"></path><path d="M460 540 c-45 -45 -11 -120 53 -120 42 0 67 26 67 68 0 41 -31 72 -70 72 -17 0 -39 -9 -50 -20z"></path></g></svg>