<svg xmlns="http://www.w3.org/2000/svg" width="100.000000pt" height="100.000000pt" viewBox="0 0 100.000000 100.000000" preserveAspectRatio="xMidYMid meet"><g transform="translate(0.000000,100.000000) scale(0.100000,-0.100000)" fill="#000000" stroke="none"><path d="M160 921 c-19 -10 -48 -35 -65 -55 l-30 -38 0 -338 0 -338 30 -38 c60 -74 61 -74 415 -74 354 0 355 0 415 74 l30 38 0 338 0 338 -30 38 c-60 74 -61 74 -415 74 -288 0 -318 -2 -350 -19z m470 -200 l0 -50 -42 -3 c-42 -3 -43 -4 -46 -40 l-3 -38 45 0 c50 0 50 -1 40 -62 -6 -36 -8 -38 -45 -38 l-39 0 0 -140 0 -141 -56 3 -56 3 1 138 2 137 -31 0 c-29 0 -30 1 -30 50 0 49 1 50 30 50 30 0 30 1 30 54 0 39 6 60 21 80 28 36 52 45 122 45 l57 1 0 -49z"></path></g></svg>