<svg xmlns="http://www.w3.org/2000/svg" width="100.000000pt" height="100.000000pt" viewBox="0 0 100.000000 100.000000" preserveAspectRatio="xMidYMid meet"><g transform="translate(0.000000,100.000000) scale(0.100000,-0.100000)" fill="#000000" stroke="none"><path d="M160 921 c-19 -10 -48 -35 -65 -55 l-30 -38 0 -338 0 -338 30 -38 c60 -74 61 -74 415 -74 354 0 355 0 415 74 l30 38 0 338 0 338 -30 38 c-60 74 -61 74 -415 74 -288 0 -318 -2 -350 -19z m551 -300 c16 -20 19 -40 19 -131 0 -161 8 -155 -220 -155 -228 0 -220 -5 -220 154 0 118 10 146 58 154 15 3 98 4 185 4 154 -2 159 -3 178 -26z"></path><path d="M470 490 c0 -33 2 -60 4 -60 11 0 96 53 96 60 0 7 -85 60 -96 60 -2 0 -4 -27 -4 -60z"></path></g></svg>