<svg xmlns="http://www.w3.org/2000/svg" width="72" height="72" viewBox="0 0 72 72"><path d="M 12 1.500 C 12 1.775, 12.225 2, 12.500 2 C 12.775 2, 13 1.775, 13 1.500 C 13 1.225, 12.775 1, 12.500 1 C 12.225 1, 12 1.225, 12 1.500 M 45 1.500 C 45 1.775, 45.225 2, 45.500 2 C 45.775 2, 46 1.775, 46 1.500 C 46 1.225, 45.775 1, 45.500 1 C 45.225 1, 45 1.225, 45 1.500 M 15 2.500 C 15 2.775, 15.225 3, 15.500 3 C 15.775 3, 16 2.775, 16 2.500 C 16 2.225, 15.775 2, 15.500 2 C 15.225 2, 15 2.225, 15 2.500 M 38 2.500 C 38 2.775, 38.225 3, 38.500 3 C 38.775 3, 39 2.775, 39 2.500 C 39 2.225, 38.775 2, 38.500 2 C 38.225 2, 38 2.225, 38 2.500 M 8 5.500 C 8 5.775, 8.225 6, 8.500 6 C 8.775 6, 9 5.775, 9 5.500 C 9 5.225, 8.775 5, 8.500 5 C 8.225 5, 8 5.225, 8 5.500 M 18.333 5.667 C 18.700 6.033, 19.300 6.033, 19.667 5.667 C 20.033 5.300, 19.733 5, 19 5 C 18.267 5, 17.967 5.300, 18.333 5.667 M 5.507 11.989 C 5.157 12.555, 5.558 12.723, 6.448 12.382 C 8.180 11.717, 8.497 11, 7.059 11 C 6.541 11, 5.843 11.445, 5.507 11.989 M 12 12.500 C 12 12.775, 12.225 13, 12.500 13 C 12.775 13, 13 12.775, 13 12.500 C 13 12.225, 12.775 12, 12.500 12 C 12.225 12, 12 12.225, 12 12.500 M 23 14.500 C 23 14.775, 23.225 15, 23.500 15 C 23.775 15, 24 14.775, 24 14.500 C 24 14.225, 23.775 14, 23.500 14 C 23.225 14, 23 14.225, 23 14.500 M 26 19.500 C 26 19.775, 26.225 20, 26.500 20 C 26.775 20, 27 19.775, 27 19.500 C 27 19.225, 26.775 19, 26.500 19 C 26.225 19, 26 19.225, 26 19.500 M 45 19.500 C 45 19.775, 45.225 20, 45.500 20 C 45.775 20, 46 19.775, 46 19.500 C 46 19.225, 45.775 19, 45.500 19 C 45.225 19, 45 19.225, 45 19.500 M 59 21.500 C 59 21.775, 59.225 22, 59.500 22 C 59.775 22, 60 21.775, 60 21.500 C 60 21.225, 59.775 21, 59.500 21 C 59.225 21, 59 21.225, 59 21.500 M 23 22.500 C 23 22.775, 23.225 23, 23.500 23 C 23.775 23, 24 22.775, 24 22.500 C 24 22.225, 23.775 22, 23.500 22 C 23.225 22, 23 22.225, 23 22.500 M 44 22.500 C 44 22.775, 44.225 23, 44.500 23 C 44.775 23, 45 22.775, 45 22.500 C 45 22.225, 44.775 22, 44.500 22 C 44.225 22, 44 22.225, 44 22.500 M 48 22.500 C 48 22.775, 48.225 23, 48.500 23 C 48.775 23, 49 22.775, 49 22.500 C 49 22.225, 48.775 22, 48.500 22 C 48.225 22, 48 22.225, 48 22.500 M 25 24.500 C 25 24.775, 25.225 25, 25.500 25 C 25.775 25, 26 24.775, 26 24.500 C 26 24.225, 25.775 24, 25.500 24 C 25.225 24, 25 24.225, 25 24.500 M 46 24.500 C 46 24.775, 46.225 25, 46.500 25 C 46.775 25, 47 24.775, 47 24.500 C 47 24.225, 46.775 24, 46.500 24 C 46.225 24, 46 24.225, 46 24.500 M 55 26.500 C 55 26.775, 55.225 27, 55.500 27 C 55.775 27, 56 26.775, 56 26.500 C 56 26.225, 55.775 26, 55.500 26 C 55.225 26, 55 26.225, 55 26.500 M 26 29.500 C 26 29.775, 26.225 30, 26.500 30 C 26.775 30, 27 29.775, 27 29.500 C 27 29.225, 26.775 29, 26.500 29 C 26.225 29, 26 29.225, 26 29.500 M 56 30.500 C 56 30.775, 56.225 31, 56.500 31 C 56.775 31, 57 30.775, 57 30.500 C 57 30.225, 56.775 30, 56.500 30 C 56.225 30, 56 30.225, 56 30.500 M 62 32 C 62 32.733, 62.300 33.033, 62.667 32.667 C 63.033 32.300, 63.033 31.700, 62.667 31.333 C 62.300 30.967, 62 31.267, 62 32 M 9 32.500 C 9 32.775, 9.225 33, 9.500 33 C 9.775 33, 10 32.775, 10 32.500 C 10 32.225, 9.775 32, 9.500 32 C 9.225 32, 9 32.225, 9 32.500 M 13 35.500 C 13 35.775, 13.225 36, 13.500 36 C 13.775 36, 14 35.775, 14 35.500 C 14 35.225, 13.775 35, 13.500 35 C 13.225 35, 13 35.225, 13 35.500 M 26 40.500 C 26 40.775, 26.225 41, 26.500 41 C 26.775 41, 27 40.775, 27 40.500 C 27 40.225, 26.775 40, 26.500 40 C 26.225 40, 26 40.225, 26 40.500 M 33 46.500 C 33 46.775, 33.225 47, 33.500 47 C 33.775 47, 34 46.775, 34 46.500 C 34 46.225, 33.775 46, 33.500 46 C 33.225 46, 33 46.225, 33 46.500 M 51 48.500 C 51 48.775, 51.225 49, 51.500 49 C 51.775 49, 52 48.775, 52 48.500 C 52 48.225, 51.775 48, 51.500 48 C 51.225 48, 51 48.225, 51 48.500 M 26 50.500 C 26 50.775, 26.225 51, 26.500 51 C 26.775 51, 27 50.775, 27 50.500 C 27 50.225, 26.775 50, 26.500 50 C 26.225 50, 26 50.225, 26 50.500 M 23 51.500 C 23 51.775, 23.225 52, 23.500 52 C 23.775 52, 24 51.775, 24 51.500 C 24 51.225, 23.775 51, 23.500 51 C 23.225 51, 23 51.225, 23 51.500 M 48 51.500 C 48 51.775, 48.225 52, 48.500 52 C 48.775 52, 49 51.775, 49 51.500 C 49 51.225, 48.775 51, 48.500 51 C 48.225 51, 48 51.225, 48 51.500 M 32.728 62.722 C 34.503 62.943, 37.653 62.946, 39.728 62.730 C 41.802 62.513, 40.350 62.333, 36.500 62.328 C 32.650 62.324, 30.952 62.501, 32.728 62.722 M 32 67.500 C 32 67.775, 32.225 68, 32.500 68 C 32.775 68, 33 67.775, 33 67.500 C 33 67.225, 32.775 67, 32.500 67 C 32.225 67, 32 67.225, 32 67.500 M 38 68.500 C 38 68.775, 38.225 69, 38.500 69 C 38.775 69, 39 68.775, 39 68.500 C 39 68.225, 38.775 68, 38.500 68 C 38.225 68, 38 68.225, 38 68.500 M 41 69.500 C 41 69.775, 41.225 70, 41.500 70 C 41.775 70, 42 69.775, 42 69.500 C 42 69.225, 41.775 69, 41.500 69 C 41.225 69, 41 69.225, 41 69.500" stroke="none" fill="#d42424" fill-rule="evenodd"></path><path d="M 12.221 2.413 C 11.617 3.741, 10.194 5.121, 9.061 5.481 C 6.305 6.355, 6.456 7.843, 9.414 8.967 C 10.742 9.472, 12.123 10.811, 12.482 11.943 C 13.317 14.576, 14.683 14.576, 15.518 11.943 C 15.877 10.811, 17.258 9.472, 18.586 8.967 C 21.599 7.822, 21.650 6.759, 18.750 5.487 C 17.512 4.944, 16.056 3.488, 15.513 2.250 C 14.255 -0.617, 13.587 -0.584, 12.221 2.413 M 34 1.470 C 34 2.483, 35.010 2.906, 37.250 2.833 C 41.088 2.708, 47.122 5.093, 51.593 8.503 C 55.672 11.614, 60 20.238, 60 25.254 C 60 33.941, 58.061 38.060, 50.357 45.739 L 43.073 53 36.002 53 L 28.931 53 22.588 46.750 C 14.780 39.057, 13.343 36.787, 12.464 30.750 C 11.986 27.466, 11.303 26, 10.251 26 C 9.021 26, 8.847 26.867, 9.345 30.503 C 10.225 36.923, 13.034 41.823, 19.071 47.469 C 21.964 50.176, 23.806 52.565, 23.165 52.778 C 21.206 53.431, 21.871 56, 24 56 C 25.100 56, 26 56.450, 26 57 C 26 57.550, 25.550 58, 25 58 C 24.450 58, 24 58.675, 24 59.500 C 24 60.325, 24.450 61, 25 61 C 25.550 61, 26 61.900, 26 63 C 26 64.100, 26.563 65.010, 27.250 65.022 C 27.938 65.034, 29.175 66.496, 30 68.272 C 31.289 71.047, 32.081 71.542, 35.636 71.802 C 39.431 72.079, 39.954 71.810, 41.968 68.552 C 43.175 66.598, 44.576 65, 45.082 65 C 45.587 65, 46 64.100, 46 63 C 46 61.900, 46.450 61, 47 61 C 47.550 61, 48 60.325, 48 59.500 C 48 58.675, 47.550 58, 47 58 C 46.450 58, 46 57.550, 46 57 C 46 56.450, 46.900 56, 48 56 C 50.186 56, 50.761 53.461, 48.750 52.684 C 47.940 52.371, 48.555 51.281, 50.500 49.586 C 56.837 44.064, 58.191 42.546, 60.079 38.845 C 66.815 25.641, 60.731 8.309, 47.270 2.356 C 41.134 -0.358, 34 -0.834, 34 1.470 M 27.441 6.468 C 26.374 7.276, 24.738 7.951, 23.807 7.968 C 22.021 8.002, 18.777 11.830, 19.518 13.029 C 19.757 13.416, 19.063 14.538, 17.976 15.521 C 16.889 16.505, 16 18.564, 16 20.096 C 16 21.628, 15.550 23.160, 15 23.500 C 13.702 24.302, 13.702 29.698, 15 30.500 C 15.550 30.840, 16 31.950, 16 32.967 C 16 36.172, 21.130 44.912, 23.378 45.536 C 24.545 45.860, 26.512 46.623, 27.750 47.232 C 29.456 48.071, 30.604 48.015, 32.500 47 L 35 45.662 35 26.888 C 35 8.620, 34.940 8.071, 32.777 6.557 C 30.050 4.646, 29.854 4.643, 27.441 6.468 M 39.223 6.557 C 37.063 8.069, 37 8.634, 37 26.485 C 37 41.854, 37.257 45.114, 38.571 46.429 C 40.277 48.134, 43.556 48.527, 44.420 47.129 C 44.716 46.650, 46.285 45.993, 47.907 45.669 C 50.213 45.207, 51.416 43.963, 53.428 39.957 C 54.842 37.140, 56 33.748, 56 32.418 C 56 31.088, 56.450 30, 57 30 C 57.550 30, 58 28.677, 58 27.059 C 58 25.441, 57.550 23.840, 57 23.500 C 56.450 23.160, 56 21.614, 56 20.063 C 56 18.513, 55.325 16.685, 54.500 16 C 53.675 15.315, 53 13.980, 53 13.033 C 53 11.026, 49.980 8.014, 47.921 7.968 C 47.140 7.951, 45.626 7.276, 44.559 6.468 C 42.146 4.643, 41.950 4.646, 39.223 6.557 M 13 7 C 13 7.550, 13.450 8, 14 8 C 14.550 8, 15 7.550, 15 7 C 15 6.450, 14.550 6, 14 6 C 13.450 6, 13 6.450, 13 7 M 28.710 11 C 29.074 12.391, 28.741 13, 27.617 13 C 26.727 13, 26 12.550, 26 12 C 26 11.450, 25.325 11, 24.500 11 C 23.667 11, 23 11.889, 23 13 C 23 14.100, 23.450 15, 24 15 C 24.550 15, 25 15.692, 25 16.538 C 25 17.619, 24.183 17.990, 22.250 17.788 C 20.081 17.561, 19.435 17.957, 19.192 19.664 C 18.784 22.529, 22.796 24, 24.534 21.623 C 25.986 19.637, 28 19.499, 28 21.385 C 28 23.797, 23.194 26.202, 19.843 25.466 C 17.248 24.896, 16.872 25.065, 17.217 26.650 C 17.622 28.516, 18.209 28.652, 21.068 27.537 C 22.920 26.815, 28 30.506, 28 32.573 C 28 34.503, 25.364 34.392, 24.611 32.430 C 23.721 30.110, 19.500 30.994, 19.500 33.500 C 19.500 34.938, 20.272 35.589, 22.250 35.816 C 25.031 36.136, 25.833 37.367, 24 38.500 C 22.769 39.261, 22.667 43, 23.878 43 C 24.360 43, 25.315 42.325, 26 41.500 C 27.820 39.307, 29.172 39.668, 28.813 42.250 C 28.608 43.722, 29.018 44.500, 30 44.500 C 31.267 44.500, 31.542 41.740, 31.773 26.750 C 32.034 9.789, 31.960 9, 30.117 9 C 28.680 9, 28.321 9.510, 28.710 11 M 40.227 26.750 C 40.458 41.740, 40.733 44.500, 42 44.500 C 42.982 44.500, 43.392 43.722, 43.187 42.250 C 42.830 39.681, 45.428 39.067, 46.362 41.500 C 46.678 42.325, 47.401 43, 47.969 43 C 49.292 43, 49.318 39.315, 48 38.500 C 46.167 37.367, 46.969 36.136, 49.750 35.816 C 51.728 35.589, 52.500 34.938, 52.500 33.500 C 52.500 30.994, 48.279 30.110, 47.389 32.430 C 46.674 34.293, 43.993 34.547, 44.015 32.750 C 44.056 29.409, 48.999 26.394, 51.895 27.944 C 53.269 28.679, 54.091 28.595, 54.886 27.637 C 56.463 25.737, 55.115 24.888, 51.572 25.550 C 49.287 25.977, 47.923 25.585, 46.250 24.023 C 45.013 22.867, 44 21.490, 44 20.961 C 44 19.433, 46.167 19.846, 47.466 21.623 C 49.204 24, 53.216 22.529, 52.808 19.664 C 52.565 17.957, 51.919 17.561, 49.750 17.788 C 46.986 18.077, 45.805 15.857, 48 14.500 C 49.545 13.545, 49.181 11, 47.500 11 C 46.675 11, 46 11.450, 46 12 C 46 12.550, 45.273 13, 44.383 13 C 43.259 13, 42.926 12.391, 43.290 11 C 43.679 9.510, 43.320 9, 41.883 9 C 40.040 9, 39.966 9.789, 40.227 26.750 M 4.592 14.500 C 3.691 15.875, 2.289 17, 1.477 17 C -0.726 17, -0.308 19.686, 1.988 20.287 C 3.081 20.573, 4.420 21.975, 4.963 23.403 C 6.222 26.713, 7.778 26.713, 9.037 23.403 C 9.580 21.975, 10.919 20.573, 12.012 20.287 C 14.798 19.558, 14.491 17.340, 11.500 16.589 C 9.886 16.184, 9 15.260, 9 13.981 C 9 11.219, 6.553 11.507, 4.592 14.500 M 6 19.059 C 6 19.641, 6.450 19.840, 7 19.500 C 7.550 19.160, 8 18.684, 8 18.441 C 8 18.198, 7.550 18, 7 18 C 6.450 18, 6 18.477, 6 19.059 M 29 57 C 29 57.571, 32 58, 36 58 C 40 58, 43 57.571, 43 57 C 43 56.429, 40 56, 36 56 C 32 56, 29 56.429, 29 57 M 29.500 62 C 29.840 62.550, 33.016 63, 36.559 63 C 40.186 63, 43 62.563, 43 62 C 43 61.428, 39.980 61, 35.941 61 C 31.490 61, 29.110 61.369, 29.500 62 M 32 66.393 C 32 69.136, 38.394 70.022, 39.393 67.418 C 40.313 65.021, 40.284 65, 36 65 C 33.248 65, 32 65.434, 32 66.393" stroke="none" fill="#cc2424" fill-rule="evenodd"></path></svg>