<svg xmlns="http://www.w3.org/2000/svg" width="72" height="72" viewBox="0 0 72 72"><path d="M 37 8.500 C 37 8.775, 37.225 9, 37.500 9 C 37.775 9, 38 8.775, 38 8.500 C 38 8.225, 37.775 8, 37.500 8 C 37.225 8, 37 8.225, 37 8.500 M 57 9.500 C 57 9.775, 57.225 10, 57.500 10 C 57.775 10, 58 9.775, 58 9.500 C 58 9.225, 57.775 9, 57.500 9 C 57.225 9, 57 9.225, 57 9.500 M 66 10.500 C 66 10.775, 66.225 11, 66.500 11 C 66.775 11, 67 10.775, 67 10.500 C 67 10.225, 66.775 10, 66.500 10 C 66.225 10, 66 10.225, 66 10.500 M 61 11.500 C 61 11.775, 61.225 12, 61.500 12 C 61.775 12, 62 11.775, 62 11.500 C 62 11.225, 61.775 11, 61.500 11 C 61.225 11, 61 11.225, 61 11.500 M 51 12.500 C 51 12.775, 51.225 13, 51.500 13 C 51.775 13, 52 12.775, 52 12.500 C 52 12.225, 51.775 12, 51.500 12 C 51.225 12, 51 12.225, 51 12.500 M 53 13.500 C 53 13.775, 53.225 14, 53.500 14 C 53.775 14, 54 13.775, 54 13.500 C 54 13.225, 53.775 13, 53.500 13 C 53.225 13, 53 13.225, 53 13.500 M 37 14.500 C 37 14.775, 37.225 15, 37.500 15 C 37.775 15, 38 14.775, 38 14.500 C 38 14.225, 37.775 14, 37.500 14 C 37.225 14, 37 14.225, 37 14.500 M 39 15.500 C 39 15.775, 39.225 16, 39.500 16 C 39.775 16, 40 15.775, 40 15.500 C 40 15.225, 39.775 15, 39.500 15 C 39.225 15, 39 15.225, 39 15.500 M 8.750 17.732 C 11.087 17.943, 14.912 17.943, 17.250 17.732 C 19.587 17.522, 17.675 17.349, 13 17.349 C 8.325 17.349, 6.412 17.522, 8.750 17.732 M 43 17.500 C 43 17.775, 43.225 18, 43.500 18 C 43.775 18, 44 17.775, 44 17.500 C 44 17.225, 43.775 17, 43.500 17 C 43.225 17, 43 17.225, 43 17.500 M 53 19.500 C 53 19.775, 53.225 20, 53.500 20 C 53.775 20, 54 19.775, 54 19.500 C 54 19.225, 53.775 19, 53.500 19 C 53.225 19, 53 19.225, 53 19.500 M 59.158 25 C 59.158 26.375, 59.385 26.938, 59.662 26.250 C 59.940 25.563, 59.940 24.438, 59.662 23.750 C 59.385 23.063, 59.158 23.625, 59.158 25 M 49 24.500 C 49 24.775, 49.225 25, 49.500 25 C 49.775 25, 50 24.775, 50 24.500 C 50 24.225, 49.775 24, 49.500 24 C 49.225 24, 49 24.225, 49 24.500 M 12 28.500 C 12 28.775, 12.225 29, 12.500 29 C 12.775 29, 13 28.775, 13 28.500 C 13 28.225, 12.775 28, 12.500 28 C 12.225 28, 12 28.225, 12 28.500 M 69 28.500 C 69 28.775, 69.225 29, 69.500 29 C 69.775 29, 70 28.775, 70 28.500 C 70 28.225, 69.775 28, 69.500 28 C 69.225 28, 69 28.225, 69 28.500 M 61 29.500 C 61 29.775, 61.225 30, 61.500 30 C 61.775 30, 62 29.775, 62 29.500 C 62 29.225, 61.775 29, 61.500 29 C 61.225 29, 61 29.225, 61 29.500 M 69 30.500 C 69 30.775, 69.225 31, 69.500 31 C 69.775 31, 70 30.775, 70 30.500 C 70 30.225, 69.775 30, 69.500 30 C 69.225 30, 69 30.225, 69 30.500 M 56 32.500 C 56 32.775, 56.225 33, 56.500 33 C 56.775 33, 57 32.775, 57 32.500 C 57 32.225, 56.775 32, 56.500 32 C 56.225 32, 56 32.225, 56 32.500 M 2 35.500 C 2 35.775, 2.225 36, 2.500 36 C 2.775 36, 3 35.775, 3 35.500 C 3 35.225, 2.775 35, 2.500 35 C 2.225 35, 2 35.225, 2 35.500 M 11.750 35.723 C 13.538 35.945, 16.462 35.945, 18.250 35.723 C 20.038 35.502, 18.575 35.320, 15 35.320 C 11.425 35.320, 9.962 35.502, 11.750 35.723 M 7 37 C 7 37.733, 7.300 38.033, 7.667 37.667 C 8.033 37.300, 8.033 36.700, 7.667 36.333 C 7.300 35.967, 7 36.267, 7 37 M 3 38.500 C 3 38.775, 3.225 39, 3.500 39 C 3.775 39, 4 38.775, 4 38.500 C 4 38.225, 3.775 38, 3.500 38 C 3.225 38, 3 38.225, 3 38.500 M 71 42.500 C 71 42.775, 71.225 43, 71.500 43 C 71.775 43, 72 42.775, 72 42.500 C 72 42.225, 71.775 42, 71.500 42 C 71.225 42, 71 42.225, 71 42.500 M 31 44.500 C 31 44.775, 31.225 45, 31.500 45 C 31.775 45, 32 44.775, 32 44.500 C 32 44.225, 31.775 44, 31.500 44 C 31.225 44, 31 44.225, 31 44.500 M 26 45.500 C 26 45.775, 26.225 46, 26.500 46 C 26.775 46, 27 45.775, 27 45.500 C 27 45.225, 26.775 45, 26.500 45 C 26.225 45, 26 45.225, 26 45.500 M 62 47.500 C 62 47.775, 62.225 48, 62.500 48 C 62.775 48, 63 47.775, 63 47.500 C 63 47.225, 62.775 47, 62.500 47 C 62.225 47, 62 47.225, 62 47.500 M 60 48.500 C 60 48.775, 60.225 49, 60.500 49 C 60.775 49, 61 48.775, 61 48.500 C 61 48.225, 60.775 48, 60.500 48 C 60.225 48, 60 48.225, 60 48.500" stroke="none" fill="#d42424" fill-rule="evenodd"></path><path d="M 32.750 6.843 C 23.045 12.334, 21 13.894, 21 15.807 C 21 18.069, 20.792 18.119, 12.250 17.913 C 5.321 17.747, 3.500 17.994, 3.500 19.101 C 3.500 20.171, 5.559 20.568, 12.250 20.789 C 20.177 21.051, 21 21.262, 21 23.039 C 21 24.693, 20.304 25, 16.559 25 C 11.964 25, 9.713 26.571, 12.122 28.096 C 12.880 28.577, 15.188 28.976, 17.250 28.985 C 20.883 29, 21 29.112, 21 32.585 L 21 36.171 14.498 35.835 C 8.844 35.544, 7.996 35.728, 7.998 37.250 C 8 38.737, 8.977 39, 14.500 39 C 20.112 39, 21 39.248, 21 40.814 C 21 41.885, 22.538 43.459, 24.750 44.652 C 26.813 45.765, 32.515 48.856, 37.421 51.521 L 46.343 56.367 51.421 53.561 C 54.215 52.018, 59.471 49.249, 63.102 47.408 C 66.733 45.568, 70.162 43.485, 70.722 42.781 C 72.258 40.847, 73.290 34, 72.045 34 C 71.470 34, 70.662 33.982, 70.250 33.961 C 69.838 33.939, 69.275 35.345, 69 37.085 C 68.556 39.894, 67.352 40.898, 58.250 46.054 L 48 51.860 48 40.455 L 48 29.051 51 27.500 C 53.996 25.951, 54 25.953, 54 28.808 C 54 32.512, 54.666 33.077, 57.678 31.932 C 61.525 30.470, 63 28.446, 63 24.628 C 63 22.130, 63.643 20.663, 65.223 19.557 C 68.412 17.323, 68.843 17.561, 69.190 21.750 C 69.680 27.680, 71.473 26.113, 71.764 19.500 L 72.029 13.500 59.898 6.750 C 53.226 3.037, 47.032 0.044, 46.134 0.098 C 45.235 0.151, 39.213 3.187, 32.750 6.843 M 43.105 5.398 C 40.788 6.682, 41.045 6.905, 51.051 12.287 C 61.065 17.673, 61.483 17.801, 64.289 16.351 C 65.882 15.527, 67.032 14.704, 66.843 14.523 C 65.900 13.615, 47.156 4.005, 46.389 4.035 C 45.900 4.055, 44.422 4.668, 43.105 5.398 M 36.493 9.011 C 36.215 9.462, 39.927 12.006, 44.743 14.665 C 54.789 20.212, 57.013 21.222, 56.966 20.218 C 56.910 19.013, 37.035 8.134, 36.493 9.011 M 28.160 13.369 C 25.907 14.619, 26.164 14.859, 35.160 19.922 C 44.795 25.343, 47.894 26.163, 50.519 23.984 C 52.391 22.431, 51.778 21.940, 40.635 16.071 C 32.151 11.603, 31.570 11.477, 28.160 13.369 M 24 28.898 L 24 39.975 27.980 42.487 C 30.169 43.869, 32.151 45, 32.384 45 C 32.617 45, 35.565 46.559, 38.935 48.463 L 45.063 51.927 44.781 40.349 L 44.500 28.771 34.250 23.296 L 24 17.821 24 28.898 M 58 25.559 C 58 27.010, 58.433 27.851, 59 27.500 C 59.550 27.160, 60 26.009, 60 24.941 C 60 23.873, 59.550 23, 59 23 C 58.450 23, 58 24.152, 58 25.559 M 5.688 25.646 C 4.383 26.950, 5.006 28, 7.083 28 C 8.247 28, 8.992 27.476, 8.771 26.813 C 8.284 25.351, 6.614 24.719, 5.688 25.646 M 69.674 28.408 C 69.111 29.874, 69.759 31, 71.167 31 C 72.283 31, 72.234 28.263, 71.105 27.565 C 70.612 27.260, 69.968 27.640, 69.674 28.408 M 1 37.088 C 1 39.199, 1.755 39.440, 3.971 38.039 C 5.563 37.032, 4.830 35.739, 2.471 35.393 C 1.614 35.267, 1 35.975, 1 37.088" stroke="none" fill="#cc2424" fill-rule="evenodd"></path></svg>