<svg xmlns="http://www.w3.org/2000/svg" width="72" height="72" viewBox="0 0 72 72"><path d="M 15 25.500 C 15 25.775, 15.225 26, 15.500 26 C 15.775 26, 16 25.775, 16 25.500 C 16 25.225, 15.775 25, 15.500 25 C 15.225 25, 15 25.225, 15 25.500 M 17 28.500 C 17 28.775, 17.225 29, 17.500 29 C 17.775 29, 18 28.775, 18 28.500 C 18 28.225, 17.775 28, 17.500 28 C 17.225 28, 17 28.225, 17 28.500 M 28 31.500 C 28 31.775, 28.225 32, 28.500 32 C 28.775 32, 29 31.775, 29 31.500 C 29 31.225, 28.775 31, 28.500 31 C 28.225 31, 28 31.225, 28 31.500 M 52 34.500 C 52 34.775, 52.225 35, 52.500 35 C 52.775 35, 53 34.775, 53 34.500 C 53 34.225, 52.775 34, 52.500 34 C 52.225 34, 52 34.225, 52 34.500 M 24 38.500 C 24 38.775, 24.225 39, 24.500 39 C 24.775 39, 25 38.775, 25 38.500 C 25 38.225, 24.775 38, 24.500 38 C 24.225 38, 24 38.225, 24 38.500 M 44 39.500 C 44 39.775, 44.225 40, 44.500 40 C 44.775 40, 45 39.775, 45 39.500 C 45 39.225, 44.775 39, 44.500 39 C 44.225 39, 44 39.225, 44 39.500 M 18 42.500 C 18 42.775, 18.225 43, 18.500 43 C 18.775 43, 19 42.775, 19 42.500 C 19 42.225, 18.775 42, 18.500 42 C 18.225 42, 18 42.225, 18 42.500 M 33 44.500 C 33 44.775, 33.225 45, 33.500 45 C 33.775 45, 34 44.775, 34 44.500 C 34 44.225, 33.775 44, 33.500 44 C 33.225 44, 33 44.225, 33 44.500 M 44 45.500 C 44 45.775, 44.225 46, 44.500 46 C 44.775 46, 45 45.775, 45 45.500 C 45 45.225, 44.775 45, 44.500 45 C 44.225 45, 44 45.225, 44 45.500 M 41 51.500 C 41 51.775, 41.225 52, 41.500 52 C 41.775 52, 42 51.775, 42 51.500 C 42 51.225, 41.775 51, 41.500 51 C 41.225 51, 41 51.225, 41 51.500 M 60 53.500 C 60 53.775, 60.225 54, 60.500 54 C 60.775 54, 61 53.775, 61 53.500 C 61 53.225, 60.775 53, 60.500 53 C 60.225 53, 60 53.225, 60 53.500 M 65 53.500 C 65 53.775, 65.225 54, 65.500 54 C 65.775 54, 66 53.775, 66 53.500 C 66 53.225, 65.775 53, 65.500 53 C 65.225 53, 65 53.225, 65 53.500 M 30 54.500 C 30 54.775, 30.225 55, 30.500 55 C 30.775 55, 31 54.775, 31 54.500 C 31 54.225, 30.775 54, 30.500 54 C 30.225 54, 30 54.225, 30 54.500 M 65 55.500 C 65 55.775, 65.225 56, 65.500 56 C 65.775 56, 66 55.775, 66 55.500 C 66 55.225, 65.775 55, 65.500 55 C 65.225 55, 65 55.225, 65 55.500 M 11 57.500 C 11 57.775, 11.225 58, 11.500 58 C 11.775 58, 12 57.775, 12 57.500 C 12 57.225, 11.775 57, 11.500 57 C 11.225 57, 11 57.225, 11 57.500 M 65 58 C 65 58.733, 65.300 59.033, 65.667 58.667 C 66.033 58.300, 66.033 57.700, 65.667 57.333 C 65.300 56.967, 65 57.267, 65 58 M 7 59.500 C 7 59.775, 7.225 60, 7.500 60 C 7.775 60, 8 59.775, 8 59.500 C 8 59.225, 7.775 59, 7.500 59 C 7.225 59, 7 59.225, 7 59.500 M 36 59.500 C 36 59.775, 36.225 60, 36.500 60 C 36.775 60, 37 59.775, 37 59.500 C 37 59.225, 36.775 59, 36.500 59 C 36.225 59, 36 59.225, 36 59.500 M 9 60.500 C 9 60.775, 9.225 61, 9.500 61 C 9.775 61, 10 60.775, 10 60.500 C 10 60.225, 9.775 60, 9.500 60 C 9.225 60, 9 60.225, 9 60.500" stroke="none" fill="#d42424" fill-rule="evenodd"></path><path d="M 14.200 8.200 C 13.451 8.949, 13 12.665, 13 18.093 C 13 25.412, 13.277 26.908, 14.750 27.557 C 16.963 28.531, 17.645 28.720, 19.500 28.875 C 20.465 28.955, 21 30.049, 21 31.941 C 21 36.354, 22.581 36.514, 27.193 32.567 L 31.360 29 44.746 29 C 52.108 29, 59.002 28.534, 60.066 27.965 C 61.752 27.062, 62 25.807, 62 18.165 C 62 12.681, 61.551 8.951, 60.800 8.200 C 59.099 6.499, 15.901 6.499, 14.200 8.200 M 16.250 9.652 C 15.400 10.002, 15 12.680, 15 18.026 L 15 25.885 19.250 26.193 C 23.065 26.469, 23.533 26.785, 23.819 29.279 L 24.138 32.058 27.926 29.058 C 31.674 26.090, 31.862 26.055, 45.607 25.779 L 59.500 25.500 59.500 17.500 L 59.500 9.500 38.500 9.319 C 26.950 9.219, 16.938 9.369, 16.250 9.652 M 23.500 14 C 23.100 14.648, 27.676 15, 36.500 15 C 45.324 15, 49.900 14.648, 49.500 14 C 48.680 12.674, 24.320 12.674, 23.500 14 M 23.694 19.639 C 22.161 21.172, 24.569 22, 30.559 22 C 35.618 22, 37 21.678, 37 20.500 C 37 19.325, 35.630 19, 30.667 19 C 27.183 19, 24.046 19.288, 23.694 19.639 M 47 34.709 C 43.364 36.047, 42 38.334, 42 43.096 C 42 45.728, 42.472 48.174, 43.049 48.530 C 44.777 49.598, 42.300 51.721, 38.492 52.436 C 36.601 52.790, 34.705 53.678, 34.277 54.408 C 33.764 55.283, 32.820 55.463, 31.500 54.938 C 30.400 54.499, 30.008 54.109, 30.629 54.070 C 32.479 53.955, 34.247 48.403, 33.507 45.032 C 32.386 39.926, 26.483 37.313, 20.500 39.273 C 18.850 39.813, 16.938 40.959, 16.250 41.819 C 14.558 43.935, 14.669 50.083, 16.445 52.618 C 17.793 54.543, 17.656 54.794, 14.411 56.341 C 12.498 57.253, 10.348 58, 9.635 58 C 7.926 58, 5.706 62.235, 6.165 64.619 C 6.503 66.375, 7.690 66.500, 24.014 66.500 L 41.500 66.500 41.500 63 C 41.500 60.014, 40.997 59.249, 38.077 57.791 L 34.653 56.082 37.077 55.147 C 44.147 52.419, 48 50.741, 48 50.391 C 48 50.176, 47.100 49.100, 46 48 C 43.567 45.567, 43.335 39.797, 45.593 37.922 C 46.470 37.195, 48.678 36.600, 50.500 36.600 C 52.322 36.600, 54.530 37.195, 55.407 37.922 C 57.489 39.650, 57.439 44.400, 55.306 47.656 C 53.697 50.111, 53.707 50.313, 55.497 51.621 C 56.534 52.380, 58.170 53, 59.132 53 C 60.095 53, 61.160 53.450, 61.500 54 C 61.840 54.550, 62.896 55, 63.846 55 C 64.858 55, 65.637 55.830, 65.725 57 C 65.868 58.892, 65.259 59, 54.438 59 C 47.479 59, 43 59.392, 43 60 C 43 60.614, 47.854 61, 55.563 61 L 68.127 61 67.813 57.928 C 67.503 54.884, 66.717 54.202, 59.795 50.972 C 57.298 49.807, 57.202 49.550, 58.545 47.633 C 60.677 44.588, 60.375 39.427, 57.931 37.150 C 55.211 34.616, 50.260 33.511, 47 34.709 M 19.250 41.662 C 17.424 42.399, 17.624 51.443, 19.500 53 C 21.929 55.016, 21.323 55.711, 15 58.163 C 10.829 59.780, 9 61.025, 9 62.245 C 9 63.840, 10.364 64, 24 64 C 38.010 64, 39 63.876, 39 62.121 C 39 60.950, 37.871 59.821, 36 59.121 C 34.350 58.505, 31.650 57.495, 30 56.879 C 26.467 55.558, 26.322 54.924, 29 52.500 C 31.726 50.033, 31.768 43.481, 29.066 42.035 C 27.083 40.974, 21.483 40.761, 19.250 41.662" stroke="none" fill="#cc2424" fill-rule="evenodd"></path></svg>