<svg xmlns="http://www.w3.org/2000/svg" width="72" height="72" viewBox="0 0 72 72"><path d="M 21 0.500 C 21 0.775, 21.225 1, 21.500 1 C 21.775 1, 22 0.775, 22 0.500 C 22 0.225, 21.775 0, 21.500 0 C 21.225 0, 21 0.225, 21 0.500 M 52 1.500 C 52 1.775, 52.225 2, 52.500 2 C 52.775 2, 53 1.775, 53 1.500 C 53 1.225, 52.775 1, 52.500 1 C 52.225 1, 52 1.225, 52 1.500 M 25 2.500 C 25 2.775, 25.225 3, 25.500 3 C 25.775 3, 26 2.775, 26 2.500 C 26 2.225, 25.775 2, 25.500 2 C 25.225 2, 25 2.225, 25 2.500 M 46 2.500 C 46 2.775, 46.225 3, 46.500 3 C 46.775 3, 47 2.775, 47 2.500 C 47 2.225, 46.775 2, 46.500 2 C 46.225 2, 46 2.225, 46 2.500 M 51 3.500 C 51 3.775, 51.225 4, 51.500 4 C 51.775 4, 52 3.775, 52 3.500 C 52 3.225, 51.775 3, 51.500 3 C 51.225 3, 51 3.225, 51 3.500 M 58 4.500 C 58 4.775, 58.225 5, 58.500 5 C 58.775 5, 59 4.775, 59 4.500 C 59 4.225, 58.775 4, 58.500 4 C 58.225 4, 58 4.225, 58 4.500 M 47 5.500 C 47 5.775, 47.225 6, 47.500 6 C 47.775 6, 48 5.775, 48 5.500 C 48 5.225, 47.775 5, 47.500 5 C 47.225 5, 47 5.225, 47 5.500 M 54 8.500 C 54 8.775, 54.225 9, 54.500 9 C 54.775 9, 55 8.775, 55 8.500 C 55 8.225, 54.775 8, 54.500 8 C 54.225 8, 54 8.225, 54 8.500 M 55 12.500 C 55 12.775, 55.225 13, 55.500 13 C 55.775 13, 56 12.775, 56 12.500 C 56 12.225, 55.775 12, 55.500 12 C 55.225 12, 55 12.225, 55 12.500 M 5 13.500 C 5 13.775, 5.225 14, 5.500 14 C 5.775 14, 6 13.775, 6 13.500 C 6 13.225, 5.775 13, 5.500 13 C 5.225 13, 5 13.225, 5 13.500 M 66 13.500 C 66 13.775, 66.225 14, 66.500 14 C 66.775 14, 67 13.775, 67 13.500 C 67 13.225, 66.775 13, 66.500 13 C 66.225 13, 66 13.225, 66 13.500 M 7 15.500 C 7 15.775, 7.225 16, 7.500 16 C 7.775 16, 8 15.775, 8 15.500 C 8 15.225, 7.775 15, 7.500 15 C 7.225 15, 7 15.225, 7 15.500 M 59 17.500 C 59 17.775, 59.225 18, 59.500 18 C 59.775 18, 60 17.775, 60 17.500 C 60 17.225, 59.775 17, 59.500 17 C 59.225 17, 59 17.225, 59 17.500 M 10 23.500 C 10 23.775, 10.225 24, 10.500 24 C 10.775 24, 11 23.775, 11 23.500 C 11 23.225, 10.775 23, 10.500 23 C 10.225 23, 10 23.225, 10 23.500 M 26.405 25.155 C 25.962 25.870, 26.130 26.038, 26.845 25.595 C 27.480 25.203, 28 24.684, 28 24.441 C 28 23.607, 27.117 24.002, 26.405 25.155 M 44 24.500 C 44 24.775, 44.225 25, 44.500 25 C 44.775 25, 45 24.775, 45 24.500 C 45 24.225, 44.775 24, 44.500 24 C 44.225 24, 44 24.225, 44 24.500 M 2 26 C 2 26.733, 2.300 27.033, 2.667 26.667 C 3.033 26.300, 3.033 25.700, 2.667 25.333 C 2.300 24.967, 2 25.267, 2 26 M 10.195 28.500 C 10.215 30.150, 10.439 30.704, 10.693 29.731 C 10.947 28.758, 10.930 27.408, 10.656 26.731 C 10.382 26.054, 10.175 26.850, 10.195 28.500 M 48 27.500 C 48 27.775, 48.225 28, 48.500 28 C 48.775 28, 49 27.775, 49 27.500 C 49 27.225, 48.775 27, 48.500 27 C 48.225 27, 48 27.225, 48 27.500 M 2.079 33.583 C 2.127 34.748, 2.364 34.985, 2.683 34.188 C 2.972 33.466, 2.936 32.603, 2.604 32.271 C 2.272 31.939, 2.036 32.529, 2.079 33.583 M 28 32.500 C 28 32.775, 28.225 33, 28.500 33 C 28.775 33, 29 32.775, 29 32.500 C 29 32.225, 28.775 32, 28.500 32 C 28.225 32, 28 32.225, 28 32.500 M 59 33.500 C 59 33.775, 59.225 34, 59.500 34 C 59.775 34, 60 33.775, 60 33.500 C 60 33.225, 59.775 33, 59.500 33 C 59.225 33, 59 33.225, 59 33.500 M 28 35.500 C 28 35.775, 28.225 36, 28.500 36 C 28.775 36, 29 35.775, 29 35.500 C 29 35.225, 28.775 35, 28.500 35 C 28.225 35, 28 35.225, 28 35.500 M 10.365 45.500 C 10.368 51, 10.536 53.122, 10.738 50.216 C 10.941 47.311, 10.939 42.811, 10.734 40.216 C 10.528 37.622, 10.363 40, 10.365 45.500 M 31 36.500 C 31 36.775, 31.225 37, 31.500 37 C 31.775 37, 32 36.775, 32 36.500 C 32 36.225, 31.775 36, 31.500 36 C 31.225 36, 31 36.225, 31 36.500 M 25 37.500 C 25 37.775, 25.225 38, 25.500 38 C 25.775 38, 26 37.775, 26 37.500 C 26 37.225, 25.775 37, 25.500 37 C 25.225 37, 25 37.225, 25 37.500 M 23 38.500 C 23 38.775, 23.225 39, 23.500 39 C 23.775 39, 24 38.775, 24 38.500 C 24 38.225, 23.775 38, 23.500 38 C 23.225 38, 23 38.225, 23 38.500 M 38 38.500 C 38 38.775, 38.225 39, 38.500 39 C 38.775 39, 39 38.775, 39 38.500 C 39 38.225, 38.775 38, 38.500 38 C 38.225 38, 38 38.225, 38 38.500 M 3.328 45.500 C 3.333 49.350, 3.513 50.802, 3.730 48.728 C 3.946 46.653, 3.943 43.503, 3.722 41.728 C 3.501 39.952, 3.324 41.650, 3.328 45.500 M 68.328 45.500 C 68.333 49.350, 68.513 50.802, 68.730 48.728 C 68.946 46.653, 68.943 43.503, 68.722 41.728 C 68.501 39.952, 68.324 41.650, 68.328 45.500 M 29 43.500 C 29 43.775, 29.225 44, 29.500 44 C 29.775 44, 30 43.775, 30 43.500 C 30 43.225, 29.775 43, 29.500 43 C 29.225 43, 29 43.225, 29 43.500 M 41 43.500 C 41 43.775, 41.225 44, 41.500 44 C 41.775 44, 42 43.775, 42 43.500 C 42 43.225, 41.775 43, 41.500 43 C 41.225 43, 41 43.225, 41 43.500 M 36 49.500 C 36 49.775, 36.225 50, 36.500 50 C 36.775 50, 37 49.775, 37 49.500 C 37 49.225, 36.775 49, 36.500 49 C 36.225 49, 36 49.225, 36 49.500 M 4 56.500 C 4 56.775, 4.225 57, 4.500 57 C 4.775 57, 5 56.775, 5 56.500 C 5 56.225, 4.775 56, 4.500 56 C 4.225 56, 4 56.225, 4 56.500 M 14 56.500 C 14 56.775, 14.225 57, 14.500 57 C 14.775 57, 15 56.775, 15 56.500 C 15 56.225, 14.775 56, 14.500 56 C 14.225 56, 14 56.225, 14 56.500 M 67 56.500 C 67 56.775, 67.225 57, 67.500 57 C 67.775 57, 68 56.775, 68 56.500 C 68 56.225, 67.775 56, 67.500 56 C 67.225 56, 67 56.225, 67 56.500" stroke="none" fill="#d42424" fill-rule="evenodd"></path><path d="M 17.500 2.383 C 8.236 6.763, 2.670 15.250, 3.217 24.162 C 3.580 30.072, 4.213 29.299, 5.947 20.830 C 7.536 13.069, 12.962 6.906, 20.782 3.980 C 25.718 2.133, 28.005 1.902, 37.500 2.290 C 49.566 2.782, 50.140 2.881, 54.500 5.215 C 61.917 9.186, 66.133 16.571, 66.793 26.750 C 67.184 32.787, 67.008 34, 65.737 34 C 64.530 34, 64.138 32.366, 63.856 26.172 C 63.549 19.423, 63.110 17.833, 60.669 14.633 C 59.112 12.591, 55.995 9.702, 53.743 8.211 C 49.973 5.715, 48.702 5.472, 37.749 5.142 C 24.265 4.737, 19.492 5.935, 14.280 11.030 C 9.684 15.524, 8 19.914, 8 27.401 C 8 32.600, 7.682 34, 6.500 34 C 5.675 34, 5 33.325, 5 32.500 C 5 31.675, 4.550 31, 4 31 C 3.450 31, 3 31.873, 3 32.941 C 3 34.009, 2.550 35.160, 2 35.500 C 0.850 36.211, 0.655 52.909, 1.775 54.671 C 2.185 55.315, 3.735 56.146, 5.219 56.519 C 6.703 56.891, 8.442 57.827, 9.081 58.598 C 10.710 60.560, 14.378 60.344, 16.345 58.171 C 17.676 56.701, 18 54.168, 18 45.243 C 18 33.120, 17.160 31, 12.354 31 C 9.946 31, 9.871 30.810, 10.388 26.023 C 11.401 16.629, 17.379 9.666, 25.472 8.452 C 33.583 7.236, 49.151 8.355, 52.500 10.396 C 58.104 13.810, 60.387 17.721, 60.830 24.666 C 61.202 30.511, 61.075 31, 59.188 31 C 54.856 31, 54 33.377, 54 45.416 C 54 55.068, 54.263 56.928, 55.829 58.345 C 57.977 60.289, 61.107 60.493, 62.800 58.800 C 63.733 57.867, 64 58.099, 64 59.845 C 64 63.543, 59.702 67, 55.104 67 C 52.912 67, 50.840 66.550, 50.500 66 C 50.160 65.450, 47.264 65, 44.063 65 C 37.548 65, 34.768 66.815, 36.661 69.834 C 37.893 71.798, 47.241 72.680, 50.455 71.136 C 51.580 70.596, 54.525 69.922, 57 69.638 C 62.763 68.979, 67 64.677, 67 59.484 C 67 57.173, 67.469 56, 68.393 56 C 69.159 56, 70.059 55.288, 70.393 54.418 C 71.399 51.796, 71.075 36.164, 70 35.500 C 69.450 35.160, 69 31.189, 69 26.676 C 69 14.707, 64.965 7.860, 54.806 2.589 C 50.146 0.172, 48.910 0.001, 36.158 0.010 C 23.888 0.019, 21.992 0.260, 17.500 2.383 M 32.190 20.027 C 31.151 21.141, 29.650 21.803, 28.853 21.497 C 26.894 20.745, 22.575 25.451, 23.357 27.487 C 23.714 28.418, 23.352 29.311, 22.483 29.645 C 20.320 30.475, 20.432 38, 22.608 38 C 23.822 38, 24.064 38.610, 23.593 40.485 C 22.836 43.502, 26.232 47.434, 28.976 46.716 C 29.974 46.456, 31.487 47.088, 32.390 48.142 C 34.286 50.357, 38.875 49.975, 40.267 47.487 C 40.811 46.516, 41.866 46.140, 43.023 46.507 C 45.542 47.307, 49.359 43.481, 48.670 40.846 C 48.365 39.679, 48.734 38.655, 49.578 38.332 C 51.604 37.554, 51.483 30.399, 49.431 29.612 C 48.453 29.237, 48.080 28.324, 48.440 27.188 C 49.131 25.011, 44.741 20.424, 42.997 21.502 C 42.365 21.893, 40.964 21.265, 39.884 20.106 C 37.410 17.450, 34.617 17.421, 32.190 20.027 M 33.196 23.204 C 32.534 23.866, 30.757 24.428, 29.246 24.454 C 26.954 24.492, 26.492 24.945, 26.454 27.196 C 26.429 28.678, 25.642 30.738, 24.704 31.774 C 22.583 34.118, 22.586 34.492, 24.750 37.030 C 25.712 38.159, 26.500 40.076, 26.500 41.291 C 26.500 43.011, 27.110 43.522, 29.257 43.601 C 30.773 43.657, 32.910 44.514, 34.007 45.506 C 35.853 47.177, 36.133 47.190, 37.802 45.679 C 39.341 44.287, 41.958 43.380, 45.317 43.074 C 45.767 43.033, 45.856 42.123, 45.516 41.051 C 45.117 39.793, 45.625 38.375, 46.949 37.051 C 49.433 34.567, 49.536 33.113, 47.344 31.509 C 46.433 30.843, 45.571 29.219, 45.427 27.899 C 45.284 26.580, 45.129 25.132, 45.083 24.683 C 45.038 24.233, 44.189 24.123, 43.198 24.437 C 42.206 24.752, 40.519 24.347, 39.448 23.536 C 37.059 21.730, 34.791 21.609, 33.196 23.204 M 32.159 27.601 C 24.564 32.921, 30.376 44.572, 38.870 41.054 C 41.681 39.889, 44 36.419, 44 33.376 C 44 31.233, 38.536 26, 36.299 26 C 35.280 26, 33.416 26.720, 32.159 27.601 M 32.655 30.829 C 29.139 34.714, 31.957 39.577, 37.281 38.813 C 40.542 38.345, 41.897 33.649, 39.527 31.030 C 37.248 28.511, 34.817 28.440, 32.655 30.829 M 58.121 34.354 C 57.321 35.318, 57.022 39.202, 57.214 46.134 C 57.456 54.880, 57.759 56.526, 59.178 56.798 C 60.362 57.024, 60.950 56.316, 61.178 54.387 C 61.521 51.477, 64 49.746, 64 52.417 C 64 54.481, 67.601 54.482, 68.393 52.418 C 69.179 50.370, 69.179 40.630, 68.393 38.582 C 68.059 37.712, 66.934 37, 65.893 37 C 64.243 37, 64 37.781, 64 43.083 C 64 47.504, 63.658 49.054, 62.750 48.754 C 61.952 48.490, 61.391 45.840, 61.199 41.420 C 60.877 34.006, 60.028 32.057, 58.121 34.354 M 10.626 35.533 C 9.823 37.625, 9.808 53.336, 10.607 55.418 C 10.941 56.288, 12.081 57, 13.140 57 C 14.943 57, 15.048 56.287, 14.783 45.762 C 14.545 36.328, 14.239 34.474, 12.876 34.213 C 11.983 34.042, 10.970 34.636, 10.626 35.533 M 3.607 38.582 C 2.821 40.630, 2.821 50.370, 3.607 52.418 C 3.941 53.288, 5.066 54, 6.107 54 C 7.816 54, 8 53.173, 8 45.500 C 8 37.827, 7.816 37, 6.107 37 C 5.066 37, 3.941 37.712, 3.607 38.582 M 39.528 67.954 C 39.168 68.537, 39.534 69.268, 40.341 69.578 C 42.553 70.426, 48.500 69.641, 48.500 68.500 C 48.500 67.130, 40.344 66.634, 39.528 67.954" stroke="none" fill="#cc2424" fill-rule="evenodd"></path></svg>