<svg xmlns="http://www.w3.org/2000/svg" width="72" height="72" viewBox="0 0 72 72"><path d="M 31 18.500 C 31 18.775, 31.225 19, 31.500 19 C 31.775 19, 32 18.775, 32 18.500 C 32 18.225, 31.775 18, 31.500 18 C 31.225 18, 31 18.225, 31 18.500 M 25 20.500 C 25 20.775, 25.225 21, 25.500 21 C 25.775 21, 26 20.775, 26 20.500 C 26 20.225, 25.775 20, 25.500 20 C 25.225 20, 25 20.225, 25 20.500 M 28 20.500 C 28 20.775, 28.225 21, 28.500 21 C 28.775 21, 29 20.775, 29 20.500 C 29 20.225, 28.775 20, 28.500 20 C 28.225 20, 28 20.225, 28 20.500 M 46 29.500 C 46 29.775, 46.225 30, 46.500 30 C 46.775 30, 47 29.775, 47 29.500 C 47 29.225, 46.775 29, 46.500 29 C 46.225 29, 46 29.225, 46 29.500 M 51 31.500 C 51 31.775, 51.225 32, 51.500 32 C 51.775 32, 52 31.775, 52 31.500 C 52 31.225, 51.775 31, 51.500 31 C 51.225 31, 51 31.225, 51 31.500 M 44.405 33.155 C 43.962 33.870, 44.130 34.038, 44.845 33.595 C 45.998 32.883, 46.393 32, 45.559 32 C 45.316 32, 44.797 32.520, 44.405 33.155 M 42 33.500 C 42 33.775, 42.225 34, 42.500 34 C 42.775 34, 43 33.775, 43 33.500 C 43 33.225, 42.775 33, 42.500 33 C 42.225 33, 42 33.225, 42 33.500 M 29 38.500 C 29 38.775, 29.225 39, 29.500 39 C 29.775 39, 30 38.775, 30 38.500 C 30 38.225, 29.775 38, 29.500 38 C 29.225 38, 29 38.225, 29 38.500 M 39 43.500 C 39 43.775, 39.225 44, 39.500 44 C 39.775 44, 40 43.775, 40 43.500 C 40 43.225, 39.775 43, 39.500 43 C 39.225 43, 39 43.225, 39 43.500" stroke="none" fill="#d42424" fill-rule="evenodd"></path><path d="M 5.667 10.667 C 4.175 12.159, 5.049 15, 7 15 C 8.926 15, 9 15.667, 9 33 L 9 51 21.513 51 L 34.027 51 32.405 54.750 C 29.791 60.792, 29.610 62, 31.316 62 C 32.168 62, 33.181 60.987, 33.567 59.750 C 33.953 58.512, 34.849 56.662, 35.557 55.638 C 36.749 53.916, 37.002 54.084, 38.943 57.888 C 41.067 62.051, 43 63.277, 43 60.460 C 43 59.613, 42.091 57.138, 40.980 54.960 L 38.959 51 50.980 51 L 63 51 63 33 C 63 15.667, 63.074 15, 65 15 C 66.467 15, 67 14.333, 67 12.500 L 67 10 36.667 10 C 19.983 10, 6.033 10.300, 5.667 10.667 M 11 31.500 L 11 48 36 48 L 61 48 61 31.500 L 61 15 36 15 L 11 15 11 31.500 M 29.250 19.492 C 28.838 20.216, 27.375 20.963, 26 21.154 C 24.149 21.410, 23.468 22.138, 23.377 23.958 C 23.309 25.310, 22.746 26.585, 22.127 26.791 C 20.663 27.279, 20.663 30.721, 22.127 31.209 C 22.746 31.415, 23.309 32.690, 23.377 34.042 C 23.468 35.865, 24.146 36.586, 26 36.835 C 27.375 37.019, 28.928 37.581, 29.450 38.085 C 30.691 39.281, 34 39.267, 34 38.066 C 34 37.553, 35.237 36.990, 36.750 36.816 C 38.910 36.568, 39.568 35.910, 39.816 33.750 C 39.990 32.237, 40.553 31, 41.066 31 C 42.347 31, 42.238 28.434, 40.845 25.736 C 40.209 24.506, 39.351 22.825, 38.938 22 C 38.524 21.175, 37.647 20.628, 36.988 20.785 C 36.329 20.942, 35.116 20.512, 34.294 19.829 C 32.193 18.085, 30.131 17.948, 29.250 19.492 M 27.455 24.455 C 26.105 25.805, 25 27.745, 25 28.766 C 25 31.623, 28.730 35, 31.884 35 C 37.845 35, 40.132 27.822, 35.365 24.073 C 31.951 21.387, 30.449 21.460, 27.455 24.455 M 28.457 27.450 C 26.435 31.710, 27.143 33, 31.500 33 C 33.360 33, 35.174 32.527, 35.531 31.950 C 36.456 30.454, 33.183 24, 31.500 24 C 30.727 24, 29.357 25.552, 28.457 27.450 M 45.250 30.083 C 43.010 30.932, 42.502 32.389, 42.895 36.834 C 43.063 38.727, 42.735 39.051, 41.156 38.550 C 38.287 37.639, 35.689 40.550, 37.070 43.130 C 38.694 46.165, 42.418 45.214, 42.825 41.660 C 43.107 39.198, 43.475 38.902, 45.596 39.435 C 50.685 40.712, 53.849 36.855, 51.463 32.281 C 50.665 30.751, 50.010 29.893, 50.006 30.372 C 50.003 30.852, 49.438 30.792, 48.750 30.238 C 47.997 29.631, 46.605 29.570, 45.250 30.083 M 44.359 33.507 C 44.006 34.427, 44.416 35.844, 45.286 36.714 C 47.410 38.838, 50.227 37.621, 49.820 34.754 C 49.426 31.977, 45.307 31.037, 44.359 33.507 M 38.500 41 C 37.423 42.742, 39.019 44.229, 40.578 42.935 C 41.348 42.296, 41.731 41.374, 41.430 40.887 C 40.700 39.706, 39.265 39.762, 38.500 41" stroke="none" fill="#cc2424" fill-rule="evenodd"></path></svg>